<?xml version="1.0" encoding="UTF-8"?>
<svg width="340px" height="75px" viewBox="0 0 340 75" version="1.1" xmlns="http://www.w3.org/2000/svg" xmlns:xlink="http://www.w3.org/1999/xlink">
    <!-- Generator: Sketch 64 (93537) - https://sketch.com -->
    <title>wvems_logo_dark</title>
    <desc>Created with Sketch.</desc>
    <defs>
        <polygon id="path-1" points="0.48 74.546 339.6 74.546 339.6 0.904 0.48 0.904"></polygon>
    </defs>
    <g id="Page-2" stroke="none" stroke-width="1" fill="none" fill-rule="evenodd">
        <g id="Group-118">
            <path d="M158.993,15.6749 C159.361,15.7999 159.995,16.1849 160.307,16.1849 C160.307,14.4009 160.472,14.6939 160.472,14.6039 C160.439,13.8559 161.979,9.0319 161.832,8.8579 C159.333,9.2649 160.779,13.1419 158.667,10.8459 C157.836,10.7069 159.848,12.1649 158.993,15.6749 M158.501,16.0619 C155.71,15.8679 154.576,18.0339 154.576,20.1419 L153.451,20.1419 L153.451,4.8669 L165.106,4.8669 L165.106,20.3899 L163.964,20.3899 C163.964,20.3649 163.964,20.3399 163.959,20.3149 C161.979,20.8399 162.409,20.5129 162.598,19.8939 C162.48,18.7929 160.93,21.2279 160.112,21.8179 C160.042,21.0289 160.231,21.1029 160.292,19.7399 C160.042,19.6169 159.3,20.0819 158.813,19.5669 L158.95,19.1699 C159.777,19.4769 160.165,18.9319 161.535,18.7789 C162.111,18.9769 164.672,18.2029 161.388,17.0079 C159.995,16.7599 159.465,16.1559 158.501,16.0619" id="Fill-20" fill="#FFFFFE"></path>
            <path d="M158.7097,50.7447 C158.7097,52.6677 158.8897,55.0627 159.4507,55.2467 C160.0567,55.4197 160.2167,52.0487 160.2167,51.1507 C159.6537,51.1357 159.1257,50.9617 158.7097,50.7447 L158.7097,50.7447 Z M159.0497,38.6577 C159.0917,38.7477 160.0417,39.4467 160.2027,39.6497 C160.2497,39.4467 160.0847,35.3507 160.0847,35.2427 C159.7727,35.0887 159.2717,34.9007 158.9597,34.6817 C158.9737,35.4607 158.9027,37.9737 159.0497,38.6577 L159.0497,38.6577 Z M158.7237,26.9527 C158.7857,27.5927 158.9737,29.9677 158.9177,31.1777 C158.9027,31.6727 159.8197,31.6877 160.4097,32.1387 C160.4527,32.1387 161.0147,30.3997 160.2497,30.8347 C160.1457,29.8087 160.2027,28.3067 160.2167,28.1187 C160.2497,28.0737 159.1107,27.4187 158.7237,26.9527 L158.7237,26.9527 Z M163.2787,50.4817 C161.9037,49.9567 159.8917,49.9067 158.4877,48.1377 C158.0017,47.8297 158.0437,47.2397 158.3407,47.1007 L158.3407,44.4137 C156.9327,44.6617 155.8267,46.7297 156.5367,48.4187 C157.1127,49.5497 158.5917,50.3277 160.8407,50.6707 C161.3747,50.7297 162.8537,50.8387 163.2787,50.4817 L163.2787,50.4817 Z M158.6337,30.9737 C158.6337,30.1657 158.5767,29.3927 158.5017,28.7877 C156.3287,29.3627 155.5587,31.3157 156.9327,33.0367 C157.8067,33.9377 160.1597,34.6817 160.4527,34.6817 C160.7367,34.6667 161.0007,35.2427 160.4727,35.3657 C160.5147,36.1597 160.5707,37.7407 160.5707,37.6957 C160.9307,37.5727 163.2497,36.6407 162.7157,34.3597 C162.3047,32.5257 159.4047,32.4017 158.7237,31.7177 C158.5017,31.6427 157.9257,31.4097 158.6337,30.9737 L158.6337,30.9737 Z M161.9797,42.2717 C161.2367,40.7507 159.6127,40.1457 158.5487,39.1537 C158.2797,38.9207 158.2937,38.6727 158.5017,38.4997 L158.3977,35.9117 C156.0027,36.5167 155.6767,38.6577 156.5367,39.8037 C157.8067,41.4987 160.2027,42.7827 160.3537,43.2987 C160.5707,44.0127 160.6177,44.9587 160.5417,45.5147 C161.9647,45.2517 162.4517,43.5457 161.9797,42.2717 L161.9797,42.2717 Z M158.5957,42.6487 C158.6717,42.8527 158.7707,47.1257 158.6667,47.6707 C158.7097,48.0927 159.8487,48.7607 160.1127,48.9307 C160.3357,47.2697 160.0287,45.6377 159.9957,43.7647 C159.5827,43.2197 158.9977,42.8217 158.5957,42.6487 L158.5957,42.6487 Z M154.5757,20.1417 C154.5757,21.1327 154.8257,22.1147 155.2797,22.8287 C155.7237,23.8497 157.5287,25.1237 158.3547,25.8977 C159.0497,26.5517 160.1127,27.4187 160.9727,28.0247 C161.2367,28.1827 160.9867,28.6147 160.4727,28.3957 C160.4727,29.1737 160.5897,29.6547 160.5897,30.4137 C162.5267,30.2747 163.1747,29.5607 163.3537,28.5547 C163.7697,26.1797 160.3057,24.6877 158.5157,23.3097 C155.7807,21.2127 156.4187,18.0297 158.3547,18.8527 C158.5827,19.0067 158.7757,19.1057 158.9507,19.1697 L158.8137,19.5657 C158.8417,21.2127 159.0777,21.2427 159.0357,21.7877 C158.9927,22.4367 159.0067,22.2827 158.9927,22.8437 C159.1817,23.2457 159.9247,23.7907 160.1127,23.9297 C160.1597,23.3247 160.2317,23.5287 160.3967,23.2147 C161.3317,21.5847 163.9627,21.2917 163.9627,20.3887 L165.1067,20.3887 L165.1067,20.3937 L177.8017,12.6617 L183.8777,23.2997 L170.9367,31.1427 L183.9947,39.1037 L178.3157,49.8027 L171.1637,45.4307 L165.1067,41.7317 L165.1067,57.4127 L153.4517,57.4127 L153.4517,41.7317 L140.5107,49.5747 L134.5297,38.5087 L147.4747,30.8247 L134.6797,23.2997 L140.5107,12.7107 L151.6937,19.4827 L153.4517,20.5477 L153.4517,20.1417 L154.5757,20.1417 Z" id="Fill-22" fill="#FFFFFE"></path>
            <polygon id="Fill-24" fill="#FFFFFE" points="185.5972 38.6631 173.2702 31.1481 185.4752 23.7511 186.3812 23.7511 186.3812 24.2561 215.8202 24.2561 215.8202 34.6031 213.9022 35.2121 210.4202 37.9531 209.4512 38.2911 186.3812 38.2911 186.3812 43.4671 184.5192 43.6651 182.9942 43.4021"></polygon>
            <polygon id="Fill-26" fill="#FFFFFE" points="217.2189 5.2144 217.2189 18.3034 186.3819 18.3034 186.3819 23.7504 185.4749 23.7504 178.1319 11.0444 172.0899 14.7084 172.0899 5.2144"></polygon>
            <polygon id="Fill-28" fill="#FFFFFE" points="243.133 5.2541 248.463 19.0711 244.805 19.4571 239.151 23.1111 235.333 26.4181 234.128 22.9381 234.128 27.4601 226.087 31.5591 221.084 32.9321 219.302 33.4971 219.302 5.2541"></polygon>
            <mask id="mask-2" fill="white">
                <use xlink:href="#path-1"></use>
            </mask>
            <g id="Clip-31"></g>
            <polygon id="Fill-30" fill="#FFFFFE" mask="url(#mask-2)" points="329.295 73.094 331.142 73.094 331.142 70.997 329.295 70.997"></polygon>
            <path d="M328.4927,67.8486 L326.1867,67.8486 L326.1867,66.8766 C326.1867,66.5396 326.1587,66.3106 326.1067,66.1876 C326.0537,66.0686 325.9597,66.0036 325.8187,66.0036 C325.6767,66.0036 325.5817,66.0576 325.5347,66.1686 C325.4827,66.2726 325.4597,66.5106 325.4597,66.8766 L325.4597,70.8536 C325.4597,71.1506 325.4967,71.3726 325.5677,71.5266 C325.6387,71.6766 325.7477,71.7506 325.8887,71.7506 C326.0537,71.7506 326.1677,71.6766 326.2247,71.5166 C326.2817,71.3586 326.3097,71.0606 326.3097,70.6296 L326.3097,69.6226 L328.4927,69.6226 C328.4867,70.2976 328.4637,70.8036 328.4217,71.1406 C328.3787,71.4766 328.2467,71.8186 328.0147,72.1766 C327.7887,72.5286 327.4907,72.7966 327.1227,72.9746 C326.7537,73.1536 326.3047,73.2426 325.7617,73.2426 C325.0717,73.2426 324.5237,73.1186 324.1227,72.8706 C323.7207,72.6276 323.4327,72.2806 323.2667,71.8296 C323.0967,71.3836 323.0167,70.7536 323.0167,69.9306 L323.0167,67.5366 C323.0167,66.8216 323.0827,66.2826 323.2197,65.9146 C323.3567,65.5526 323.6487,65.2306 324.0987,64.9426 C324.5467,64.6606 325.0907,64.5176 325.7337,64.5176 C326.3707,64.5176 326.9137,64.6556 327.3627,64.9376 C327.8177,65.2256 328.1147,65.5836 328.2657,66.0136 C328.4167,66.4456 328.4927,67.0556 328.4927,67.8486" id="Fill-32" fill="#FFFFFE" mask="url(#mask-2)"></path>
            <path d="M318.7547,65.4439 C318.9347,65.1319 319.1477,64.8989 319.4067,64.7449 C319.6617,64.5909 319.9607,64.5169 320.2947,64.5169 C320.7107,64.5169 321.0567,64.6209 321.3207,64.8289 C321.5897,65.0329 321.7597,65.2959 321.8347,65.6079 C321.9107,65.9249 321.9487,66.4499 321.9487,67.1889 L321.9487,73.0929 L319.5057,73.0929 L319.5057,67.2579 C319.5057,66.6779 319.4877,66.3259 319.4497,66.1979 C319.4167,66.0689 319.3127,66.0049 319.1477,66.0049 C319.1047,66.0049 319.0667,66.0099 319.0287,66.0189 L318.7547,65.4439 Z" id="Fill-33" fill="#FFFFFE" mask="url(#mask-2)"></path>
            <path d="M318.8209,66.2269 C318.7789,66.3709 318.7549,66.7629 318.7549,67.3969 L318.7549,73.0939 L316.3119,73.0939 L316.3119,64.6649 L318.7979,64.6649 L318.7549,65.4439 L319.0289,66.0189 C318.9249,66.0439 318.8589,66.1179 318.8209,66.2269" id="Fill-34" fill="#FFFFFE" mask="url(#mask-2)"></path>
            <polygon id="Fill-35" fill="#FFFFFE" mask="url(#mask-2)" points="312.518 73.094 315.065 73.094 315.065 62.817 312.518 62.817"></polygon>
            <path d="M309.1407,73.1875 C309.0317,73.4945 308.8437,73.7585 308.5737,73.9715 C308.3087,74.1895 308.0067,74.3325 307.6667,74.4025 L307.6667,73.6685 C307.9067,73.5255 308.0447,73.3315 308.0777,73.0935 L307.6667,73.0935 L307.6667,71.0815 L309.3057,71.0815 L309.3057,71.9985 C309.3057,72.4845 309.2497,72.8755 309.1407,73.1875" id="Fill-36" fill="#FFFFFE" mask="url(#mask-2)"></path>
            <polygon id="Fill-37" fill="#FFFFFE" mask="url(#mask-2)" points="304.193 73.094 306.707 73.094 306.707 62.817 304.193 62.817"></polygon>
            <polygon id="Fill-38" fill="#FFFFFE" mask="url(#mask-2)" points="300.5 73.094 303.017 73.094 303.017 64.666 300.5 64.666"></polygon>
            <polygon id="Fill-39" fill="#FFFFFE" mask="url(#mask-2)" points="300.5 64.154 303.017 64.154 303.017 62.817 300.5 62.817"></polygon>
            <path d="M299.4785,67.8486 L297.1735,67.8486 L297.1735,66.8766 C297.1735,66.5396 297.1445,66.3106 297.0935,66.1876 C297.0405,66.0686 296.9465,66.0036 296.8045,66.0036 C296.6635,66.0036 296.5675,66.0576 296.5205,66.1686 C296.4685,66.2726 296.4455,66.5106 296.4455,66.8766 L296.4455,70.8536 C296.4455,71.1506 296.4845,71.3726 296.5535,71.5266 C296.6295,71.6766 296.7335,71.7506 296.8755,71.7506 C297.0405,71.7506 297.1545,71.6766 297.2105,71.5166 C297.2715,71.3586 297.3015,71.0606 297.3015,70.6296 L297.3015,69.6226 L299.4785,69.6226 C299.4735,70.2976 299.4505,70.8036 299.4075,71.1406 C299.3645,71.4766 299.2325,71.8186 299.0015,72.1766 C298.7755,72.5286 298.4765,72.7966 298.1085,72.9746 C297.7455,73.1536 297.2915,73.2426 296.7485,73.2426 C296.0575,73.2426 295.5145,73.1186 295.1085,72.8706 C294.7065,72.6276 294.4185,72.2806 294.2535,71.8296 C294.0885,71.3836 294.0025,70.7536 294.0025,69.9306 L294.0025,67.5366 C294.0025,66.8216 294.0735,66.2826 294.2055,65.9146 C294.3475,65.5526 294.6355,65.2306 295.0845,64.9426 C295.5335,64.6606 296.0765,64.5176 296.7195,64.5176 C297.3565,64.5176 297.9005,64.6556 298.3545,64.9376 C298.8035,65.2256 299.1055,65.5836 299.2565,66.0136 C299.4025,66.4456 299.4785,67.0556 299.4785,67.8486" id="Fill-40" fill="#FFFFFE" mask="url(#mask-2)"></path>
            <polygon id="Fill-41" fill="#00A3DA" mask="url(#mask-2)" points="290.4734 27.7565 290.3124 27.4445 290.2754 27.3605 291.9474 28.0735 306.3814 32.5655 297.3764 28.0635 289.6084 24.4255 289.2684 24.2765 289.2254 24.0535 289.1694 23.6855 289.1174 23.3195 289.0804 22.9475 289.0464 22.5705 289.0274 22.1895 289.0134 21.8025 289.0094 21.4115 289.0134 20.9095 289.0324 20.4135 289.0654 19.9285 289.1084 19.4475 289.1644 18.9675 289.2354 18.5005 289.3214 18.0345 289.4154 17.5785 289.5234 17.1275 289.6464 16.6815 289.7784 16.2455 289.9294 15.8135 290.0904 15.3875 290.2514 15.0005 293.9314 16.3735 296.2804 18.7485 298.4764 20.0925 301.8264 20.2755 308.9604 22.2185 309.0124 22.2385 309.3864 22.3775 309.7834 22.5215 310.1944 22.6545 310.6334 22.7935 311.0924 22.9225 311.5694 23.0575 311.6434 23.0765 315.9674 24.9555 319.1334 26.1695 322.5064 28.9315 327.0784 32.0145 330.7784 33.3885 337.5304 36.4225 337.5444 36.4675 337.5914 36.6505 337.6384 36.8385 337.6874 37.0275 337.7284 37.2155 337.7664 37.4085 337.8044 37.5975 337.8424 37.7855 337.8754 37.9795 337.9084 38.1775 337.9364 38.3705 337.9644 38.5645 337.9894 38.7625 338.0074 38.9555 338.0264 39.1545 338.0454 39.3525 338.0604 39.5505 338.0734 39.7535 338.0834 39.9515 338.0934 40.1555 338.0974 40.3595 338.0974 40.5615 338.1014 40.7705 338.0934 41.2705 338.0734 41.7715 338.0404 42.2675 337.9944 42.7585 337.9364 43.2445 337.8664 43.7195 337.7764 44.1905 337.6774 44.6565 337.5634 45.1125 337.4364 45.5635 337.2994 46.0105 337.1424 46.4515 336.9724 46.8825 336.7944 47.3045 336.5994 47.7205 336.3864 48.1325 336.1644 48.5335 335.9294 48.9295 335.6824 49.3165 335.4184 49.6985 335.1404 50.0655 334.8514 50.4325 334.5494 50.7845 334.2374 51.1315 333.9064 51.4735 333.5674 51.8055 333.2114 52.1275 332.8494 52.4395 332.4704 52.7475 332.0774 53.0455 331.6774 53.3325 331.2654 53.6155 330.8414 53.8825 330.4054 54.1495 329.9614 54.4035 329.5034 54.6465 329.0354 54.8845 328.5634 55.1115 328.0764 55.3305 327.5814 55.5395 327.0754 55.7365 326.5554 55.9295 326.0314 56.1135 325.4924 56.2865 324.9484 56.4515 324.3914 56.6045 323.8244 56.7535 323.2484 56.8925 322.6624 57.0205 322.0664 57.1455 321.4624 57.2585 320.8434 57.3625 320.2194 57.4565 319.5824 57.5465 318.9384 57.6265 318.2814 57.6945 317.6164 57.7595 316.9414 57.8095 316.2554 57.8595 315.5604 57.8935 314.8524 57.9235 314.1394 57.9425 313.4114 57.9585 312.6744 57.9585 311.9324 57.9585 311.2044 57.9425 310.4874 57.9235 309.7784 57.8985 309.0784 57.8595 308.3934 57.8145 307.7184 57.7655 307.0524 57.6995 306.4004 57.6305 305.7534 57.5555 305.1244 57.4675 304.5004 57.3775 303.8914 57.2745 303.2904 57.1645 302.7004 57.0415 302.1244 56.9165 301.5574 56.7775 300.9994 56.6345 300.4564 56.4805 299.9184 56.3175 299.3924 56.1495 298.8834 55.9705 298.3774 55.7815 297.8864 55.5835 297.4084 55.3755 296.9364 55.1625 296.4794 54.9385 296.0304 54.7015 295.5944 54.4585 295.1694 54.2105 294.7544 53.9465 294.3534 53.6755 293.9654 53.3975 293.5824 53.1095 293.2134 52.8125 292.8584 52.5055 292.5144 52.1865 292.1794 51.8605 291.8624 51.5285 291.5514 51.1815 291.2574 50.8285 290.9734 50.4625 290.7044 50.0905 290.4454 49.7135 290.1994 49.3215 289.9684 48.9255 289.7464 48.5185 289.5374 48.1015 289.3444 47.6815 289.1644 47.2495 288.9944 46.8085 288.8444 46.3625 288.6974 45.9105 288.5694 45.4455 288.4514 44.9785 288.3474 44.5035 288.2524 44.0175 288.1774 43.5265 288.1064 43.0255 288.0554 42.5205 288.0124 42.0045 287.9794 41.4845 287.9594 40.9585 287.9564 40.4285 287.9564 38.0875 290.8144 38.0875 292.1654 41.7075 295.4484 43.4215 296.8144 45.2165 302.0444 47.5475 308.9604 52.1825 306.7074 49.5495 302.5024 46.9425 299.3144 45.2375 296.2054 42.6345 293.3984 41.3695 292.1364 38.0875 304.7324 38.0875 304.7324 39.8775 304.7364 40.0865 304.7414 40.2795 304.7514 40.4675 304.7644 40.6515 304.7844 40.8295 304.8084 41.0085 304.8364 41.1765 304.8644 41.3455 304.8974 41.5035 304.9354 41.6625 304.9774 41.8155 305.0204 41.9655 305.0684 42.1085 305.1194 42.2515 305.1754 42.3865 305.2334 42.5205 305.2944 42.6495 305.3554 42.7725 305.4264 42.8975 305.4984 43.0155 305.5734 43.1295 305.6494 43.2445 305.7334 43.3525 305.8194 43.4565 305.9044 43.5615 305.9984 43.6605 306.0934 43.7595 306.1974 43.8585 306.3014 43.9525 306.4094 44.0425 306.5234 44.1305 306.6424 44.2155 306.7594 44.2995 306.8864 44.3785 307.0194 44.4635 307.1564 44.5375 307.2974 44.6175 307.4484 44.6905 307.6044 44.7615 307.7654 44.8305 307.9314 44.8995 308.1054 44.9635 308.2854 45.0285 308.4694 45.0885 308.6584 45.1475 308.8574 45.2025 309.0604 45.2515 309.2684 45.3015 309.4864 45.3515 309.7024 45.3955 309.9334 45.4355 310.1654 45.4755 310.4024 45.5145 310.6474 45.5445 310.8974 45.5745 311.1534 45.6035 311.4174 45.6245 311.6864 45.6475 311.9614 45.6625 312.2394 45.6785 312.5284 45.6885 312.8154 45.6975 313.1144 45.7025 313.4164 45.7025 313.6864 45.7025 313.9494 45.6975 314.2094 45.6935 314.4644 45.6835 314.7154 45.6735 314.9614 45.6625 315.2024 45.6475 315.4334 45.6295 315.6654 45.6085 315.8914 45.5835 316.1094 45.5585 316.3264 45.5345 316.5354 45.5045 316.7424 45.4755 316.9414 45.4405 317.1344 45.4055 317.3224 45.3655 317.5074 45.3255 317.6874 45.2875 317.8624 45.2415 318.0324 45.1975 318.1934 45.1475 318.3524 45.1035 318.5044 45.0485 318.6514 44.9985 318.7974 44.9455 318.9304 44.8905 319.0624 44.8305 319.1894 44.7755 319.3124 44.7115 319.4254 44.6525 319.5394 44.5925 319.6434 44.5275 319.7484 44.4635 319.8424 44.3985 319.9364 44.3345 320.0214 44.2655 320.1054 44.2005 320.1864 44.1305 320.2624 44.0625 320.3334 43.9875 320.3994 43.9185 320.4604 43.8485 320.5214 43.7745 320.5784 43.6995 320.6314 43.6205 320.6824 43.5465 320.7304 43.4675 320.7774 43.3825 320.8194 43.2985 320.8574 43.2145 320.8944 43.1295 320.9274 43.0405 320.9614 42.9465 320.9894 42.8525 321.0144 42.7585 321.0374 42.6545 321.0554 42.5505 321.0744 42.4455 321.0884 42.3315 321.0984 42.2225 321.1084 42.1035 321.1124 41.9845 321.1124 41.8805 321.1084 41.7415 321.0934 41.6225 321.0654 41.5085 321.0324 41.3945 320.9844 41.2805 320.9184 41.1615 320.8434 41.0375 320.7444 40.9035 320.6314 40.7705 320.4934 40.6315 320.3374 40.4875 320.1584 40.3395 319.9554 40.1905 319.7274 40.0365 319.4784 39.8825 319.2084 39.7295 318.9154 39.5805 318.5944 39.4265 318.2534 39.2775 317.8954 39.1295 317.5074 38.9855 317.1014 38.8405 316.6714 38.6975 316.2184 38.5595 315.7454 38.4255 315.2484 38.2915 314.7344 38.1615 314.1964 38.0335 313.6384 37.9095 313.0574 37.7905 312.4524 37.6705 311.8284 37.5575 311.5694 37.5125 311.3184 37.4685 311.0964 37.4285 310.9594 37.4035 310.8464 37.3845 310.7324 37.3645 310.6184 37.3445 310.5064 37.3245 310.3974 37.3055 310.2884 37.2845 310.1844 37.2705 310.0194 37.2405 309.7834 37.1965 309.6844 37.1805 309.5904 37.1655 309.4994 37.1465 309.4044 37.1305 309.3194 37.1165 309.2304 37.1015 309.1444 37.0865 309.0644 37.0715 308.9794 37.0575 308.8294 37.0325 308.7484 37.0175 308.6724 37.0025 308.5924 36.9865 307.9494 36.8645 307.3164 36.7345 306.6974 36.6065 306.0934 36.4715 305.4934 36.3385 304.9114 36.1995 304.3354 36.0605 303.7724 35.9165 303.2254 35.7675 302.6814 35.6185 302.1584 35.4655 301.6374 35.3115 301.1324 35.1535 300.6404 34.9895 300.1544 34.8265 299.6864 34.6575 299.2234 34.4885 298.7744 34.3155 298.3354 34.1375 297.9104 33.9535 297.4944 33.7745 297.0884 33.5865 296.6954 33.3935 296.3134 33.2005 295.9394 33.0065 295.5804 32.8025 295.2314 32.5995 294.8954 32.3865 294.5644 32.1785 294.2484 31.9605 293.9464 31.7375 293.6534 31.5145 293.3694 31.2855 293.0954 31.0485 292.8264 30.8105 292.5714 30.5575 292.3204 30.3045 292.0804 30.0465 291.8484 29.7785 291.6264 29.5065 291.4094 29.2285 291.2064 28.9465 291.0074 28.6585 290.8184 28.3615 290.6434 28.0585"></polygon>
            <path d="M290.1383,66.0045 C290.0493,66.0045 289.9823,66.0235 289.9253,66.0585 L289.7453,65.4435 C289.9213,65.1315 290.1383,64.8975 290.3933,64.7445 C290.6533,64.5915 290.9453,64.5165 291.2813,64.5165 C291.7013,64.5165 292.0423,64.6215 292.3113,64.8295 C292.5763,65.0325 292.7463,65.2945 292.8223,65.6085 C292.9013,65.9245 292.9343,66.4495 292.9343,67.1885 L292.9343,73.0935 L290.4933,73.0935 L290.4933,67.2585 C290.4933,66.6785 290.4733,66.3265 290.4403,66.1975 C290.4023,66.0685 290.3043,66.0045 290.1383,66.0045" id="Fill-42" fill="#FFFFFE" mask="url(#mask-2)"></path>
            <path d="M289.812,66.2269 C289.764,66.3709 289.746,66.7629 289.746,67.3969 L289.746,73.0939 L287.298,73.0939 L287.298,64.6649 L289.784,64.6649 L289.746,65.4439 L289.926,66.0599 C289.869,66.0979 289.83,66.1539 289.812,66.2269" id="Fill-43" fill="#FFFFFE" mask="url(#mask-2)"></path>
            <path d="M283.3065,71.7502 C283.4905,71.7502 283.5955,71.6902 283.6275,71.5612 C283.6665,71.4322 283.6795,71.0262 283.6795,70.3372 L283.6795,64.6662 L286.1275,64.6662 L286.1275,73.0942 L283.6415,73.0942 L283.6795,72.3942 L283.3065,71.7502 Z" id="Fill-44" fill="#FFFFFE" mask="url(#mask-2)"></path>
            <path d="M283.6799,72.3943 C283.5099,72.6773 283.3019,72.8903 283.0559,73.0293 C282.8059,73.1723 282.5219,73.2423 282.2009,73.2423 C281.8329,73.2423 281.5249,73.1783 281.2839,73.0433 C281.0439,72.9053 280.8679,72.7273 280.7509,72.5033 C280.6369,72.2763 280.5659,72.0423 280.5379,71.7993 C280.5049,71.5573 280.4899,71.0713 280.4899,70.3463 L280.4899,64.6653 L282.9379,64.6653 L282.9379,70.4013 C282.9379,71.0573 282.9559,71.4413 282.9949,71.5663 C283.0319,71.6913 283.1359,71.7503 283.3069,71.7503 L283.6799,72.3943 Z" id="Fill-45" fill="#FFFFFE" mask="url(#mask-2)"></path>
            <path d="M276.6352,66.0045 C276.4882,66.0045 276.3942,66.0635 276.3462,66.1715 C276.2952,66.2875 276.2722,66.5595 276.2722,66.9905 L276.2722,70.7935 C276.2722,71.1895 276.2952,71.4525 276.3462,71.5715 C276.3942,71.6915 276.4882,71.7505 276.6252,71.7505 C276.7722,71.7505 276.8712,71.6955 276.9142,71.5875 C276.9622,71.4775 276.9852,71.2385 276.9852,70.8775 L276.9852,66.9905 C276.9852,66.5595 276.9622,66.2875 276.9192,66.1715 C276.8712,66.0635 276.7772,66.0045 276.6352,66.0045 M276.5492,64.5165 C277.0982,64.5165 277.5712,64.6015 277.9632,64.7745 C278.3552,64.9435 278.6622,65.1665 278.8752,65.4435 C279.0872,65.7165 279.2342,65.9995 279.3142,66.2925 C279.3902,66.5845 279.4312,67.0305 279.4312,67.6245 L279.4312,69.6875 C279.4312,70.4455 279.3942,71.0015 279.3192,71.3535 C279.2482,71.7105 279.0912,72.0375 278.8562,72.3445 C278.6142,72.6525 278.3122,72.8805 277.9392,73.0245 C277.5662,73.1725 277.1352,73.2425 276.6532,73.2425 C276.1102,73.2425 275.6572,73.1825 275.2792,73.0595 C274.9012,72.9295 274.6122,72.7415 274.4052,72.4935 C274.1972,72.2415 274.0522,71.9335 273.9612,71.5765 C273.8722,71.2195 273.8292,70.6845 273.8292,69.9695 L273.8292,67.8085 C273.8292,67.0255 273.9092,66.4155 274.0702,65.9735 C274.2302,65.5375 274.5242,65.1805 274.9402,64.9195 C275.3592,64.6505 275.8982,64.5165 276.5492,64.5165" id="Fill-46" fill="#FFFFFE" mask="url(#mask-2)"></path>
            <path d="M272.761,68.9787 L272.761,69.3747 C272.761,70.4417 272.69,71.1947 272.548,71.6357 C272.406,72.0827 272.09,72.4747 271.599,72.8067 C271.107,73.1387 270.503,73.3067 269.79,73.3067 C269.038,73.3067 268.424,73.1637 267.942,72.8807 C267.46,72.5977 267.134,72.2057 266.978,71.7057 C266.822,71.2007 266.742,70.4457 266.742,69.4387 L266.742,66.4407 C266.742,65.6977 266.77,65.1417 266.818,64.7747 C266.865,64.4027 267.006,64.0457 267.247,63.7037 C267.488,63.3617 267.823,63.0887 268.249,62.8907 C268.674,62.6977 269.16,62.5987 269.714,62.5987 C270.465,62.5987 271.084,62.7517 271.571,63.0537 C272.058,63.3617 272.378,63.7377 272.535,64.1947 C272.685,64.6507 272.761,65.3597 272.761,66.3167 L272.761,67.2927 L270.219,67.2927 L270.219,65.5037 C270.219,64.9877 270.186,64.6607 270.134,64.5317 C270.082,64.4027 269.96,64.3387 269.775,64.3387 C269.562,64.3387 269.43,64.4177 269.373,64.5717 C269.317,64.7297 269.289,65.0677 269.289,65.5867 L269.289,70.3617 C269.289,70.8627 269.317,71.1847 269.373,71.3377 C269.43,71.4927 269.558,71.5667 269.756,71.5667 C269.945,71.5667 270.073,71.4927 270.129,71.3377 C270.186,71.1847 270.219,70.8277 270.219,70.2677 L270.219,68.9787 L272.761,68.9787 Z" id="Fill-47" fill="#FFFFFE" mask="url(#mask-2)"></path>
            <path d="M267.8001,8.6401 L261.4131,13.3151 L262.6741,10.6241 L265.3341,8.7391 L269.5111,6.8261 L273.8341,7.9861 L277.9061,11.0691 L283.3671,13.1951 L286.8071,14.2921 L286.8071,23.2251 L283.5281,21.8221 L281.3171,17.3061 L270.1721,9.1001 L275.5911,15.4271 L279.6631,18.2231 L282.4371,24.0341 L286.8071,25.8881 L286.8071,30.7611 L282.8061,26.5081 L286.8071,33.3281 L286.8071,57.1301 L272.1891,57.1301 L272.1891,22.8681 L260.2171,57.1451 L245.9811,57.1451 L236.3821,29.4421 L239.6091,26.5171 L242.2361,25.3171 L245.6131,22.5061 L249.5821,21.9861 L253.0981,31.0931 L259.3991,17.6221 L260.2691,16.8391 L264.6391,13.1671 L267.8001,8.6401 Z M264.6491,19.5961 L267.9931,13.7801 L260.1091,23.6171 L259.3101,27.8111 L254.2881,34.3501 L248.6181,38.6031 L253.5171,36.7451 L258.0061,31.9751 L260.8361,29.2091 L261.6721,24.4791 L264.6491,19.5961 Z" id="Fill-48" fill="#00A3DA" mask="url(#mask-2)"></path>
            <path d="M263.3593,65.9347 C263.4013,66.1377 263.4203,66.4507 263.4203,66.8717 L263.4203,67.3577 L261.2563,67.3577 L261.2563,66.9017 C261.2563,66.5147 261.2373,66.2667 261.1903,66.1627 C261.1523,66.0597 261.0443,66.0037 260.8783,66.0037 C260.7373,66.0037 260.6333,66.0527 260.5673,66.1477 C260.5013,66.2417 260.4633,66.3857 260.4633,66.5787 C260.4633,66.8377 260.4813,67.0247 260.5153,67.1447 C260.5473,67.2687 260.6513,67.3977 260.8273,67.5417 C260.9973,67.6897 261.3463,67.8977 261.8803,68.1707 C262.5893,68.5317 263.0573,68.8787 263.2783,69.2017 C263.5013,69.5247 263.6093,69.9907 263.6093,70.6047 C263.6093,71.2897 263.5243,71.8047 263.3543,72.1567 C263.1893,72.5037 262.9003,72.7707 262.5043,72.9597 C262.1073,73.1487 261.6303,73.2427 261.0683,73.2427 C260.4483,73.2427 259.9153,73.1437 259.4753,72.9397 C259.0313,72.7377 258.7293,72.4597 258.5633,72.1117 C258.3983,71.7697 258.3183,71.2397 258.3183,70.5397 L258.3183,70.1337 L260.4813,70.1337 L260.4813,70.6637 C260.4813,71.1197 260.5093,71.4127 260.5623,71.5467 C260.6193,71.6857 260.7273,71.7497 260.8873,71.7497 C261.0573,71.7497 261.1813,71.7047 261.2523,71.6167 C261.3183,71.5267 261.3513,71.3337 261.3513,71.0407 C261.3513,70.6387 261.3093,70.3857 261.2193,70.2877 C261.1293,70.1837 260.6513,69.8857 259.7963,69.3857 C259.0783,68.9637 258.6443,68.5767 258.4833,68.2307 C258.3273,67.8877 258.2523,67.4767 258.2523,67.0007 C258.2523,66.3307 258.3323,65.8357 258.5023,65.5137 C258.6723,65.1967 258.9613,64.9487 259.3673,64.7747 C259.7733,64.6017 260.2413,64.5177 260.7793,64.5177 C261.3093,64.5177 261.7633,64.5867 262.1353,64.7297 C262.5083,64.8687 262.7963,65.0567 262.9953,65.2907 C263.1933,65.5237 263.3163,65.7367 263.3593,65.9347" id="Fill-49" fill="#FFFFFE" mask="url(#mask-2)"></path>
            <polygon id="Fill-50" fill="#054A8A" mask="url(#mask-2)" points="261.4127 13.315 259.4007 17.623 253.0977 31.093"></polygon>
            <path d="M254.4342,64.5171 C255.1192,64.5171 255.6822,64.6511 256.1302,64.9231 C256.5742,65.1961 256.8862,65.5581 257.0662,66.0091 C257.2462,66.4601 257.3402,67.0951 257.3402,67.9131 L257.3402,69.0291 L254.1742,69.0291 L254.1742,70.8531 C254.1742,71.2351 254.1982,71.4771 254.2502,71.5861 C254.3072,71.6951 254.4062,71.7501 254.5522,71.7501 C254.7412,71.7501 254.8642,71.6801 254.9262,71.5321 C254.9872,71.3881 255.0202,71.1051 255.0202,70.6851 L255.0202,69.5741 L257.3402,69.5741 L257.3402,70.1991 C257.3402,70.7181 257.3072,71.1151 257.2412,71.3981 C257.1792,71.6761 257.0332,71.9731 256.8072,72.2911 C256.5742,72.6081 256.2812,72.8461 255.9312,73.0041 C255.5782,73.1621 255.1342,73.2421 254.5992,73.2421 C254.0852,73.2421 253.6312,73.1621 253.2342,73.0091 C252.8432,72.8511 252.5352,72.6381 252.3132,72.3651 C252.0902,72.0921 251.9402,71.7891 251.8542,71.4631 C251.7702,71.1351 251.7322,70.6601 251.7322,70.0291 L251.7322,67.5761 C251.7322,66.8381 251.8262,66.2581 252.0112,65.8311 C252.2042,65.4091 252.5162,65.0831 252.9452,64.8541 C253.3762,64.6261 253.8722,64.5171 254.4342,64.5171 L254.4342,64.5171 Z M254.8882,67.6551 L254.8882,67.0401 C254.8882,66.6041 254.8642,66.3271 254.8222,66.1971 C254.7752,66.0691 254.6852,66.0051 254.5482,66.0051 C254.3782,66.0051 254.2742,66.0591 254.2362,66.1681 C254.1932,66.2771 254.1742,66.5691 254.1742,67.0401 L254.1742,67.6551 L254.8882,67.6551 Z" id="Fill-51" fill="#FFFFFE" mask="url(#mask-2)"></path>
            <polygon id="Fill-52" fill="#054A8A" mask="url(#mask-2)" points="248.9915 20.4491 253.0975 31.0921 249.5825 21.9861"></polygon>
            <path d="M250.5552,66.014 C250.7072,66.446 250.7782,67.055 250.7782,67.849 L248.4722,67.849 L248.4722,66.877 C248.4722,66.54 248.4492,66.311 248.3962,66.188 C248.3452,66.068 248.2452,66.004 248.1042,66.004 C247.9672,66.004 247.8682,66.059 247.8202,66.168 C247.7722,66.272 247.7492,66.51 247.7492,66.877 L247.7492,70.853 C247.7492,71.149 247.7872,71.373 247.8572,71.527 C247.9282,71.676 248.0382,71.75 248.1782,71.75 C248.3452,71.75 248.4572,71.676 248.5152,71.517 C248.5712,71.359 248.5992,71.062 248.5992,70.63 L248.5992,69.623 L250.7782,69.623 C250.7722,70.298 250.7532,70.803 250.7072,71.14 C250.6692,71.477 250.5322,71.819 250.3052,72.176 C250.0782,72.528 249.7812,72.795 249.4122,72.974 C249.0432,73.152 248.5892,73.242 248.0512,73.242 C247.3622,73.242 246.8132,73.118 246.4122,72.871 C246.0112,72.628 245.7222,72.281 245.5522,71.829 C245.3872,71.383 245.3062,70.754 245.3062,69.93 L245.3062,67.536 C245.3062,66.823 245.3722,66.282 245.5092,65.915 C245.6462,65.554 245.9392,65.231 246.3892,64.943 C246.8322,64.661 247.3812,64.517 248.0182,64.517 C248.6562,64.517 249.2002,64.655 249.6522,64.938 C250.1072,65.226 250.4042,65.583 250.5552,66.014" id="Fill-53" fill="#FFFFFE" mask="url(#mask-2)"></path>
            <polygon id="Fill-54" fill="#00A3DA" mask="url(#mask-2)" points="248.9682 20.3844 244.9342 21.5644 241.9572 24.3114 239.2682 25.0544 237.0472 27.0134 235.7582 27.6474 235.3332 26.4184 239.1502 23.1114 244.8062 19.4574 248.4632 19.0704"></polygon>
            <polygon id="Fill-55" fill="#FFFFFE" mask="url(#mask-2)" points="241.687 73.094 244.201 73.094 244.201 64.666 241.687 64.666"></polygon>
            <polygon id="Fill-56" fill="#FFFFFE" mask="url(#mask-2)" points="241.687 64.154 244.201 64.154 244.201 62.817 241.687 62.817"></polygon>
            <path d="M241.0259,64.6656 L239.8819,73.0936 L236.6939,73.0936 L235.4649,64.6656 L237.6489,64.6656 L238.3329,70.8126 C238.3849,70.3616 238.4749,69.2606 238.5969,67.5106 C238.6739,66.5346 238.7529,65.5876 238.8439,64.6656 L241.0259,64.6656 Z" id="Fill-57" fill="#FFFFFE" mask="url(#mask-2)"></path>
            <path d="M234.9123,64.5171 L234.9123,67.4811 C234.4643,67.4811 234.1383,67.5411 233.9253,67.6701 C233.7173,67.7981 233.5853,67.9721 233.5373,68.2011 C233.4913,68.4281 233.4663,68.9491 233.4663,69.7671 L233.4663,73.0941 L231.0243,73.0941 L231.0243,64.6651 L233.4663,64.6651 L233.3723,65.7711 C233.7273,64.9841 234.2413,64.5621 234.9123,64.5171" id="Fill-58" fill="#FFFFFE" mask="url(#mask-2)"></path>
            <path d="M229.9281,69.0282 L226.7611,69.0282 L226.7611,70.8522 C226.7611,71.2342 226.7911,71.4772 226.8421,71.5862 C226.8951,71.6962 226.9991,71.7502 227.1441,71.7502 C227.3291,71.7502 227.4561,71.6802 227.5181,71.5312 C227.5801,71.3872 227.6131,71.1062 227.6131,70.6842 L227.6131,69.5732 L229.9281,69.5732 L229.9281,70.1982 C229.9281,70.7192 229.8941,71.1152 229.8341,71.3982 C229.7721,71.6752 229.6261,71.9722 229.3941,72.2902 C229.1621,72.6072 228.8741,72.8452 228.5201,73.0042 C228.1701,73.1632 227.7261,73.2412 227.1931,73.2412 C226.6781,73.2412 226.2241,73.1632 225.8271,73.0102 C225.4291,72.8502 225.1231,72.6372 224.9051,72.3642 C224.6831,72.0922 224.5331,71.7902 224.4471,71.4622 C224.3631,71.1352 224.3201,70.6592 224.3201,70.0302 L224.3201,67.5752 C224.3201,66.8372 224.4141,66.2572 224.6031,65.8302 C224.7921,65.4092 225.1051,65.0822 225.5391,64.8532 C225.9691,64.6262 226.4651,64.5162 227.0221,64.5162 C227.7071,64.5162 228.2741,64.6502 228.7221,64.9232 C229.1671,65.1962 229.4791,65.5582 229.6591,66.0092 C229.8391,66.4602 229.9281,67.0942 229.9281,67.9132 L229.9281,69.0282 Z M227.1401,66.0042 C226.9701,66.0042 226.8661,66.0592 226.8241,66.1672 C226.7861,66.2772 226.7611,66.5702 226.7611,67.0402 L226.7611,67.6552 L227.4761,67.6552 L227.4761,67.0402 C227.4761,66.6032 227.4561,66.3272 227.4101,66.1972 C227.3671,66.0682 227.2771,66.0042 227.1401,66.0042 L227.1401,66.0042 Z" id="Fill-59" fill="#FFFFFE" mask="url(#mask-2)"></path>
            <polygon id="Fill-60" fill="#00A3DA" mask="url(#mask-2)" points="226.0867 31.5588 234.1277 27.4588 234.1277 28.4458 230.0267 30.3248 228.1137 31.6588 225.4777 32.5008 223.8097 33.3438 228.6997 32.1248 231.8797 30.8848 234.1277 30.4878 234.1277 57.1308 219.3027 57.1308 219.3027 33.4968 221.0837 32.9328"></polygon>
            <path d="M222.9264,68.2749 C223.2234,68.7259 223.3704,69.4549 223.3704,70.4609 C223.3704,71.1949 223.2854,71.7349 223.1244,72.0819 C222.9594,72.4289 222.6424,72.7219 222.1794,72.9549 C221.7074,73.1879 221.1684,73.3059 220.5454,73.3059 C219.8634,73.3059 219.2794,73.1729 218.8014,72.8999 C218.3144,72.6269 217.9984,72.2849 217.8514,71.8699 C217.7064,71.4469 217.6304,70.8529 217.6304,70.0789 L217.6304,69.4099 L219.9924,69.4099 L219.9924,70.6589 C219.9924,71.0459 220.0254,71.2939 220.0914,71.4029 C220.1634,71.5119 220.2804,71.5669 220.4454,71.5669 C220.6154,71.5669 220.7434,71.4969 220.8234,71.3579 C220.9084,71.2189 220.9524,71.0109 220.9524,70.7329 C220.9524,70.1339 220.8704,69.7379 220.7154,69.5489 C220.5534,69.3599 220.1524,69.0529 219.5244,68.6169 C218.8864,68.1749 218.4704,67.8579 218.2624,67.6549 C218.0594,67.4569 217.8844,67.1849 217.7524,66.8319 C217.6154,66.4799 217.5494,66.0339 217.5494,65.4839 C217.5494,64.7009 217.6434,64.1249 217.8384,63.7579 C218.0264,63.3969 218.3384,63.1089 218.7644,62.9059 C219.1934,62.7029 219.7084,62.5989 220.3134,62.5989 C220.9754,62.5989 221.5414,62.7129 222.0044,62.9349 C222.4724,63.1579 222.7794,63.4409 222.9314,63.7839 C223.0814,64.1249 223.1574,64.7009 223.1574,65.5179 L223.1574,65.9249 L220.7904,65.9249 L220.7904,65.1609 C220.7904,64.8089 220.7624,64.5809 220.7004,64.4819 C220.6444,64.3829 220.5404,64.3379 220.3984,64.3379 C220.2464,64.3379 220.1294,64.4029 220.0484,64.5359 C219.9734,64.6659 219.9354,64.8639 219.9354,65.1319 C219.9354,65.4729 219.9784,65.7319 220.0684,65.9049 C220.1474,66.0779 220.3934,66.2869 220.7854,66.5339 C221.9204,67.2389 222.6334,67.8189 222.9264,68.2749" id="Fill-61" fill="#FFFFFE" mask="url(#mask-2)"></path>
            <polygon id="Fill-62" fill="#00A3DA" mask="url(#mask-2)" points="217.9888 43.8983 217.9888 57.0913 172.0898 57.0913 172.0898 47.3683 178.6378 51.3293 182.9928 43.4023 184.5198 43.6653 186.3818 43.4663 186.3818 43.8983"></polygon>
            <polygon id="Fill-63" fill="#00A3DA" mask="url(#mask-2)" points="215.8203 34.6028 215.8203 38.2918 209.4513 38.2918 210.4203 37.9548 213.9023 35.2128"></polygon>
            <polygon id="Fill-64" fill="#FFFFFE" mask="url(#mask-2)" points="211.814 73.094 214.332 73.094 214.332 62.817 211.814 62.817"></polygon>
            <path d="M207.5381,71.5618 C207.5951,71.6908 207.7041,71.7508 207.8641,71.7508 C208.0151,71.7508 208.1141,71.7008 208.1621,71.6018 C208.2091,71.5018 208.2331,71.2398 208.2331,70.8178 L208.2331,69.0828 C207.8401,69.3848 207.6141,69.6388 207.5521,69.8418 C207.4901,70.0448 207.4571,70.3378 207.4571,70.7188 C207.4571,71.1508 207.4871,71.4328 207.5381,71.5618 L207.5381,71.5618 Z M208.2991,72.3398 C208.1521,72.6428 207.9591,72.8708 207.7231,73.0198 C207.4871,73.1678 207.2081,73.2418 206.8761,73.2418 C206.4521,73.2418 206.0541,73.1188 205.7001,72.8658 C205.3461,72.6138 205.1661,72.0618 205.1661,71.2148 L205.1661,70.5208 C205.1661,69.8918 205.2611,69.4608 205.4501,69.2318 C205.6391,69.0038 206.1061,68.7358 206.8631,68.4338 C207.6601,68.1018 208.0911,67.8778 208.1471,67.7638 C208.2041,67.6508 208.2331,67.4178 208.2331,67.0708 C208.2331,66.6288 208.2001,66.3418 208.1371,66.2068 C208.0771,66.0738 207.9721,66.0048 207.8271,66.0048 C207.6601,66.0048 207.5561,66.0638 207.5201,66.1718 C207.4761,66.2868 207.4571,66.5798 207.4571,67.0498 L207.4571,67.9278 L205.1661,67.9278 L205.1661,67.3628 C205.1661,66.7128 205.2371,66.2118 205.3791,65.8598 C205.5261,65.5038 205.8131,65.1908 206.2441,64.9188 C206.6731,64.6508 207.2361,64.5168 207.9261,64.5168 C208.7531,64.5168 209.3711,64.6708 209.7911,64.9738 C210.2121,65.2808 210.4671,65.6578 210.5521,66.1028 C210.6331,66.5548 210.6751,67.4718 210.6751,68.8648 L210.6751,73.0938 L208.2991,73.0938 L208.2991,72.3398 Z" id="Fill-65" fill="#FFFFFE" mask="url(#mask-2)"></path>
            <path d="M204.2496,67.8486 L201.9486,67.8486 L201.9486,66.8766 C201.9486,66.5396 201.9206,66.3106 201.8686,66.1876 C201.8166,66.0686 201.7176,66.0036 201.5756,66.0036 C201.4386,66.0036 201.3386,66.0576 201.2916,66.1686 C201.2446,66.2726 201.2216,66.5106 201.2216,66.8766 L201.2216,70.8536 C201.2216,71.1506 201.2586,71.3726 201.3296,71.5266 C201.4006,71.6766 201.5096,71.7506 201.6506,71.7506 C201.8166,71.7506 201.9306,71.6766 201.9866,71.5166 C202.0436,71.3586 202.0726,71.0606 202.0726,70.6296 L202.0726,69.6226 L204.2496,69.6226 C204.2446,70.2976 204.2266,70.8036 204.1786,71.1406 C204.1406,71.4766 204.0046,71.8186 203.7776,72.1766 C203.5496,72.5286 203.2526,72.7966 202.8846,72.9746 C202.5166,73.1536 202.0626,73.2426 201.5236,73.2426 C200.8336,73.2426 200.2856,73.1186 199.8846,72.8706 C199.4826,72.6276 199.1946,72.2806 199.0246,71.8296 C198.8596,71.3836 198.7786,70.7536 198.7786,69.9306 L198.7786,67.5366 C198.7786,66.8216 198.8446,66.2826 198.9826,65.9146 C199.1186,65.5526 199.4116,65.2306 199.8606,64.9426 C200.3046,64.6606 200.8526,64.5176 201.4906,64.5176 C202.1276,64.5176 202.6716,64.6556 203.1256,64.9376 C203.5786,65.2256 203.8766,65.5836 204.0286,66.0136 C204.1786,66.4456 204.2496,67.0556 204.2496,67.8486" id="Fill-66" fill="#FFFFFE" mask="url(#mask-2)"></path>
            <polygon id="Fill-67" fill="#FFFFFE" mask="url(#mask-2)" points="195.159 73.094 197.673 73.094 197.673 64.666 195.159 64.666"></polygon>
            <polygon id="Fill-68" fill="#FFFFFE" mask="url(#mask-2)" points="195.159 64.154 197.673 64.154 197.673 62.817 195.159 62.817"></polygon>
            <path d="M193.9831,62.8162 L193.9831,73.0942 L191.5401,73.0942 L191.5401,72.4832 L191.1481,71.7502 C191.3041,71.7502 191.4081,71.6902 191.4661,71.5722 C191.5121,71.4532 191.5401,71.1552 191.5401,70.6842 L191.5401,66.7872 C191.5401,66.4802 191.5171,66.2722 191.4661,66.1682 C191.4131,66.0582 191.3141,66.0042 191.1671,66.0042 L191.5401,65.2012 L191.5401,62.8162 L193.9831,62.8162 Z" id="Fill-69" fill="#FFFFFE" mask="url(#mask-2)"></path>
            <path d="M190.8556,64.6852 C191.1066,64.7992 191.3326,64.9732 191.5406,65.2012 L191.1676,66.0042 C191.0206,66.0042 190.9216,66.0532 190.8736,66.1482 C190.8226,66.2422 190.7936,66.4542 190.7936,66.7872 L190.7936,70.9122 C190.7936,71.2542 190.8226,71.4822 190.8706,71.5922 C190.9176,71.7002 191.0116,71.7502 191.1486,71.7502 L191.5406,72.4842 C191.3046,72.7372 191.0586,72.9252 190.8026,73.0542 C190.5436,73.1772 190.2746,73.2422 189.9906,73.2422 C189.6126,73.2422 189.2826,73.1382 189.0036,72.9302 C188.7246,72.7212 188.5506,72.4792 188.4706,72.2012 C188.3946,71.9292 188.3506,71.4772 188.3506,70.8572 L188.3506,66.9122 C188.3506,66.2662 188.3946,65.8112 188.4706,65.5382 C188.5506,65.2652 188.7296,65.0282 189.0126,64.8242 C189.2966,64.6172 189.6326,64.5172 190.0186,64.5172 C190.3266,64.5172 190.6006,64.5712 190.8556,64.6852" id="Fill-70" fill="#FFFFFE" mask="url(#mask-2)"></path>
            <path d="M187.3309,69.0282 L184.1649,69.0282 L184.1649,70.8522 C184.1649,71.2342 184.1939,71.4772 184.2459,71.5862 C184.2979,71.6962 184.4019,71.7502 184.5479,71.7502 C184.7319,71.7502 184.8599,71.6802 184.9209,71.5312 C184.9829,71.3872 185.0159,71.1062 185.0159,70.6842 L185.0159,69.5732 L187.3309,69.5732 L187.3309,70.1982 C187.3309,70.7192 187.2979,71.1152 187.2369,71.3982 C187.1759,71.6752 187.0289,71.9722 186.7979,72.2902 C186.5649,72.6072 186.2779,72.8452 185.9229,73.0042 C185.5729,73.1632 185.1289,73.2412 184.5959,73.2412 C184.0809,73.2412 183.6269,73.1632 183.2299,73.0102 C182.8329,72.8502 182.5259,72.6372 182.3089,72.3642 C182.0869,72.0922 181.9359,71.7902 181.8499,71.4622 C181.7659,71.1352 181.7229,70.6592 181.7229,70.0302 L181.7229,67.5752 C181.7229,66.8372 181.8169,66.2572 182.0069,65.8302 C182.1959,65.4092 182.5079,65.0822 182.9419,64.8532 C183.3719,64.6262 183.8679,64.5162 184.4259,64.5162 C185.1099,64.5162 185.6769,64.6502 186.1259,64.9232 C186.5699,65.1962 186.8829,65.5582 187.0619,66.0092 C187.2419,66.4602 187.3309,67.0942 187.3309,67.9132 L187.3309,69.0282 Z M184.5439,66.0042 C184.3729,66.0042 184.2689,66.0592 184.2269,66.1672 C184.1889,66.2772 184.1649,66.5702 184.1649,67.0402 L184.1649,67.6552 L184.8789,67.6552 L184.8789,67.0402 C184.8789,66.6032 184.8599,66.3272 184.8139,66.1972 C184.7709,66.0682 184.6799,66.0042 184.5439,66.0042 L184.5439,66.0042 Z" id="Fill-71" fill="#FFFFFE" mask="url(#mask-2)"></path>
            <path d="M180.551,62.8162 L180.551,73.0942 L178.321,73.0942 L178.321,66.1522 L177.433,73.0942 L175.855,73.0942 L174.915,66.3122 L174.915,73.0942 L172.69,73.0942 L172.69,62.8162 L175.987,62.8162 C176.086,63.4322 176.186,64.1602 176.294,64.9972 L176.649,67.6142 L177.225,62.8162 L180.551,62.8162 Z" id="Fill-72" fill="#FFFFFE" mask="url(#mask-2)"></path>
            <path d="M169.7037,64.6656 L168.9997,70.7626 C168.8907,71.7256 168.8007,72.3846 168.7257,72.7376 C168.6507,73.0886 168.5267,73.3766 168.3517,73.6036 C168.1777,73.8376 167.9367,74.0006 167.6297,74.1106 C167.3227,74.2186 166.8307,74.2736 166.1507,74.2736 L164.6667,74.2736 L164.6667,72.9246 C165.0497,72.9246 165.2907,72.9046 165.3997,72.8656 C165.5087,72.8256 165.5647,72.7376 165.5647,72.5926 C165.5647,72.5276 165.5127,72.2316 165.4137,71.7156 L164.0757,64.6656 L166.2977,64.6656 L167.0957,70.3476 L167.4827,64.6656 L169.7037,64.6656 Z" id="Fill-73" fill="#FFFFFE" mask="url(#mask-2)"></path>
            <path d="M163.5617,67.8486 L161.2557,67.8486 L161.2557,66.8766 C161.2557,66.5396 161.2277,66.3106 161.1807,66.1876 C161.1237,66.0686 161.0297,66.0036 160.8877,66.0036 C160.7457,66.0036 160.6507,66.0576 160.6037,66.1686 C160.5567,66.2726 160.5287,66.5106 160.5287,66.8766 L160.5287,70.8536 C160.5287,71.1506 160.5667,71.3726 160.6367,71.5266 C160.7117,71.6766 160.8167,71.7506 160.9587,71.7506 C161.1237,71.7506 161.2377,71.6766 161.2937,71.5166 C161.3547,71.3586 161.3837,71.0606 161.3837,70.6296 L161.3837,69.6226 L163.5617,69.6226 C163.5567,70.2976 163.5337,70.8036 163.4907,71.1406 C163.4477,71.4766 163.3157,71.8186 163.0847,72.1766 C162.8577,72.5286 162.5597,72.7966 162.1957,72.9746 C161.8277,73.1536 161.3737,73.2426 160.8357,73.2426 C160.1457,73.2426 159.5977,73.1186 159.1967,72.8706 C158.7897,72.6276 158.5067,72.2806 158.3367,71.8296 C158.1717,71.3836 158.0857,70.7536 158.0857,69.9306 L158.0857,67.5366 C158.0857,66.8216 158.1567,66.2826 158.2937,65.9146 C158.4307,65.5526 158.7197,65.2306 159.1677,64.9426 C159.6167,64.6606 160.1597,64.5176 160.8027,64.5176 C161.4397,64.5176 161.9837,64.6556 162.4377,64.9376 C162.8867,65.2256 163.1887,65.5836 163.3397,66.0136 C163.4857,66.4456 163.5617,67.0556 163.5617,67.8486" id="Fill-74" fill="#FFFFFE" mask="url(#mask-2)"></path>
            <path d="M158.5159,23.3094 C160.3069,24.6874 163.7689,26.1794 163.3539,28.5544 C163.1749,29.5604 162.5269,30.2744 160.5899,30.4134 C160.5899,29.6544 160.4719,29.1744 160.4719,28.3954 C160.9869,28.6144 161.2369,28.1824 160.9719,28.0244 C160.1119,27.4184 159.0499,26.5524 158.3549,25.8974 C157.5279,25.1234 155.7239,23.8494 155.2789,22.8284 C154.8259,22.1144 154.5759,21.1324 154.5759,20.1414 C154.5759,18.0344 155.7099,15.8674 158.5009,16.0604 C159.4659,16.1554 159.9949,16.7604 161.3889,17.0084 C164.6719,18.2034 162.1109,18.9764 161.5349,18.7784 C160.1649,18.9314 159.7769,19.4774 158.9499,19.1704 C158.7759,19.1054 158.5819,19.0064 158.3549,18.8534 C156.4179,18.0294 155.7809,21.2124 158.5159,23.3094" id="Fill-75" fill="#054A8A" mask="url(#mask-2)"></path>
            <path d="M160.571,37.6964 C160.571,37.7414 160.515,36.1594 160.471,35.3664 C161,35.2424 160.736,34.6674 160.453,34.6824 C160.16,34.6824 157.808,33.9384 156.932,33.0364 C155.558,31.3154 156.328,29.3624 158.501,28.7874 C158.577,29.3924 158.634,30.1654 158.634,30.9734 C157.925,31.4104 158.501,31.6434 158.724,31.7174 C159.404,32.4014 162.304,32.5254 162.716,34.3604 C163.25,36.6404 160.931,37.5714 160.571,37.6964" id="Fill-76" fill="#054A8A" mask="url(#mask-2)"></path>
            <path d="M160.8403,50.6705 C158.5913,50.3285 157.1123,49.5505 156.5363,48.4205 C155.8273,46.7285 156.9333,44.6625 158.3403,44.4145 L158.3403,47.1015 C158.0433,47.2405 158.0013,47.8305 158.4873,48.1375 C159.8903,49.9075 161.9033,49.9565 163.2783,50.4815 C162.8523,50.8385 161.3743,50.7295 160.8403,50.6705" id="Fill-77" fill="#054A8A" mask="url(#mask-2)"></path>
            <path d="M158.993,15.6749 C159.848,12.1649 157.836,10.7069 158.666,10.8459 C160.779,13.1419 159.333,9.2649 161.832,8.8579 C161.979,9.0319 160.439,13.8559 160.472,14.6039 C160.472,14.6939 160.307,14.4009 160.307,16.1849 C159.995,16.1849 159.361,15.7999 158.993,15.6749" id="Fill-78" fill="#054A8A" mask="url(#mask-2)"></path>
            <path d="M158.9175,31.1771 C158.9735,29.9671 158.7845,27.5921 158.7235,26.9531 C159.1105,27.4191 160.2495,28.0731 160.2165,28.1181 C160.2035,28.3071 160.1455,29.8091 160.2495,30.8351 C161.0155,30.3991 160.4525,32.1391 160.4105,32.1391 C159.8205,31.6881 158.9025,31.6731 158.9175,31.1771" id="Fill-79" fill="#054A8A" mask="url(#mask-2)"></path>
            <path d="M160.1127,23.9291 C159.9237,23.7901 159.1817,23.2451 158.9937,22.8441 C159.0067,22.2831 158.9937,22.4361 159.0347,21.7871 C159.0777,21.2421 158.8417,21.2121 158.8137,19.5661 C159.3007,20.0821 160.0417,19.6161 160.2927,19.7401 C160.2307,21.1031 160.0417,21.0291 160.1127,21.8171 C160.9297,21.2281 162.4797,18.7941 162.5977,19.8931 C162.4087,20.5131 161.9787,20.8411 163.9587,20.3151 C163.9627,20.3401 163.9627,20.3651 163.9627,20.3891 C163.9627,21.2921 161.3317,21.5841 160.3967,23.2151 C160.2307,23.5281 160.1607,23.3241 160.1127,23.9291" id="Fill-80" fill="#054A8A" mask="url(#mask-2)"></path>
            <path d="M159.0496,38.6581 C158.9026,37.9741 158.9736,35.4601 158.9606,34.6821 C159.2726,34.9001 159.7726,35.0891 160.0846,35.2421 C160.0846,35.3511 160.2496,39.4461 160.2016,39.6491 C160.0416,39.4461 159.0926,38.7471 159.0496,38.6581" id="Fill-81" fill="#054A8A" mask="url(#mask-2)"></path>
            <path d="M158.7097,50.7447 C159.1257,50.9617 159.6537,51.1357 160.2167,51.1507 C160.2167,52.0487 160.0567,55.4197 159.4507,55.2467 C158.8897,55.0627 158.7097,52.6677 158.7097,50.7447" id="Fill-82" fill="#054A8A" mask="url(#mask-2)"></path>
            <path d="M158.6671,47.6711 C158.7711,47.1261 158.6721,42.8521 158.5961,42.6491 C158.9971,42.8221 159.5831,43.2191 159.9951,43.7651 C160.0281,45.6381 160.3341,47.2701 160.1131,48.9301 C159.8471,48.7611 158.7101,48.0921 158.6671,47.6711" id="Fill-83" fill="#054A8A" mask="url(#mask-2)"></path>
            <path d="M158.3978,35.9117 L158.5018,38.4997 C158.2938,38.6737 158.2798,38.9217 158.5488,39.1537 C159.6128,40.1457 161.2368,40.7497 161.9788,42.2727 C162.4518,43.5467 161.9648,45.2517 160.5428,45.5147 C160.6188,44.9597 160.5718,44.0117 160.3538,43.2987 C160.2028,42.7827 157.8068,41.4987 156.5358,39.8037 C155.6768,38.6577 156.0028,36.5167 158.3978,35.9117" id="Fill-84" fill="#054A8A" mask="url(#mask-2)"></path>
            <path d="M154.2212,66.0045 C154.1322,66.0045 154.0662,66.0235 154.0082,66.0585 L153.8282,65.4435 C154.0042,65.1315 154.2212,64.8975 154.4762,64.7445 C154.7362,64.5915 155.0282,64.5165 155.3652,64.5165 C155.7842,64.5165 156.1252,64.6215 156.3952,64.8295 C156.6592,65.0325 156.8292,65.2945 156.9052,65.6085 C156.9842,65.9245 157.0172,66.4495 157.0172,67.1885 L157.0172,73.0935 L154.5762,73.0935 L154.5762,67.2585 C154.5762,66.6785 154.5612,66.3265 154.5232,66.1975 C154.4852,66.0685 154.3862,66.0045 154.2212,66.0045" id="Fill-85" fill="#FFFFFE" mask="url(#mask-2)"></path>
            <path d="M153.8952,66.2269 C153.8472,66.3709 153.8292,66.7629 153.8292,67.3969 L153.8292,73.0939 L151.3812,73.0939 L151.3812,64.6649 L153.8722,64.6649 L153.8292,65.4439 L154.0092,66.0599 C153.9512,66.0979 153.9132,66.1539 153.8952,66.2269" id="Fill-86" fill="#FFFFFE" mask="url(#mask-2)"></path>
            <path d="M288.2531,44.0173 L288.3471,44.5033 L288.4511,44.9793 L288.5701,45.4443 L288.6981,45.9113 L288.8441,46.3623 L288.9941,46.8083 L289.1641,47.2493 L289.3441,47.6813 L289.5381,48.1023 L289.7461,48.5183 L289.9681,48.9253 L290.2001,49.3223 L290.4451,49.7133 L290.7051,50.0913 L290.9741,50.4623 L291.2581,50.8293 L291.5511,51.1813 L291.8631,51.5283 L292.1791,51.8603 L292.5151,52.1873 L292.8591,52.5043 L293.2141,52.8113 L293.5821,53.1093 L293.9651,53.3963 L294.3531,53.6743 L294.7541,53.9473 L295.1701,54.2103 L295.5941,54.4573 L296.0301,54.7013 L296.4791,54.9383 L296.9371,55.1633 L297.4091,55.3743 L297.8861,55.5833 L298.3771,55.7813 L298.8831,55.9703 L299.3931,56.1483 L299.9181,56.3163 L300.4561,56.4813 L301.0001,56.6343 L301.5571,56.7783 L302.1251,56.9173 L302.7011,57.0403 L303.2921,57.1653 L303.8911,57.2743 L304.5001,57.3773 L305.1251,57.4673 L305.7531,57.5563 L306.4001,57.6303 L307.0521,57.7003 L307.7181,57.7643 L308.3941,57.8143 L309.0791,57.8593 L309.7781,57.8993 L310.4871,57.9233 L311.2051,57.9433 L311.9321,57.9583 L312.6741,57.9583 L313.4111,57.9583 L314.1391,57.9433 L314.8531,57.9233 L315.5611,57.8943 L316.2561,57.8593 L316.9411,57.8093 L317.6161,57.7593 L318.2831,57.6953 L318.9391,57.6263 L319.5821,57.5473 L320.2201,57.4573 L320.8431,57.3633 L321.4621,57.2593 L322.0671,57.1443 L322.6621,57.0203 L323.2491,56.8923 L323.8251,56.7533 L324.3911,56.6043 L324.9491,56.4513 L325.4921,56.2873 L326.0301,56.1133 L326.5561,55.9303 L327.0751,55.7363 L327.5801,55.5383 L328.0761,55.3303 L328.5631,55.1123 L329.0351,54.8843 L329.5041,54.6463 L329.9621,54.4033 L330.4051,54.1503 L330.8401,53.8823 L331.2651,53.6153 L331.6771,53.3323 L332.0781,53.0453 L332.4701,52.7473 L332.8481,52.4403 L333.2121,52.1273 L333.5661,51.8053 L333.9071,51.4733 L334.2371,51.1313 L334.5491,50.7843 L334.8511,50.4333 L335.1391,50.0653 L335.4181,49.6993 L335.6831,49.3173 L335.9281,48.9303 L336.1651,48.5343 L336.3881,48.1313 L336.5991,47.7203 L336.7941,47.3033 L336.9721,46.8823 L337.1441,46.4513 L337.2991,46.0103 L337.4361,45.5643 L337.5631,45.1133 L337.6771,44.6563 L337.7761,44.1913 L337.8651,43.7203 L337.9371,43.2433 L337.9941,42.7583 L338.0401,42.2673 L338.0731,41.7713 L338.0931,41.2713 L338.1021,40.7693 L338.0981,40.5623 L338.0981,40.3583 L338.0931,40.1553 L338.0841,39.9523 L338.0731,39.7543 L338.0601,39.5503 L338.0451,39.3523 L338.0271,39.1533 L338.0081,38.9553 L337.9891,38.7623 L337.9641,38.5633 L337.9371,38.3703 L337.9081,38.1773 L337.8751,37.9783 L337.8421,37.7853 L337.8041,37.5973 L337.7661,37.4083 L337.7291,37.2153 L337.6871,37.0273 L337.6391,36.8393 L337.5911,36.6503 L337.5451,36.4673 L337.5301,36.4223 L337.4871,36.2783 L337.4361,36.0943 L337.3791,35.9173 L337.3181,35.7333 L337.2561,35.5493 L337.1901,35.3713 L337.1241,35.1923 L337.0581,35.0143 L336.9821,34.8363 L336.9121,34.6623 L336.8411,34.4943 L336.7611,34.3203 L336.6801,34.1463 L336.5991,33.9733 L336.5151,33.8043 L336.4301,33.6353 L336.3401,33.4683 L336.2511,33.3043 L336.1551,33.1403 L336.0611,32.9823 L335.9621,32.8183 L335.8631,32.6593 L335.7631,32.5063 L335.6601,32.3483 L335.5511,32.1933 L335.4421,32.0443 L335.3331,31.8963 L335.2201,31.7473 L335.1071,31.5983 L334.9881,31.4543 L334.8661,31.3113 L334.7471,31.1713 L334.6251,31.0333 L334.4971,30.8953 L334.3701,30.7553 L334.2421,30.6223 L334.1101,30.4933 L333.9781,30.3593 L333.8401,30.2303 L333.7031,30.1013 L333.5611,29.9773 L333.4111,29.8483 L333.1511,29.6303 L332.8721,29.4173 L332.5791,29.2083 L332.2721,29.0053 L331.9561,28.8023 L331.6251,28.6043 L331.2801,28.4113 L330.9201,28.2223 L330.5471,28.0343 L330.1641,27.8503 L329.7681,27.6723 L329.3521,27.4943 L328.9281,27.3153 L328.4921,27.1463 L328.0391,26.9733 L327.5711,26.8043 L327.0941,26.6403 L326.5981,26.4773 L326.0921,26.3143 L325.5681,26.1553 L325.0341,26.0013 L324.4801,25.8423 L323.9191,25.6943 L323.3431,25.5403 L322.7471,25.3963 L322.1431,25.2483 L321.5241,25.1043 L320.8901,24.9603 L320.2381,24.8213 L319.5771,24.6823 L318.9011,24.5493 L318.2071,24.4103 L318.1131,24.3953 L318.0171,24.3753 L317.9281,24.3613 L317.8431,24.3453 L317.7531,24.3353 L317.6691,24.3213 L317.5831,24.3113 L317.5271,24.3013 L317.4611,24.2853 L317.3951,24.2713 L317.3271,24.2573 L317.2531,24.2413 L317.1821,24.2263 L317.1061,24.2123 L317.0301,24.1963 L316.9491,24.1823 L316.7991,24.1523 L316.7141,24.1323 L316.6341,24.1183 L316.5491,24.1023 L316.4641,24.0833 L316.3731,24.0683 L316.2831,24.0473 L316.1941,24.0333 L316.1001,24.0143 L316.0101,23.9983 L315.9161,23.9783 L315.8171,23.9583 L315.6221,23.9253 L315.4191,23.8843 L315.3151,23.8653 L315.2061,23.8453 L315.1021,23.8253 L314.8861,23.7853 L314.2801,23.6723 L313.6951,23.5523 L313.1321,23.4343 L312.5941,23.3093 L312.0701,23.1863 L311.6451,23.0763 L311.5691,23.0573 L311.0921,22.9223 L310.6331,22.7943 L310.1941,22.6553 L309.7831,22.5213 L309.3861,22.3773 L309.0121,22.2383 L308.9611,22.2193 L308.6641,22.0943 L308.3321,21.9513 L308.0251,21.8023 L307.7421,21.6583 L307.4781,21.5143 L307.2361,21.3663 L307.0201,21.2223 L306.8251,21.0783 L306.6551,20.9403 L306.5051,20.8063 L306.3721,20.6773 L306.2641,20.5473 L306.1731,20.4293 L306.0981,20.3153 L306.0411,20.2053 L305.9981,20.1063 L305.9651,20.0073 L305.9421,19.9133 L305.9281,19.8143 L305.9231,19.6903 L305.9281,19.6153 L305.9321,19.5273 L305.9371,19.4333 L305.9471,19.3483 L305.9611,19.2643 L305.9751,19.1843 L305.9941,19.1053 L306.0171,19.0253 L306.0361,18.9523 L306.0651,18.8823 L306.0931,18.8083 L306.1221,18.7383 L306.1541,18.6693 L306.1931,18.6053 L306.2311,18.5353 L306.2721,18.4663 L306.3201,18.4013 L306.3671,18.3373 L306.4191,18.2723 L306.4761,18.2073 L306.5371,18.1433 L306.6041,18.0753 L306.6701,18.0093 L306.7401,17.9453 L306.8201,17.8813 L306.9001,17.8163 L306.9871,17.7513 L307.0811,17.6923 L307.1751,17.6283 L307.2741,17.5633 L307.3831,17.5033 L307.4921,17.4443 L307.6001,17.3863 L307.7181,17.3253 L307.8461,17.2713 L307.9741,17.2163 L308.1011,17.1623 L308.2381,17.1073 L308.3801,17.0583 L308.5261,17.0083 L308.6731,16.9643 L308.8291,16.9143 L308.9841,16.8693 L309.1451,16.8293 L309.3151,16.7903 L309.4861,16.7513 L309.6601,16.7113 L309.8401,16.6763 L310.0191,16.6463 L310.2091,16.6173 L310.4021,16.5863 L310.5951,16.5573 L310.7991,16.5323 L311.0011,16.5123 L311.2101,16.4923 L311.4221,16.4733 L311.6401,16.4593 L311.8611,16.4433 L312.0891,16.4283 L312.3151,16.4183 L312.5511,16.4133 L312.7881,16.4083 L313.0331,16.4033 L313.2751,16.4033 L313.5291,16.4033 L313.7801,16.4083 L314.0261,16.4133 L314.2671,16.4233 L314.4981,16.4333 L314.7291,16.4483 L314.9571,16.4633 L315.1781,16.4823 L315.3961,16.5083 L315.6091,16.5273 L315.8171,16.5573 L316.0151,16.5823 L316.2131,16.6173 L316.4071,16.6463 L316.5961,16.6863 L316.7791,16.7213 L316.9551,16.7603 L317.1291,16.8053 L317.3001,16.8503 L317.4611,16.8953 L317.6211,16.9443 L317.7771,16.9943 L317.9281,17.0443 L318.0701,17.0973 L318.2121,17.1523 L318.3491,17.2113 L318.4761,17.2713 L318.6041,17.3303 L318.7221,17.3903 L318.8401,17.4543 L318.9541,17.5183 L319.0621,17.5883 L319.1661,17.6533 L319.2651,17.7223 L319.3601,17.7963 L319.4491,17.8653 L319.5351,17.9353 L319.6201,18.0093 L319.6941,18.0843 L319.7711,18.1583 L319.8421,18.2383 L319.9071,18.3173 L319.9731,18.3963 L320.0351,18.4763 L320.0931,18.5603 L320.1491,18.6393 L320.2011,18.7283 L320.2481,18.8133 L320.2951,18.9023 L320.3381,18.9973 L320.3751,19.0913 L320.4131,19.1843 L320.4511,19.2843 L320.4791,19.3833 L320.5121,19.4923 L320.5361,19.5963 L320.5601,19.7093 L320.5831,19.8243 L320.5981,19.9383 L320.6161,20.0623 L320.6261,20.1863 L320.6351,20.3103 L320.6401,20.4433 L320.6401,20.5873 L320.6401,22.0103 L336.8021,22.0103 L336.6801,20.1413 L336.6321,19.6453 L336.5811,19.1553 L336.5151,18.6743 L336.4441,18.2023 L336.3591,17.7373 L336.2641,17.2753 L336.1601,16.8243 L336.0431,16.3793 L335.9191,15.9423 L335.7821,15.5163 L335.6361,15.0953 L335.4801,14.6783 L335.3101,14.2723 L335.1301,13.8753 L334.9411,13.4843 L334.7441,13.1013 L334.5301,12.7253 L334.3131,12.3583 L334.0821,12.0013 L333.8361,11.6543 L333.5851,11.3123 L333.3211,10.9793 L333.0471,10.6523 L332.7631,10.3403 L332.4701,10.0333 L332.1681,9.7413 L331.8521,9.4533 L331.5311,9.1753 L331.1941,8.9033 L330.8501,8.6453 L330.4961,8.3923 L330.1311,8.1493 L329.7581,7.9153 L329.3721,7.6933 L328.9741,7.4743 L328.5681,7.2673 L328.1521,7.0683 L327.7281,6.8753 L327.2871,6.6913 L326.8391,6.5183 L326.3801,6.3493 L325.9131,6.1913 L325.4311,6.0373 L324.9441,5.8933 L324.4441,5.7593 L323.9331,5.6303 L323.4141,5.5073 L322.8841,5.3933 L322.3451,5.2883 L321.7931,5.1893 L321.2301,5.0993 L320.6641,5.0163 L320.0771,4.9413 L319.4871,4.8723 L318.8871,4.8083 L318.2731,4.7573 L317.6501,4.7093 L317.0171,4.6693 L316.3731,4.6343 L315.7181,4.6093 L315.0561,4.5943 L314.3801,4.5843 L313.6901,4.5803 L312.9731,4.5843 L312.2631,4.5943 L311.5651,4.6143 L310.8741,4.6443 L310.1991,4.6793 L309.5271,4.7243 L308.8661,4.7783 L308.2191,4.8373 L307.5811,4.9013 L306.9481,4.9813 L306.3291,5.0663 L305.7211,5.1603 L305.1201,5.2593 L304.5281,5.3673 L303.9481,5.4863 L303.3811,5.6103 L302.8181,5.7503 L302.2661,5.8883 L301.7271,6.0423 L301.1981,6.2003 L300.6741,6.3703 L300.1641,6.5473 L299.6641,6.7313 L299.1711,6.9253 L298.6891,7.1273 L298.2171,7.3363 L297.7581,7.5593 L297.3041,7.7873 L296.8611,8.0253 L296.4321,8.2733 L296.0101,8.5263 L295.5991,8.7933 L295.1981,9.0663 L294.8101,9.3443 L294.4321,9.6373 L294.0691,9.9343 L293.7141,10.2413 L293.3741,10.5583 L293.0491,10.8803 L292.7321,11.2133 L292.4251,11.5503 L292.1371,11.9023 L291.8581,12.2593 L291.5881,12.6213 L291.3381,12.9923 L291.0971,13.3743 L290.8711,13.7613 L290.6541,14.1573 L290.4551,14.5593 L290.2651,14.9703 L290.2521,15.0013 L290.0911,15.3873 L289.9301,15.8133 L289.7791,16.2443 L289.6471,16.6813 L289.5241,17.1273 L289.4151,17.5793 L289.3211,18.0343 L289.2351,18.5013 L289.1641,18.9663 L289.1081,19.4473 L289.0651,19.9293 L289.0321,20.4143 L289.0141,20.9103 L289.0091,21.4103 L289.0141,21.8023 L289.0281,22.1893 L289.0471,22.5713 L289.0801,22.9473 L289.1181,23.3193 L289.1701,23.6863 L289.2271,24.0533 L289.2691,24.2763 L289.2921,24.4153 L289.3681,24.7673 L289.4531,25.1183 L289.5471,25.4653 L289.6511,25.8073 L289.7691,26.1443 L289.8881,26.4773 L290.0201,26.8043 L290.1611,27.1263 L290.2761,27.3593 L290.3131,27.4433 L290.4741,27.7563 L290.6431,28.0593 L290.8191,28.3613 L291.0071,28.6593 L291.2061,28.9463 L291.4091,29.2293 L291.6251,29.5063 L291.8491,29.7793 L292.0801,30.0463 L292.3211,30.3053 L292.5711,30.5573 L292.8261,30.8103 L293.0951,31.0483 L293.3701,31.2863 L293.6531,31.5133 L293.9461,31.7373 L294.2481,31.9603 L294.5651,32.1783 L294.8961,32.3863 L295.2311,32.6003 L295.5811,32.8033 L295.9391,33.0063 L296.3131,33.1993 L296.6951,33.3933 L297.0881,33.5863 L297.4941,33.7753 L297.9101,33.9523 L298.3351,34.1363 L298.7751,34.3153 L299.2231,34.4893 L299.6871,34.6573 L300.1541,34.8253 L300.6411,34.9893 L301.1321,35.1523 L301.6381,35.3113 L302.1581,35.4663 L302.6821,35.6193 L303.2261,35.7683 L303.7721,35.9173 L304.3351,36.0603 L304.9111,36.1993 L305.4931,36.3373 L306.0931,36.4723 L306.6981,36.6053 L307.3171,36.7353 L307.9491,36.8633 L308.5931,36.9873 L308.6731,37.0023 L308.7491,37.0163 L308.8291,37.0323 L308.9791,37.0573 L309.0651,37.0723 L309.1451,37.0873 L309.2301,37.1013 L309.3201,37.1153 L309.4051,37.1313 L309.4991,37.1463 L309.5901,37.1653 L309.6841,37.1813 L309.7831,37.1953 L310.0191,37.2403 L310.1841,37.2703 L310.2881,37.2853 L310.3971,37.3043 L310.5061,37.3253 L310.6191,37.3443 L310.7331,37.3653 L310.8461,37.3843 L310.9601,37.4033 L311.0971,37.4293 L311.3181,37.4683 L311.5691,37.5133 L311.8291,37.5573 L312.4521,37.6713 L313.0561,37.7903 L313.6381,37.9103 L314.1951,38.0333 L314.7341,38.1623 L315.2491,38.2923 L315.7461,38.4253 L316.2181,38.5583 L316.6721,38.6983 L317.1011,38.8413 L317.5071,38.9853 L317.8951,39.1293 L318.2541,39.2783 L318.5941,39.4263 L318.9161,39.5803 L319.2091,39.7293 L319.4781,39.8823 L319.7281,40.0363 L319.9551,40.1903 L320.1581,40.3393 L320.3381,40.4883 L320.4941,40.6323 L320.6311,40.7693 L320.7441,40.9043 L320.8431,41.0383 L320.9191,41.1613 L320.9851,41.2803 L321.0321,41.3953 L321.0651,41.5093 L321.0931,41.6223 L321.1081,41.7413 L321.1131,41.8803 L321.1131,41.9843 L321.1081,42.1043 L321.0981,42.2223 L321.0901,42.3313 L321.0751,42.4463 L321.0561,42.5493 L321.0371,42.6543 L321.0131,42.7583 L320.9901,42.8523 L320.9621,42.9463 L320.9281,43.0403 L320.8951,43.1303 L320.8571,43.2153 L320.8191,43.2983 L320.7781,43.3823 L320.7301,43.4673 L320.6821,43.5463 L320.6311,43.6213 L320.5791,43.7003 L320.5221,43.7743 L320.4601,43.8493 L320.4001,43.9173 L320.3331,43.9873 L320.2621,44.0623 L320.1871,44.1313 L320.1061,44.2013 L320.0221,44.2653 L319.9361,44.3353 L319.8421,44.3993 L319.7471,44.4633 L319.6431,44.5283 L319.5391,44.5923 L319.4261,44.6523 L319.3131,44.7113 L319.1891,44.7763 L319.0621,44.8303 L318.9301,44.8903 L318.7981,44.9443 L318.6511,44.9983 L318.5041,45.0483 L318.3541,45.1023 L318.1921,45.1473 L318.0331,45.1973 L317.8621,45.2413 L317.6871,45.2863 L317.5071,45.3263 L317.3241,45.3653 L317.1341,45.4053 L316.9411,45.4403 L316.7421,45.4753 L316.5351,45.5053 L316.3271,45.5343 L316.1091,45.5593 L315.8911,45.5833 L315.6651,45.6093 L315.4341,45.6283 L315.2031,45.6483 L314.9611,45.6633 L314.7161,45.6733 L314.4651,45.6823 L314.2101,45.6923 L313.9501,45.6973 L313.6861,45.7033 L313.4161,45.7033 L313.1141,45.7033 L312.8161,45.6973 L312.5281,45.6873 L312.2391,45.6783 L311.9601,45.6633 L311.6871,45.6483 L311.4181,45.6233 L311.1531,45.6043 L310.8981,45.5743 L310.6481,45.5443 L310.4021,45.5143 L310.1661,45.4753 L309.9351,45.4343 L309.7021,45.3953 L309.4861,45.3503 L309.2681,45.3013 L309.0601,45.2513 L308.8571,45.2013 L308.6591,45.1473 L308.4691,45.0883 L308.2861,45.0283 L308.1061,44.9643 L307.9311,44.8993 L307.7651,44.8303 L307.6051,44.7603 L307.4491,44.6913 L307.2991,44.6163 L307.1561,44.5383 L307.0201,44.4633 L306.8881,44.3793 L306.7591,44.3003 L306.6411,44.2153 L306.5231,44.1313 L306.4101,44.0423 L306.3011,43.9533 L306.1981,43.8593 L306.0931,43.7593 L305.9981,43.6603 L305.9041,43.5613 L305.8191,43.4573 L305.7331,43.3533 L305.6491,43.2433 L305.5731,43.1303 L305.4981,43.0153 L305.4271,42.8973 L305.3561,42.7723 L305.2941,42.6493 L305.2331,42.5203 L305.1771,42.3863 L305.1201,42.2523 L305.0681,42.1093 L305.0211,41.9643 L304.9781,41.8163 L304.9361,41.6633 L304.8981,41.5033 L304.8651,41.3453 L304.8361,41.1773 L304.8081,41.0073 L304.7841,40.8303 L304.7651,40.6513 L304.7511,40.4683 L304.7421,40.2793 L304.7371,40.0853 L304.7321,39.8783 L304.7321,38.0883 L292.1371,38.0883 L290.8131,38.0883 L287.9561,38.0883 L287.9561,40.4273 L287.9601,40.9583 L287.9791,41.4843 L288.0121,42.0053 L288.0551,42.5203 L288.1061,43.0263 L288.1771,43.5263 L288.2531,44.0173 Z M219.3031,57.1303 L234.1281,57.1303 L234.1281,30.4873 L234.1281,28.4463 L234.1281,27.4583 L234.1281,22.9373 L235.3331,26.4173 L235.7591,27.6473 L236.3821,29.4423 L245.9821,57.1443 L260.2181,57.1443 L272.1891,22.8683 L272.1891,57.1303 L286.8071,57.1303 L286.8071,33.3293 L286.8071,30.7603 L286.8071,25.8873 L286.8071,23.2253 L286.8071,14.2913 L286.8071,5.2543 L265.1831,5.2543 L262.6741,10.6233 L261.4131,13.3153 L253.0971,31.0923 L248.9911,20.4483 L248.9681,20.3843 L248.4631,19.0703 L243.1331,5.2543 L219.3031,5.2543 L219.3031,33.4973 L219.3031,57.1303 Z M185.5961,38.6623 L182.9931,43.4023 L178.6391,51.3303 L172.0891,47.3693 L172.0891,57.0903 L217.9891,57.0903 L217.9891,43.8993 L186.3821,43.8993 L186.3821,43.4673 L186.3821,38.2923 L209.4511,38.2923 L215.8201,38.2923 L215.8201,34.6023 L215.8201,24.2573 L186.3821,24.2573 L186.3821,23.7503 L186.3821,18.3023 L217.2181,18.3023 L217.2181,5.2143 L172.0891,5.2143 L172.0891,14.7083 L178.1331,11.0433 L185.4741,23.7503 L173.2721,31.1473 L185.5961,38.6623 Z M165.1061,4.8673 L153.4511,4.8673 L153.4511,20.1413 L153.4511,20.5473 L151.6941,19.4823 L152.2801,18.4213 L152.2801,3.6373 L166.2781,3.6373 L166.2781,18.2283 L170.5921,15.6153 L170.5921,3.6433 L218.7171,3.6433 L218.7171,3.6823 L244.1441,3.6823 L253.2291,27.2413 L264.2461,3.6823 L288.3041,3.6823 L288.3041,15.9283 L288.3621,15.7343 L288.5271,15.2533 L288.7121,14.7823 L288.9051,14.3173 L289.1131,13.8553 L289.3391,13.4043 L289.5811,12.9633 L289.8311,12.5273 L290.1001,12.1053 L290.3841,11.6843 L290.6821,11.2773 L290.9931,10.8803 L291.3151,10.4943 L291.6551,10.1163 L292.0041,9.7503 L292.3681,9.3943 L292.7461,9.0473 L293.1291,8.7103 L293.5311,8.3823 L293.9411,8.0643 L294.3661,7.7573 L294.8021,7.4603 L295.2461,7.1773 L295.6981,6.8993 L296.1621,6.6363 L296.6391,6.3793 L297.1211,6.1363 L297.6131,5.8983 L298.1181,5.6753 L298.6281,5.4573 L299.1521,5.2543 L299.6821,5.0563 L300.2201,4.8723 L300.7681,4.6933 L301.3311,4.5253 L301.8981,4.3663 L302.4731,4.2173 L303.0601,4.0793 L303.6551,3.9453 L304.2601,3.8203 L304.8691,3.7123 L305.4931,3.6033 L306.1271,3.5083 L306.7691,3.4193 L307.4161,3.3403 L308.0771,3.2713 L308.7441,3.2123 L309.4231,3.1573 L310.1131,3.1123 L310.8081,3.0723 L311.5171,3.0423 L312.2301,3.0233 L312.9581,3.0133 L313.6901,3.0083 L314.3941,3.0133 L315.0841,3.0233 L315.7641,3.0423 L316.4361,3.0673 L317.0961,3.0973 L317.7491,3.1413 L318.3911,3.1863 L319.0191,3.2453 L319.6431,3.3063 L320.2571,3.3803 L320.8571,3.4593 L321.4481,3.5443 L322.0331,3.6373 L322.6101,3.7423 L323.1731,3.8503 L323.7261,3.9693 L324.2731,4.0983 L324.8071,4.2333 L325.3321,4.3763 L325.8501,4.5303 L326.3611,4.6883 L326.8571,4.8623 L327.3451,5.0353 L327.8271,5.2243 L328.2991,5.4223 L328.7571,5.6303 L329.2101,5.8493 L329.6501,6.0723 L330.0791,6.3093 L330.5051,6.5523 L330.9161,6.8113 L331.3181,7.0783 L331.7091,7.3563 L332.0881,7.6443 L332.4611,7.9413 L332.8201,8.2483 L333.1701,8.5713 L333.5101,8.9033 L333.8361,9.2393 L334.1521,9.5923 L334.4601,9.9533 L334.7521,10.3263 L335.0361,10.7073 L335.3051,11.0993 L335.5661,11.4963 L335.8101,11.9063 L336.0471,12.3233 L336.2691,12.7493 L336.4771,13.1863 L336.6751,13.6273 L336.8601,14.0743 L337.0351,14.5343 L337.1961,14.9953 L337.3471,15.4713 L337.4831,15.9473 L337.6111,16.4333 L337.7241,16.9243 L337.8281,17.4243 L337.9181,17.9303 L337.9991,18.4413 L338.0681,18.9563 L338.1261,19.4823 L338.1731,20.0123 L338.4101,23.5873 L321.9151,23.5873 L322.4731,23.7153 L323.0921,23.8653 L323.6911,24.0143 L324.2881,24.1673 L324.8631,24.3253 L325.4261,24.4843 L325.9791,24.6433 L326.5171,24.8063 L327.0381,24.9743 L327.5521,25.1443 L328.0481,25.3163 L328.5351,25.4913 L329.0071,25.6693 L329.4661,25.8523 L329.9151,26.0363 L330.3491,26.2243 L330.7741,26.4173 L331.1861,26.6113 L331.5821,26.8143 L331.9701,27.0173 L332.3481,27.2313 L332.7061,27.4433 L333.0611,27.6683 L333.4071,27.8953 L333.7321,28.1333 L334.0531,28.3763 L334.3561,28.6233 L334.5301,28.7773 L334.6861,28.9163 L334.8381,29.0603 L334.9881,29.2043 L335.1391,29.3473 L335.2861,29.4963 L335.4331,29.6503 L335.5741,29.7983 L335.7111,29.9523 L335.8531,30.1113 L335.9901,30.2703 L336.1231,30.4283 L336.2541,30.5923 L336.3831,30.7553 L336.5101,30.9243 L336.6321,31.0883 L336.7561,31.2613 L336.8731,31.4343 L336.9921,31.6083 L337.1061,31.7823 L337.2191,31.9653 L337.3271,32.1443 L337.4361,32.3223 L337.5401,32.5063 L337.6441,32.6943 L337.7431,32.8773 L337.8371,33.0653 L337.9321,33.2543 L338.0271,33.4473 L338.1161,33.6463 L338.2021,33.8393 L338.2811,34.0283 L338.3571,34.2113 L338.4381,34.4093 L338.5181,34.6083 L338.5891,34.8063 L338.6641,35.0093 L338.7301,35.2123 L338.8021,35.4153 L338.8621,35.6193 L338.9241,35.8223 L338.9811,36.0303 L339.0371,36.2383 L339.0901,36.4423 L339.1411,36.6553 L339.1891,36.8633 L339.2321,37.0773 L339.2741,37.2853 L339.3161,37.4933 L339.3541,37.7113 L339.3871,37.9243 L339.4151,38.1373 L339.4481,38.3563 L339.4721,38.5683 L339.4961,38.7823 L339.5191,39.0043 L339.5391,39.2243 L339.5521,39.4413 L339.5671,39.6603 L339.5811,39.8783 L339.5861,40.1003 L339.5951,40.3193 L339.5951,40.5423 L339.6001,40.7753 L339.5911,41.3163 L339.5721,41.8613 L339.5341,42.4013 L339.4861,42.9363 L339.4201,43.4673 L339.3391,43.9913 L339.2451,44.5133 L339.1321,45.0233 L339.0091,45.5343 L338.8681,46.0343 L338.7121,46.5313 L338.5371,47.0173 L338.3521,47.4973 L338.1491,47.9733 L337.9321,48.4393 L337.6961,48.8953 L337.4511,49.3463 L337.1851,49.7873 L336.9071,50.2193 L336.6141,50.6463 L336.3071,51.0563 L335.9851,51.4593 L335.6501,51.8553 L335.3051,52.2373 L334.9411,52.6093 L334.5681,52.9753 L334.1801,53.3273 L333.7791,53.6693 L333.3681,54.0063 L332.9431,54.3293 L332.5081,54.6413 L332.0591,54.9433 L331.6051,55.2363 L331.1381,55.5193 L330.6611,55.7923 L330.1691,56.0543 L329.6731,56.3073 L329.1681,56.5493 L328.6491,56.7833 L328.1231,57.0003 L327.5851,57.2153 L327.0421,57.4173 L326.4851,57.6103 L325.9221,57.7893 L325.3451,57.9623 L324.7641,58.1273 L324.1731,58.2853 L323.5691,58.4293 L322.9601,58.5633 L322.3411,58.6913 L321.7121,58.8053 L321.0701,58.9153 L320.4231,59.0143 L319.7661,59.1033 L319.1001,59.1873 L318.4231,59.2623 L317.7391,59.3263 L317.0451,59.3813 L316.3401,59.4253 L315.6271,59.4643 L314.9041,59.4953 L314.1721,59.5143 L313.4251,59.5293 L312.6741,59.5343 L311.9191,59.5293 L311.1711,59.5143 L310.4401,59.4953 L309.7121,59.4643 L308.9941,59.4303 L308.2901,59.3813 L307.5951,59.3313 L306.9111,59.2673 L306.2391,59.1983 L305.5731,59.1133 L304.9211,59.0293 L304.2791,58.9293 L303.6401,58.8263 L303.0181,58.7063 L302.4071,58.5833 L301.8031,58.4483 L301.2071,58.3103 L300.6271,58.1563 L300.0551,57.9973 L299.4881,57.8233 L298.9361,57.6463 L298.3931,57.4533 L297.8581,57.2543 L297.3391,57.0453 L296.8241,56.8223 L296.3171,56.5943 L295.8261,56.3523 L295.3451,56.0993 L294.8771,55.8413 L294.4141,55.5633 L293.9651,55.2803 L293.5261,54.9883 L293.1041,54.6863 L292.6841,54.3683 L292.2831,54.0423 L291.8861,53.7043 L291.5081,53.3533 L291.1401,52.9903 L290.7851,52.6193 L290.4451,52.2373 L290.1151,51.8453 L289.7981,51.4383 L289.4961,51.0273 L289.2071,50.6003 L288.9381,50.1643 L288.6791,49.7233 L288.4331,49.2723 L288.3041,49.0143 L288.3041,58.7013 L270.6911,58.7013 L270.6911,31.7233 L261.2661,58.7173 L244.9331,58.7173 L235.6261,31.8563 L235.6261,58.7013 L217.8051,58.7013 L217.8051,58.6613 L170.5921,58.6613 L170.5921,46.4603 L171.1631,45.4303 L178.3161,49.8033 L183.9951,39.1043 L170.9371,31.1423 L183.8781,23.2993 L177.8021,12.6613 L165.1061,20.3943 L165.1061,20.3893 L165.1061,4.8673 Z M319.6161,42.0143 L319.6161,41.9393 L319.5901,41.9103 L319.5441,41.8563 L319.4781,41.7813 L319.3831,41.6963 L319.2601,41.5973 L319.1181,41.4943 L318.9491,41.3803 L318.7511,41.2553 L318.5241,41.1323 L318.2731,41.0033 L317.9991,40.8693 L317.6971,40.7353 L317.3661,40.6013 L317.0171,40.4683 L316.6381,40.3333 L316.2361,40.2053 L315.8121,40.0713 L315.3631,39.9423 L314.8901,39.8183 L314.3941,39.6943 L313.8791,39.5703 L313.3361,39.4513 L312.7741,39.3323 L312.1881,39.2243 L311.5741,39.1093 L311.3181,39.0643 L311.0671,39.0193 L310.8461,38.9803 L310.7101,38.9553 L310.5951,38.9363 L310.4871,38.9153 L310.3691,38.8963 L310.2601,38.8773 L310.1511,38.8563 L310.0431,38.8373 L309.9391,38.8163 L309.7731,38.7923 L309.5331,38.7473 L309.4381,38.7323 L309.3441,38.7123 L309.2501,38.6983 L309.1591,38.6833 L309.0701,38.6683 L308.9841,38.6533 L308.9001,38.6383 L308.8191,38.6233 L308.7301,38.6093 L308.5781,38.5783 L308.4941,38.5633 L308.4181,38.5493 L308.3321,38.5333 L307.6711,38.4053 L307.0281,38.2763 L306.4001,38.1473 L306.2311,38.1083 L306.2311,39.8683 L306.2351,40.0513 L306.2391,40.2103 L306.2491,40.3583 L306.2581,40.5023 L306.2721,40.6413 L306.2921,40.7803 L306.3101,40.9083 L306.3341,41.0283 L306.3581,41.1473 L306.3861,41.2663 L306.4141,41.3703 L306.4431,41.4693 L306.4761,41.5733 L306.5101,41.6673 L306.5471,41.7573 L306.5841,41.8403 L306.6221,41.9253 L306.6641,42.0053 L306.7071,42.0793 L306.7501,42.1533 L306.7971,42.2223 L306.8441,42.2923 L306.8961,42.3613 L306.9481,42.4253 L307.0051,42.4903 L307.0611,42.5543 L307.1191,42.6143 L307.1841,42.6793 L307.2551,42.7383 L307.3261,42.7973 L307.4021,42.8573 L307.4821,42.9163 L307.5621,42.9713 L307.6521,43.0313 L307.7461,43.0903 L307.8501,43.1443 L307.9591,43.2043 L308.0721,43.2583 L308.1901,43.3133 L308.3231,43.3733 L308.4551,43.4273 L308.5981,43.4773 L308.7441,43.5313 L308.9001,43.5813 L309.0651,43.6303 L309.2301,43.6803 L309.4101,43.7243 L309.5901,43.7693 L309.7781,43.8093 L309.9761,43.8493 L310.1791,43.8883 L310.3871,43.9233 L310.6051,43.9533 L310.8271,43.9823 L311.0591,44.0123 L311.2951,44.0373 L311.5411,44.0573 L311.7861,44.0763 L312.0411,44.0963 L312.3011,44.1063 L312.5751,44.1163 L312.8491,44.1263 L313.1271,44.1313 L313.4161,44.1313 L313.6711,44.1313 L313.9271,44.1263 L314.1721,44.1213 L314.4091,44.1163 L314.6451,44.1063 L314.8761,44.0923 L315.0991,44.0763 L315.3201,44.0623 L315.5331,44.0423 L315.7411,44.0223 L315.9441,43.9973 L316.1371,43.9723 L316.3321,43.9483 L316.5151,43.9173 L316.6951,43.8883 L316.8651,43.8593 L317.0351,43.8233 L317.1961,43.7893 L317.3521,43.7543 L317.5031,43.7153 L317.6441,43.6753 L317.7861,43.6353 L317.9131,43.5963 L318.0371,43.5573 L318.1601,43.5113 L318.2731,43.4723 L318.3771,43.4273 L318.4761,43.3873 L318.5711,43.3433 L318.6611,43.2983 L318.7401,43.2543 L318.8221,43.2153 L318.8921,43.1693 L318.9581,43.1303 L319.0191,43.0903 L319.0721,43.0503 L319.1231,43.0113 L319.1661,42.9763 L319.2091,42.9363 L319.2511,42.9013 L319.2841,42.8663 L319.3131,42.8323 L319.3411,42.8023 L319.3691,42.7673 L319.3881,42.7433 L319.4121,42.7133 L319.4301,42.6793 L319.4491,42.6493 L319.4681,42.6183 L319.4831,42.5843 L319.4961,42.5543 L319.5121,42.5243 L319.5251,42.4803 L319.5391,42.4463 L319.5491,42.4063 L319.5631,42.3613 L319.5721,42.3123 L319.5861,42.2623 L319.5951,42.2033 L319.6001,42.1433 L319.6111,42.0833 L319.6161,42.0143 Z M319.1421,22.9973 L319.1421,20.5973 L319.1421,20.4833 L319.1381,20.3993 L319.1331,20.3153 L319.1281,20.2353 L319.1181,20.1663 L319.1051,20.0923 L319.0951,20.0283 L319.0811,19.9683 L319.0671,19.9133 L319.0521,19.8543 L319.0341,19.8043 L319.0191,19.7543 L319.0011,19.7093 L318.9811,19.6653 L318.9631,19.6263 L318.9441,19.5873 L318.9211,19.5413 L318.8971,19.5073 L318.8731,19.4673 L318.8451,19.4273 L318.8161,19.3933 L318.7831,19.3533 L318.7511,19.3133 L318.7121,19.2733 L318.6741,19.2343 L318.6321,19.1953 L318.5851,19.1503 L318.5331,19.1103 L318.4811,19.0663 L318.4201,19.0213 L318.3541,18.9763 L318.2871,18.9313 L318.2121,18.8873 L318.1321,18.8423 L318.0511,18.7983 L317.9621,18.7493 L317.8671,18.7043 L317.7731,18.6643 L317.6641,18.6143 L317.5551,18.5753 L317.4411,18.5303 L317.3191,18.4903 L317.1911,18.4453 L317.0581,18.4073 L316.9211,18.3673 L316.7791,18.3323 L316.6341,18.2973 L316.4781,18.2633 L316.3171,18.2283 L316.1521,18.1983 L315.9821,18.1693 L315.8071,18.1383 L315.6221,18.1143 L315.4391,18.0893 L315.2441,18.0703 L315.0461,18.0493 L314.8431,18.0343 L314.6351,18.0153 L314.4231,18.0043 L314.2051,17.9953 L313.9781,17.9853 L313.7511,17.9803 L313.5151,17.9753 L313.2751,17.9753 L313.0491,17.9753 L312.8161,17.9803 L312.5901,17.9853 L312.3721,17.9903 L312.1601,17.9993 L311.9471,18.0093 L311.7391,18.0243 L311.5411,18.0393 L311.3471,18.0543 L311.1531,18.0753 L310.9641,18.0983 L310.7801,18.1193 L310.6051,18.1433 L310.4301,18.1693 L310.2601,18.1983 L310.0991,18.2283 L309.9441,18.2583 L309.7881,18.2873 L309.6411,18.3223 L309.4941,18.3573 L309.3571,18.3963 L309.2251,18.4313 L309.0981,18.4713 L308.9761,18.5113 L308.8571,18.5503 L308.7381,18.5893 L308.6311,18.6343 L308.5301,18.6743 L308.4321,18.7193 L308.3321,18.7593 L308.2481,18.8033 L308.1721,18.8423 L308.0961,18.8823 L308.0251,18.9263 L307.9551,18.9713 L307.8881,19.0113 L307.8321,19.0513 L307.7791,19.0913 L307.7321,19.1253 L307.6951,19.1603 L307.6571,19.1953 L307.6241,19.2243 L307.5951,19.2543 L307.5721,19.2783 L307.5531,19.3033 L307.5341,19.3283 L307.5151,19.3483 L307.5051,19.3633 L307.4971,19.3833 L307.4871,19.3973 L307.4781,19.4123 L307.4721,19.4223 L307.4641,19.4383 L307.4591,19.4523 L307.4531,19.4673 L307.4491,19.4823 L307.4441,19.5023 L307.4391,19.5213 L307.4351,19.5463 L307.4351,19.5613 L307.4491,19.5763 L307.5101,19.6403 L307.5951,19.7203 L307.7091,19.8093 L307.8501,19.9133 L308.0121,20.0233 L308.2051,20.1363 L308.4181,20.2553 L308.6641,20.3793 L308.9321,20.5083 L309.2211,20.6363 L309.5381,20.7663 L309.8821,20.8953 L310.2461,21.0243 L310.6331,21.1533 L311.0441,21.2823 L311.4781,21.4053 L311.9371,21.5303 L312.4151,21.6533 L312.9201,21.7773 L313.4391,21.8963 L313.9881,22.0103 L314.5551,22.1243 L315.1501,22.2383 L315.3631,22.2783 L315.4711,22.2983 L315.5811,22.3183 L315.6841,22.3373 L315.8881,22.3773 L316.0861,22.4123 L316.1851,22.4313 L316.2741,22.4523 L316.3731,22.4673 L316.4691,22.4863 L316.5581,22.5063 L316.6471,22.5213 L316.7421,22.5403 L316.8271,22.5563 L316.9081,22.5753 L316.9881,22.5903 L317.0781,22.6053 L317.2331,22.6403 L317.3141,22.6553 L317.3951,22.6703 L317.4651,22.6843 L317.5401,22.7003 L317.6161,22.7143 L317.6821,22.7293 L317.7531,22.7443 L317.8151,22.7593 L317.8521,22.7643 L317.9621,22.7793 L318.0751,22.7943 L318.1691,22.8143 L318.2681,22.8283 L318.3721,22.8483 L318.4711,22.8633 L319.1421,22.9973 Z M288.3041,36.5163 L300.2681,36.5163 L300.1871,36.4873 L299.6871,36.3183 L299.1951,36.1443 L298.7181,35.9663 L298.2451,35.7823 L297.7871,35.5993 L297.3391,35.4103 L296.9041,35.2173 L296.4741,35.0193 L296.0581,34.8153 L295.6521,34.6083 L295.2511,34.3993 L294.8631,34.1813 L294.4851,33.9633 L294.1211,33.7353 L293.7621,33.5023 L293.4171,33.2643 L293.0761,33.0213 L292.7511,32.7683 L292.4351,32.5153 L292.1321,32.2533 L291.8341,31.9803 L291.5421,31.7023 L291.2631,31.4143 L290.9881,31.1223 L290.7291,30.8243 L290.4741,30.5183 L290.2321,30.2013 L289.9961,29.8783 L289.7751,29.5503 L289.5621,29.2133 L289.3591,28.8713 L289.1641,28.5203 L288.9861,28.1683 L288.8111,27.8063 L288.6491,27.4393 L288.5031,27.0673 L288.3621,26.6903 L288.3041,26.5173 L288.3041,36.5163 Z M217.8051,42.3263 L217.8051,22.6843 L217.8051,19.8743 L187.8801,19.8743 L187.8801,22.6843 L217.3191,22.6843 L217.3191,39.8633 L187.8801,39.8633 L187.8801,42.3263 L217.8051,42.3263 Z" id="Fill-87" fill="#054A8A" mask="url(#mask-2)"></path>
            <path d="M147.3846,64.5171 C148.0696,64.5171 148.6356,64.6511 149.0806,64.9231 C149.5296,65.1961 149.8406,65.5581 150.0206,66.0091 C150.2006,66.4601 150.2906,67.0951 150.2906,67.9131 L150.2906,69.0291 L147.1246,69.0291 L147.1246,70.8531 C147.1246,71.2351 147.1536,71.4771 147.2006,71.5861 C147.2576,71.6951 147.3566,71.7501 147.5076,71.7501 C147.6916,71.7501 147.8146,71.6801 147.8766,71.5321 C147.9426,71.3881 147.9706,71.1051 147.9706,70.6851 L147.9706,69.5741 L150.2906,69.5741 L150.2906,70.1991 C150.2906,70.7181 150.2576,71.1151 150.1966,71.3981 C150.1346,71.6761 149.9876,71.9731 149.7566,72.2911 C149.5246,72.6081 149.2366,72.8461 148.8816,73.0041 C148.5286,73.1621 148.0886,73.2421 147.5546,73.2421 C147.0396,73.2421 146.5806,73.1621 146.1846,73.0091 C145.7926,72.8511 145.4846,72.6381 145.2626,72.3651 C145.0456,72.0921 144.8906,71.7891 144.8046,71.4631 C144.7246,71.1351 144.6826,70.6601 144.6826,70.0291 L144.6826,67.5761 C144.6826,66.8381 144.7766,66.2581 144.9666,65.8311 C145.1546,65.4091 145.4666,65.0831 145.8956,64.8541 C146.3316,64.6261 146.8226,64.5171 147.3846,64.5171 L147.3846,64.5171 Z M147.8386,67.6551 L147.8386,67.0401 C147.8386,66.6041 147.8146,66.3271 147.7726,66.1971 C147.7246,66.0691 147.6356,66.0051 147.4986,66.0051 C147.3316,66.0051 147.2246,66.0591 147.1856,66.1681 C147.1436,66.2771 147.1246,66.5691 147.1246,67.0401 L147.1246,67.6551 L147.8386,67.6551 Z" id="Fill-88" fill="#FFFFFE" mask="url(#mask-2)"></path>
            <path d="M140.7467,70.6343 C140.9117,70.6343 141.0157,70.5663 141.0637,70.4313 C141.1097,70.2973 141.1397,69.9903 141.1397,69.5143 L141.1397,66.9013 C141.1397,66.5203 141.1147,66.2713 141.0727,66.1673 C141.0297,66.0593 140.9357,66.0043 140.7947,66.0043 C140.6527,66.0043 140.5487,66.0683 140.4917,66.1873 C140.4347,66.3113 140.4017,66.5443 140.4017,66.9013 L140.4017,69.7313 C140.4017,70.1093 140.4247,70.3563 140.4727,70.4663 C140.5157,70.5803 140.6097,70.6343 140.7467,70.6343 M141.1397,65.3013 L141.3137,64.6663 L143.5857,64.6663 L143.5857,71.1563 C143.5857,72.0333 143.5677,72.5973 143.5297,72.8503 C143.4917,73.1093 143.3547,73.3803 143.1237,73.6633 C142.8867,73.9513 142.5607,74.1693 142.1457,74.3183 C141.7287,74.4723 141.2007,74.5453 140.5667,74.5453 C139.7927,74.5453 139.1637,74.4063 138.6917,74.1303 C138.2187,73.8523 137.9787,73.3063 137.9587,72.4933 L140.3307,72.4933 C140.3307,72.8653 140.4627,73.0543 140.7187,73.0543 C140.9077,73.0543 141.0257,72.9933 141.0867,72.8803 C141.1477,72.7663 141.1757,72.5283 141.1757,72.1663 L141.1757,71.5263 C140.9687,71.7303 140.7467,71.8793 140.5157,71.9783 C140.2827,72.0823 140.0427,72.1313 139.7877,72.1313 C139.3477,72.1313 138.9837,72.0423 138.7007,71.8543 C138.4177,71.6653 138.2237,71.4223 138.1197,71.1203 C138.0117,70.8183 137.9587,70.3873 137.9587,69.8263 L137.9587,66.7683 C137.9587,65.9693 138.0957,65.3933 138.3697,65.0423 C138.6487,64.6913 139.0647,64.5163 139.6227,64.5163 C139.9297,64.5163 140.2087,64.5813 140.4627,64.7093 C140.7137,64.8443 140.9397,65.0373 141.1397,65.3013" id="Fill-89" fill="#FFFFFE" mask="url(#mask-2)"></path>
            <path d="M137.1939,64.5171 L137.1939,67.4811 C136.7449,67.4811 136.4189,67.5411 136.2059,67.6701 C135.9979,67.7981 135.8659,67.9721 135.8189,68.2011 C135.7719,68.4281 135.7479,68.9491 135.7479,69.7671 L135.7479,73.0941 L133.3059,73.0941 L133.3059,64.6651 L135.7479,64.6651 L135.6539,65.7711 C136.0089,64.9841 136.5229,64.5621 137.1939,64.5171" id="Fill-90" fill="#FFFFFE" mask="url(#mask-2)"></path>
            <path d="M138.8994,27.1914 L134.9354,36.8534 L145.0834,30.8304 L138.8994,27.1914 Z M147.4744,30.8254 L134.5294,38.5094 L140.5104,49.5744 L153.4514,41.7314 L153.4514,57.4124 L165.1064,57.4124 L165.1064,41.7314 L171.1634,45.4294 L170.5914,46.4614 L166.2784,43.8544 L166.2784,58.6424 L152.2794,58.6424 L152.2794,43.8634 L140.0714,51.2604 L133.7964,39.6394 L125.9534,58.7454 L107.0554,58.7454 L88.5774,11.8684 L75.7374,58.7454 L55.7604,58.7454 L47.4174,26.4384 L37.9634,58.7454 L18.4604,58.7454 L3.5214,3.9454 L21.1524,3.9454 L29.4304,37.2304 L39.3804,3.9454 L57.3914,3.9454 L66.1734,37.7804 L74.5404,3.9454 L104.0124,3.9454 L117.3364,39.9124 L131.1124,3.9454 L148.4384,3.9454 L144.4454,13.6774 L152.2794,18.4214 L151.6934,19.4824 L140.5104,12.7104 L134.6804,23.2994 L147.4744,30.8254 Z" id="Fill-91" fill="#054A8A" mask="url(#mask-2)"></path>
            <path d="M138.8994,27.1914 L134.9354,36.8534 L145.0834,30.8304 L138.8994,27.1914 Z M147.4744,30.8254 L134.5294,38.5094 L140.5104,49.5744 L153.4514,41.7314 L153.4514,57.4124 L165.1064,57.4124 L165.1064,41.7314 L171.1634,45.4294 L170.5914,46.4614 L166.2784,43.8544 L166.2784,58.6424 L152.2794,58.6424 L152.2794,43.8634 L140.0714,51.2604 L133.7964,39.6394 L125.9534,58.7454 L107.0554,58.7454 L88.5774,11.8684 L75.7374,58.7454 L55.7604,58.7454 L47.4174,26.4384 L37.9634,58.7454 L18.4604,58.7454 L3.5214,3.9454 L21.1524,3.9454 L29.4304,37.2304 L39.3804,3.9454 L57.3914,3.9454 L66.1734,37.7804 L74.5404,3.9454 L104.0124,3.9454 L117.3364,39.9124 L131.1124,3.9454 L148.4384,3.9454 L144.4454,13.6774 L152.2794,18.4214 L151.6934,19.4824 L140.5104,12.7104 L134.6804,23.2994 L147.4744,30.8254 Z" id="Stroke-92" stroke="#FFFFFE" stroke-width="0.486" mask="url(#mask-2)"></path>
            <path d="M129.3036,64.5171 C129.9886,64.5171 130.5556,64.6511 130.9996,64.9231 C131.4486,65.1961 131.7596,65.5581 131.9396,66.0091 C132.1196,66.4601 132.2096,67.0951 132.2096,67.9131 L132.2096,69.0291 L129.0436,69.0291 L129.0436,70.8531 C129.0436,71.2351 129.0726,71.4771 129.1236,71.5861 C129.1766,71.6951 129.2806,71.7501 129.4266,71.7501 C129.6106,71.7501 129.7376,71.6801 129.7996,71.5321 C129.8616,71.3881 129.8946,71.1051 129.8946,70.6851 L129.8946,69.5741 L132.2096,69.5741 L132.2096,70.1991 C132.2096,70.7181 132.1766,71.1151 132.1156,71.3981 C132.0536,71.6761 131.9066,71.9731 131.6756,72.2911 C131.4446,72.6081 131.1556,72.8461 130.8006,73.0041 C130.4516,73.1621 130.0076,73.2421 129.4736,73.2421 C128.9596,73.2421 128.5046,73.1621 128.1086,73.0091 C127.7116,72.8511 127.4046,72.6381 127.1876,72.3651 C126.9646,72.0921 126.8146,71.7891 126.7286,71.4631 C126.6436,71.1351 126.6016,70.6601 126.6016,70.0291 L126.6016,67.5761 C126.6016,66.8381 126.6956,66.2581 126.8856,65.8311 C127.0736,65.4091 127.3856,65.0831 127.8196,64.8541 C128.2506,64.6261 128.7456,64.5171 129.3036,64.5171 L129.3036,64.5171 Z M129.7576,67.6551 L129.7576,67.0401 C129.7576,66.6041 129.7376,66.3271 129.6916,66.1971 C129.6486,66.0691 129.5586,66.0051 129.4216,66.0051 C129.2526,66.0051 129.1486,66.0591 129.1056,66.1681 C129.0676,66.2771 129.0436,66.5691 129.0436,67.0401 L129.0436,67.6551 L129.7576,67.6551 Z" id="Fill-93" fill="#FFFFFE" mask="url(#mask-2)"></path>
            <path d="M122.7742,66.0045 C122.6852,66.0045 122.6142,66.0295 122.5572,66.0685 L122.3102,65.4685 C122.5192,65.1515 122.7512,64.9135 123.0052,64.7545 C123.2662,64.5965 123.5532,64.5165 123.8652,64.5165 C124.2812,64.5165 124.6262,64.6215 124.9002,64.8295 C125.1692,65.0425 125.3442,65.3055 125.4202,65.6085 C125.4952,65.9155 125.5372,66.4155 125.5372,67.1055 L125.5372,73.0935 L123.1672,73.0935 L123.1672,67.6005 C123.1672,66.8825 123.1432,66.4355 123.0962,66.2615 C123.0482,66.0935 122.9392,66.0045 122.7742,66.0045" id="Fill-94" fill="#FFFFFE" mask="url(#mask-2)"></path>
            <path d="M122.4343,66.2621 C122.3863,66.4301 122.3633,66.8771 122.3633,67.6011 L122.3633,73.0931 L119.9873,73.0931 L119.9873,67.7391 C119.9873,66.9111 119.9673,66.4201 119.9293,66.2571 C119.8923,66.0881 119.7883,66.0041 119.6133,66.0041 C119.5563,66.0041 119.5093,66.0141 119.4623,66.0381 L119.1983,65.4691 C119.3873,65.1511 119.6133,64.9131 119.8733,64.7551 C120.1333,64.5961 120.4353,64.5171 120.7713,64.5171 C121.4233,64.5171 121.9383,64.8291 122.3113,65.4691 L122.5563,66.0681 C122.5003,66.1131 122.4573,66.1771 122.4343,66.2621" id="Fill-95" fill="#FFFFFE" mask="url(#mask-2)"></path>
            <path d="M119.3348,66.1381 C119.2588,66.2271 119.2168,66.3271 119.2078,66.4551 C119.1978,66.5801 119.1978,66.8471 119.1978,67.2531 L119.1978,73.0941 L116.8258,73.0941 L116.8258,64.6661 L119.2408,64.6661 L119.1978,65.4681 L119.4618,66.0391 C119.4158,66.0581 119.3728,66.0931 119.3348,66.1381" id="Fill-96" fill="#FFFFFE" mask="url(#mask-2)"></path>
            <polygon id="Fill-97" fill="#FFFFFE" mask="url(#mask-2)" points="115.8718 71.0363 115.8718 73.0933 111.4548 73.0933 111.4548 62.8163 115.7018 62.8163 115.7018 64.8693 114.0008 64.8693 114.0008 66.8173 115.5928 66.8173 115.5928 68.7763 114.0008 68.7763 114.0008 71.0363"></polygon>
            <path d="M104.9248,71.5618 C104.9758,71.6908 105.0848,71.7508 105.2458,71.7508 C105.4018,71.7508 105.4968,71.7008 105.5488,71.6018 C105.5908,71.5018 105.6148,71.2398 105.6148,70.8178 L105.6148,69.0828 C105.2218,69.3848 104.9958,69.6388 104.9348,69.8418 C104.8718,70.0448 104.8438,70.3378 104.8438,70.7188 C104.8438,71.1508 104.8688,71.4328 104.9248,71.5618 M105.1048,73.0198 C104.8688,73.1678 104.5898,73.2418 104.2578,73.2418 C103.8338,73.2418 103.4408,73.1188 103.0818,72.8658 C102.7278,72.6138 102.5478,72.0618 102.5478,71.2148 L102.5478,70.5208 C102.5478,69.8918 102.6428,69.4608 102.8318,69.2318 C103.0208,69.0038 103.4928,68.7358 104.2448,68.4338 C105.0428,68.1018 105.4728,67.8778 105.5298,67.7638 C105.5858,67.6508 105.6148,67.4178 105.6148,67.0708 C105.6148,66.6288 105.5818,66.3418 105.5198,66.2068 C105.4588,66.0738 105.3538,66.0048 105.2078,66.0048 C105.0428,66.0048 104.9398,66.0638 104.9018,66.1718 C104.8588,66.2868 104.8438,66.5798 104.8438,67.0498 L104.8438,67.9278 L102.5478,67.9278 L102.5478,67.3628 C102.5478,66.7128 102.6188,66.2118 102.7608,65.8598 C102.9078,65.5038 103.1958,65.1908 103.6258,64.9188 C104.0548,64.6508 104.6178,64.5168 105.3078,64.5168 C106.1348,64.5168 106.7578,64.6708 107.1738,64.9738 C107.5988,65.2808 107.8498,65.6578 107.9348,66.1028 C108.0198,66.5548 108.0568,67.4718 108.0568,68.8648 L108.0568,73.0938 L105.6808,73.0938 L105.6808,72.3398 C105.5338,72.6428 105.3408,72.8708 105.1048,73.0198" id="Fill-98" fill="#FFFFFE" mask="url(#mask-2)"></path>
            <polygon id="Fill-99" fill="#FFFFFE" mask="url(#mask-2)" points="98.967 73.094 101.485 73.094 101.485 64.666 98.967 64.666"></polygon>
            <polygon id="Fill-100" fill="#FFFFFE" mask="url(#mask-2)" points="98.967 64.154 101.485 64.154 101.485 62.817 98.967 62.817"></polygon>
            <path d="M95.0267,66.0045 C94.9427,66.0045 94.8667,66.0235 94.8137,66.0585 L94.6337,65.4435 C94.8097,65.1315 95.0267,64.8975 95.2817,64.7445 C95.5417,64.5915 95.8337,64.5165 96.1707,64.5165 C96.5907,64.5165 96.9347,64.6215 97.2007,64.8295 C97.4647,65.0325 97.6397,65.2945 97.7147,65.6085 C97.7897,65.9245 97.8277,66.4495 97.8277,67.1885 L97.8277,73.0935 L95.3867,73.0935 L95.3867,67.2585 C95.3867,66.6785 95.3667,66.3265 95.3287,66.1975 C95.2957,66.0685 95.1917,66.0045 95.0267,66.0045" id="Fill-101" fill="#FFFFFE" mask="url(#mask-2)"></path>
            <path d="M94.7008,66.2269 C94.6528,66.3709 94.6348,66.7629 94.6348,67.3969 L94.6348,73.0939 L92.1918,73.0939 L92.1918,64.6649 L94.6778,64.6649 L94.6348,65.4439 L94.8148,66.0599 C94.7618,66.0979 94.7238,66.1539 94.7008,66.2269" id="Fill-102" fill="#FFFFFE" mask="url(#mask-2)"></path>
            <polygon id="Fill-103" fill="#FFFFFE" mask="url(#mask-2)" points="88.498 73.094 91.016 73.094 91.016 64.666 88.498 64.666"></polygon>
            <polygon id="Fill-104" fill="#FFFFFE" mask="url(#mask-2)" points="88.498 64.154 91.016 64.154 91.016 62.817 88.498 62.817"></polygon>
            <path d="M84.4958,70.6343 C84.6558,70.6343 84.7598,70.5663 84.8128,70.4313 C84.8588,70.2973 84.8838,69.9903 84.8838,69.5143 L84.8838,66.9013 C84.8838,66.5203 84.8588,66.2713 84.8168,66.1673 C84.7788,66.0593 84.6798,66.0043 84.5388,66.0043 C84.3958,66.0043 84.2968,66.0683 84.2358,66.1873 C84.1788,66.3113 84.1508,66.5443 84.1508,66.9013 L84.1508,69.7313 C84.1508,70.1093 84.1698,70.3563 84.2168,70.4663 C84.2598,70.5803 84.3538,70.6343 84.4958,70.6343 M84.8838,65.3013 L85.0578,64.6663 L87.3298,64.6663 L87.3298,71.1563 C87.3298,72.0333 87.3118,72.5973 87.2738,72.8503 C87.2358,73.1093 87.0988,73.3803 86.8678,73.6633 C86.6318,73.9513 86.3058,74.1693 85.8898,74.3183 C85.4738,74.4723 84.9448,74.5453 84.3118,74.5453 C83.5368,74.5453 82.9078,74.4063 82.4348,74.1303 C81.9678,73.8523 81.7218,73.3063 81.7078,72.4933 L84.0748,72.4933 C84.0748,72.8653 84.2068,73.0543 84.4678,73.0543 C84.6508,73.0543 84.7748,72.9933 84.8308,72.8803 C84.8918,72.7663 84.9248,72.5283 84.9248,72.1663 L84.9248,71.5263 C84.7128,71.7303 84.4958,71.8793 84.2648,71.9783 C84.0278,72.0823 83.7878,72.1313 83.5318,72.1313 C83.0928,72.1313 82.7288,72.0423 82.4498,71.8543 C82.1618,71.6653 81.9678,71.4223 81.8638,71.1203 C81.7608,70.8183 81.7078,70.3873 81.7078,69.8263 L81.7078,66.7683 C81.7078,65.9693 81.8408,65.3933 82.1188,65.0423 C82.3928,64.6913 82.8088,64.5163 83.3668,64.5163 C83.6788,64.5163 83.9568,64.5813 84.2068,64.7093 C84.4578,64.8443 84.6848,65.0373 84.8838,65.3013" id="Fill-105" fill="#FFFFFE" mask="url(#mask-2)"></path>
            <path d="M80.938,64.5171 L80.938,67.4811 C80.489,67.4811 80.164,67.5411 79.95,67.6701 C79.743,67.7981 79.615,67.9721 79.568,68.2011 C79.516,68.4281 79.492,68.9491 79.492,69.7671 L79.492,73.0941 L77.05,73.0941 L77.05,64.6651 L79.492,64.6651 L79.398,65.7711 C79.753,64.9841 80.267,64.5621 80.938,64.5171" id="Fill-106" fill="#FFFFFE" mask="url(#mask-2)"></path>
            <polygon id="Fill-107" fill="#FFFFFE" mask="url(#mask-2)" points="73.359 73.094 75.873 73.094 75.873 64.666 73.359 64.666"></polygon>
            <polygon id="Fill-108" fill="#FFFFFE" mask="url(#mask-2)" points="73.359 64.154 75.873 64.154 75.873 62.817 73.359 62.817"></polygon>
            <path d="M72.6984,62.8162 L71.4034,73.0942 L67.5394,73.0942 L66.0694,62.8162 L68.7534,62.8162 C69.0654,65.6422 69.2824,68.0362 69.4194,69.9952 C69.5524,68.0172 69.6934,66.2622 69.8364,64.7252 L70.0104,62.8162 L72.6984,62.8162 Z" id="Fill-109" fill="#FFFFFE" mask="url(#mask-2)"></path>
            <path d="M60.4522,66.0045 C60.3672,66.0045 60.2912,66.0235 60.2392,66.0585 L60.0592,65.4435 C60.2352,65.1315 60.4522,64.8975 60.7072,64.7445 C60.9672,64.5915 61.2592,64.5165 61.5962,64.5165 C62.0152,64.5165 62.3562,64.6215 62.6262,64.8295 C62.8902,65.0325 63.0602,65.2945 63.1402,65.6085 C63.2152,65.9245 63.2532,66.4495 63.2532,67.1885 L63.2532,73.0935 L60.8122,73.0935 L60.8122,67.2585 C60.8122,66.6785 60.7922,66.3265 60.7542,66.1975 C60.7162,66.0685 60.6182,66.0045 60.4522,66.0045" id="Fill-110" fill="#FFFFFE" mask="url(#mask-2)"></path>
            <path d="M60.1263,66.2269 C60.0783,66.3709 60.0603,66.7629 60.0603,67.3969 L60.0603,73.0939 L57.6123,73.0939 L57.6123,64.6649 L60.1033,64.6649 L60.0603,65.4439 L60.2403,66.0599 C60.1873,66.0979 60.1493,66.1539 60.1263,66.2269" id="Fill-111" fill="#FFFFFE" mask="url(#mask-2)"></path>
            <path d="M56.7766,64.5171 L56.7766,67.4811 C56.3276,67.4811 55.9976,67.5411 55.7886,67.6701 C55.5806,67.7981 55.4486,67.9721 55.4016,68.2011 C55.3546,68.4281 55.3306,68.9491 55.3306,69.7671 L55.3306,73.0941 L52.8836,73.0941 L52.8836,64.6651 L55.3306,64.6651 L55.2316,65.7711 C55.5866,64.9841 56.1016,64.5621 56.7766,64.5171" id="Fill-112" fill="#FFFFFE" mask="url(#mask-2)"></path>
            <path d="M48.8866,64.5171 C49.5716,64.5171 50.1376,64.6511 50.5816,64.9231 C51.0306,65.1961 51.3426,65.5581 51.5226,66.0091 C51.7026,66.4601 51.7916,67.0951 51.7916,67.9131 L51.7916,69.0291 L48.6266,69.0291 L48.6266,70.8531 C48.6266,71.2351 48.6556,71.4771 48.7016,71.5861 C48.7596,71.6951 48.8586,71.7501 49.0086,71.7501 C49.1936,71.7501 49.3156,71.6801 49.3786,71.5321 C49.4396,71.3881 49.4726,71.1051 49.4726,70.6851 L49.4726,69.5741 L51.7916,69.5741 L51.7916,70.1991 C51.7916,70.7181 51.7586,71.1151 51.6976,71.3981 C51.6366,71.6761 51.4896,71.9731 51.2586,72.2911 C51.0276,72.6081 50.7386,72.8461 50.3836,73.0041 C50.0306,73.1621 49.5906,73.2421 49.0566,73.2421 C48.5366,73.2421 48.0846,73.1621 47.6866,73.0091 C47.2946,72.8511 46.9876,72.6381 46.7646,72.3651 C46.5476,72.0921 46.3916,71.7891 46.3066,71.4631 C46.2266,71.1351 46.1846,70.6601 46.1846,70.0291 L46.1846,67.5761 C46.1846,66.8381 46.2786,66.2581 46.4686,65.8311 C46.6566,65.4091 46.9686,65.0831 47.3986,64.8541 C47.8336,64.6261 48.3246,64.5171 48.8866,64.5171 L48.8866,64.5171 Z M49.3406,67.6551 L49.3406,67.0401 C49.3406,66.6041 49.3156,66.3271 49.2746,66.1971 C49.2266,66.0691 49.1366,66.0051 49.0006,66.0051 C48.8356,66.0051 48.7256,66.0591 48.6886,66.1681 C48.6456,66.2771 48.6266,66.5691 48.6266,67.0401 L48.6266,67.6551 L49.3406,67.6551 Z" id="Fill-113" fill="#FFFFFE" mask="url(#mask-2)"></path>
            <path d="M44.7619,64.8689 L45.4189,64.8689 L45.4189,66.2019 L44.7619,66.2019 L44.7619,70.7089 C44.7619,71.2639 44.7899,71.5759 44.8429,71.6359 C44.8989,71.6999 45.1249,71.7349 45.5229,71.7349 L45.5229,73.0939 L44.5399,73.0939 C43.9829,73.0939 43.5849,73.0679 43.3449,73.0189 C43.1079,72.9699 42.8999,72.8559 42.7159,72.6819 C42.5369,72.5089 42.4229,72.3059 42.3769,72.0769 C42.3329,71.8539 42.3099,71.3189 42.3099,70.4799 L42.3099,66.2019 L41.7849,66.2019 L41.7849,64.8689 L42.3099,64.8689 L42.3099,63.5459 L44.7619,63.5459 L44.7619,64.8689 Z" id="Fill-114" fill="#FFFFFE" mask="url(#mask-2)"></path>
            <path d="M38.5113,71.7502 C38.6863,71.7502 38.8083,71.7052 38.8743,71.6162 C38.9403,71.5262 38.9783,71.3332 38.9783,71.0402 C38.9783,70.6392 38.9373,70.3872 38.8463,70.2872 C38.7523,70.1842 38.2803,69.8862 37.4253,69.3852 C36.7063,68.9642 36.2673,68.5772 36.1113,68.2302 C35.9553,67.8882 35.8753,67.4762 35.8753,67.0012 C35.8753,66.3312 35.9603,65.8352 36.1303,65.5132 C36.3003,65.1962 36.5833,64.9472 36.9893,64.7742 C37.3963,64.6002 37.8693,64.5172 38.4023,64.5172 C38.9373,64.5172 39.3893,64.5862 39.7593,64.7302 C40.1363,64.8682 40.4193,65.0572 40.6183,65.2902 C40.8223,65.5232 40.9443,65.7362 40.9823,65.9352 C41.0253,66.1382 41.0493,66.4502 41.0493,66.8722 L41.0493,67.3582 L38.8793,67.3582 L38.8793,66.9012 C38.8793,66.5152 38.8613,66.2662 38.8183,66.1632 C38.7753,66.0592 38.6723,66.0042 38.5013,66.0042 C38.3643,66.0042 38.2603,66.0532 38.1893,66.1472 C38.1233,66.2412 38.0853,66.3862 38.0853,66.5792 C38.0853,66.8372 38.1053,67.0262 38.1383,67.1442 C38.1763,67.2682 38.2803,67.3972 38.4503,67.5412 C38.6203,67.6902 38.9733,67.8982 39.5033,68.1712 C40.2163,68.5322 40.6803,68.8802 40.9013,69.2022 C41.1243,69.5232 41.2373,69.9902 41.2373,70.6042 C41.2373,71.2892 41.1523,71.8042 40.9823,72.1562 C40.8123,72.5022 40.5283,72.7712 40.1323,72.9592 C39.7343,73.1482 39.2523,73.2422 38.6953,73.2422 C38.0723,73.2422 37.5423,73.1432 37.0983,72.9392 C36.6593,72.7362 36.3523,72.4592 36.1873,72.1122 C36.0213,71.7692 35.9413,71.2392 35.9413,70.5402 L35.9413,70.1342 L38.1053,70.1342 L38.1053,70.6652 C38.1053,71.1202 38.1333,71.4122 38.1893,71.5472 C38.2423,71.6862 38.3503,71.7502 38.5113,71.7502" id="Fill-115" fill="#FFFFFE" mask="url(#mask-2)"></path>
            <path d="M32.0573,64.5171 C32.7423,64.5171 33.3093,64.6511 33.7533,64.9231 C34.2023,65.1961 34.5133,65.5581 34.6933,66.0091 C34.8733,66.4601 34.9633,67.0951 34.9633,67.9131 L34.9633,69.0291 L31.7973,69.0291 L31.7973,70.8531 C31.7973,71.2351 31.8263,71.4771 31.8773,71.5861 C31.9303,71.6951 32.0293,71.7501 32.1803,71.7501 C32.3643,71.7501 32.4873,71.6801 32.5493,71.5321 C32.6153,71.3881 32.6483,71.1051 32.6483,70.6851 L32.6483,69.5741 L34.9633,69.5741 L34.9633,70.1991 C34.9633,70.7181 34.9303,71.1151 34.8693,71.3981 C34.8073,71.6761 34.6603,71.9731 34.4293,72.2911 C34.1973,72.6081 33.9093,72.8461 33.5543,73.0041 C33.2053,73.1621 32.7613,73.2421 32.2273,73.2421 C31.7123,73.2421 31.2533,73.1621 30.8623,73.0091 C30.4653,72.8511 30.1583,72.6381 29.9413,72.3651 C29.7183,72.0921 29.5633,71.7891 29.4823,71.4631 C29.3973,71.1351 29.3553,70.6601 29.3553,70.0291 L29.3553,67.5761 C29.3553,66.8381 29.4493,66.2581 29.6393,65.8311 C29.8273,65.4091 30.1393,65.0831 30.5683,64.8541 C31.0043,64.6261 31.4993,64.5171 32.0573,64.5171 L32.0573,64.5171 Z M32.5113,67.6551 L32.5113,67.0401 C32.5113,66.6041 32.4873,66.3271 32.4453,66.1971 C32.4023,66.0691 32.3083,66.0051 32.1713,66.0051 C32.0063,66.0051 31.8973,66.0591 31.8593,66.1681 C31.8163,66.2771 31.7973,66.5691 31.7973,67.0401 L31.7973,67.6551 L32.5113,67.6551 Z" id="Fill-116" fill="#FFFFFE" mask="url(#mask-2)"></path>
            <path d="M21.0776,62.8162 L21.3376,66.4012 L21.6026,69.8612 C21.6966,68.0712 21.9276,65.7222 22.3056,62.8162 L24.9566,62.8162 C24.9946,63.1132 25.0836,64.2442 25.2356,66.2022 L25.5136,70.1092 C25.6506,67.6252 25.8866,65.1922 26.2176,62.8162 L28.6936,62.8162 L27.5636,73.0942 L24.3796,73.0942 C24.0916,71.5112 23.8326,69.7182 23.6146,67.7092 C23.5106,68.5672 23.2746,70.3612 22.9056,73.0942 L19.7406,73.0942 L18.6016,62.8162 L21.0776,62.8162 Z" id="Fill-117" fill="#FFFFFE" mask="url(#mask-2)"></path>
        </g>
    </g>
</svg>