<?xml version="1.0" encoding="UTF-8"?>
<svg width="305px" height="66px" viewBox="0 0 305 66" version="1.1" xmlns="http://www.w3.org/2000/svg" xmlns:xlink="http://www.w3.org/1999/xlink">
    <!-- Generator: Sketch 64 (93537) - https://sketch.com -->
    <title>wvems_logo_light</title>
    <desc>Created with Sketch.</desc>
    <defs>
        <polygon id="path-1" points="0.76 67.252 307.076 67.252 307.076 0.734 0.76 0.734"></polygon>
    </defs>
    <g id="Page-2" stroke="none" stroke-width="1" fill="none" fill-rule="evenodd">
        <g id="Group-546" transform="translate(-3.000000, -2.000000)">
            <path d="M143.9398,14.0766 C144.2728,14.1896 144.8448,14.5376 145.1268,14.5376 C145.1268,12.9256 145.2758,13.1906 145.2758,13.1096 C145.2458,12.4336 146.6378,8.0766 146.5048,7.9196 C144.2468,8.2866 145.5538,11.7886 143.6458,9.7146 C142.8948,9.5896 144.7118,10.9056 143.9398,14.0766 M143.4958,14.4256 C140.9738,14.2506 139.9498,16.2076 139.9498,18.1116 L138.9338,18.1116 L138.9338,4.3146 L149.4618,4.3146 L149.4618,18.3356 L148.4298,18.3356 C148.4298,18.3126 148.4298,18.2906 148.4248,18.2676 C146.6378,18.7426 147.0248,18.4466 147.1958,17.8876 C147.0888,16.8936 145.6888,19.0926 144.9508,19.6246 C144.8868,18.9126 145.0578,18.9796 145.1128,17.7486 C144.8868,17.6366 144.2168,18.0576 143.7778,17.5926 L143.9008,17.2336 C144.6478,17.5116 144.9988,17.0186 146.2358,16.8796 C146.7568,17.0596 149.0698,16.3606 146.1038,15.2806 C144.8448,15.0566 144.3658,14.5116 143.4958,14.4256" id="Fill-448" fill="#FFFFFE"></path>
            <path d="M143.6839,45.7541 C143.6839,47.4911 143.8459,49.6551 144.3539,49.8201 C144.8999,49.9771 145.0449,46.9321 145.0449,46.1211 C144.5369,46.1081 144.0599,45.9501 143.6839,45.7541 L143.6839,45.7541 Z M143.9909,34.8371 C144.0289,34.9171 144.8869,35.5491 145.0319,35.7321 C145.0749,35.5491 144.9259,31.8491 144.9259,31.7511 C144.6439,31.6131 144.1919,31.4421 143.9099,31.2451 C143.9229,31.9481 143.8579,34.2191 143.9909,34.8371 L143.9909,34.8371 Z M143.6969,24.2641 C143.7519,24.8411 143.9229,26.9871 143.8719,28.0801 C143.8579,28.5271 144.6869,28.5401 145.2199,28.9481 C145.2579,28.9481 145.7659,27.3771 145.0749,27.7701 C144.9809,26.8431 145.0319,25.4871 145.0449,25.3161 C145.0749,25.2761 144.0459,24.6851 143.6969,24.2641 L143.6969,24.2641 Z M147.8109,45.5171 C146.5689,45.0421 144.7509,44.9971 143.4839,43.3991 C143.0439,43.1211 143.0829,42.5881 143.3509,42.4621 L143.3509,40.0351 C142.0789,40.2591 141.0799,42.1271 141.7209,43.6531 C142.2409,44.6751 143.5769,45.3771 145.6089,45.6871 C146.0909,45.7411 147.4269,45.8391 147.8109,45.5171 L147.8109,45.5171 Z M143.6149,27.8951 C143.6149,27.1661 143.5639,26.4671 143.4959,25.9211 C141.5339,26.4401 140.8379,28.2041 142.0789,29.7591 C142.8679,30.5731 144.9939,31.2451 145.2579,31.2451 C145.5149,31.2321 145.7529,31.7511 145.2759,31.8631 C145.3139,32.5801 145.3649,34.0081 145.3649,33.9681 C145.6899,33.8561 147.7849,33.0141 147.3029,30.9541 C146.9309,29.2971 144.3119,29.1861 143.6969,28.5681 C143.4959,28.5001 142.9759,28.2891 143.6149,27.8951 L143.6149,27.8951 Z M146.6369,38.1011 C145.9669,36.7261 144.4989,36.1801 143.5389,35.2841 C143.2959,35.0741 143.3079,34.8501 143.4959,34.6941 L143.4019,32.3561 C141.2389,32.9021 140.9449,34.8371 141.7209,35.8711 C142.8679,37.4021 145.0319,38.5621 145.1689,39.0281 C145.3649,39.6731 145.4079,40.5281 145.3389,41.0301 C146.6239,40.7921 147.0639,39.2511 146.6369,38.1011 L146.6369,38.1011 Z M143.5809,38.4421 C143.6499,38.6251 143.7389,42.4851 143.6449,42.9781 C143.6839,43.3591 144.7129,43.9621 144.9509,44.1151 C145.1519,42.6151 144.8749,41.1411 144.8449,39.4491 C144.4729,38.9571 143.9439,38.5981 143.5809,38.4421 L143.5809,38.4421 Z M139.9499,18.1111 C139.9499,19.0061 140.1759,19.8941 140.5849,20.5381 C140.9859,21.4601 142.6169,22.6111 143.3639,23.3101 C143.9909,23.9011 144.9509,24.6851 145.7279,25.2311 C145.9669,25.3741 145.7409,25.7641 145.2759,25.5671 C145.2759,26.2701 145.3819,26.7041 145.3819,27.3891 C147.1319,27.2641 147.7169,26.6191 147.8789,25.7111 C148.2539,23.5651 145.1259,22.2171 143.5089,20.9731 C141.0379,19.0781 141.6139,16.2041 143.3639,16.9471 C143.5689,17.0861 143.7439,17.1751 143.9019,17.2331 L143.7779,17.5911 C143.8029,19.0781 144.0169,19.1051 143.9789,19.5981 C143.9399,20.1841 143.9529,20.0451 143.9399,20.5521 C144.1099,20.9151 144.7809,21.4071 144.9509,21.5331 C144.9939,20.9861 145.0589,21.1701 145.2079,20.8871 C146.0519,19.4141 148.4289,19.1501 148.4289,18.3351 L149.4619,18.3351 L149.4619,18.3391 L160.9289,11.3541 L166.4179,20.9641 L154.7279,28.0481 L166.5229,35.2391 L161.3939,44.9031 L154.9329,40.9541 L149.4619,37.6131 L149.4619,51.7771 L138.9339,51.7771 L138.9339,37.6131 L127.2449,44.6971 L121.8429,34.7021 L133.5359,27.7611 L121.9789,20.9641 L127.2449,11.3991 L137.3469,17.5161 L138.9339,18.4781 L138.9339,18.1111 L139.9499,18.1111 Z" id="Fill-450" fill="#FFFFFE"></path>
            <polygon id="Fill-452" fill="#FFFFFE" points="167.9706 34.8411 156.8366 28.0531 167.8606 21.3711 168.6786 21.3711 168.6786 21.8271 195.2696 21.8271 195.2696 31.1741 193.5376 31.7241 190.3926 34.2001 189.5176 34.5051 168.6786 34.5051 168.6786 39.1811 166.9966 39.3591 165.6186 39.1221"></polygon>
            <polygon id="Fill-454" fill="#FFFFFE" points="196.5334 4.6279 196.5334 16.4509 168.6794 16.4509 168.6794 21.3709 167.8594 21.3709 161.2274 9.8939 155.7694 13.2039 155.7694 4.6279"></polygon>
            <polygon id="Fill-456" fill="#FFFFFE" points="219.9409 4.6638 224.7549 17.1448 221.4509 17.4928 216.3439 20.7928 212.8949 23.7798 211.8069 20.6368 211.8069 24.7218 204.5439 28.4248 200.0249 29.6648 198.4159 30.1748 198.4159 4.6638"></polygon>
            <mask id="mask-2" fill="white">
                <use xlink:href="#path-1"></use>
            </mask>
            <g id="Clip-459"></g>
            <polygon id="Fill-458" fill="#054A8A" mask="url(#mask-2)" points="297.768 65.941 299.437 65.941 299.437 64.047 297.768 64.047"></polygon>
            <path d="M297.0436,61.2034 L294.9606,61.2034 L294.9606,60.3254 C294.9606,60.0204 294.9356,59.8144 294.8886,59.7034 C294.8406,59.5954 294.7556,59.5364 294.6276,59.5364 C294.4996,59.5364 294.4146,59.5864 294.3716,59.6854 C294.3246,59.7794 294.3036,59.9944 294.3036,60.3254 L294.3036,63.9174 C294.3036,64.1854 294.3376,64.3874 294.4016,64.5254 C294.4656,64.6614 294.5636,64.7274 294.6916,64.7274 C294.8406,64.7274 294.9436,64.6614 294.9946,64.5164 C295.0466,64.3734 295.0716,64.1054 295.0716,63.7154 L295.0716,62.8064 L297.0436,62.8064 C297.0386,63.4154 297.0176,63.8724 296.9786,64.1774 C296.9406,64.4804 296.8216,64.7894 296.6126,65.1124 C296.4076,65.4304 296.1386,65.6724 295.8056,65.8334 C295.4726,65.9954 295.0676,66.0754 294.5766,66.0754 C293.9536,66.0754 293.4586,65.9634 293.0956,65.7394 C292.7326,65.5204 292.4726,65.2064 292.3236,64.7994 C292.1696,64.3964 292.0966,63.8274 292.0966,63.0844 L292.0966,60.9214 C292.0966,60.2764 292.1576,59.7884 292.2806,59.4564 C292.4046,59.1294 292.6686,58.8384 293.0746,58.5784 C293.4796,58.3234 293.9706,58.1944 294.5516,58.1944 C295.1276,58.1944 295.6176,58.3184 296.0226,58.5744 C296.4336,58.8344 296.7026,59.1574 296.8386,59.5464 C296.9746,59.9354 297.0436,60.4864 297.0436,61.2034" id="Fill-460" fill="#054A8A" mask="url(#mask-2)"></path>
            <path d="M288.2476,59.0314 C288.4106,58.7494 288.6026,58.5384 288.8366,58.4004 C289.0676,58.2614 289.3366,58.1944 289.6386,58.1944 C290.0146,58.1944 290.3266,58.2874 290.5646,58.4754 C290.8086,58.6604 290.9616,58.8974 291.0296,59.1794 C291.0986,59.4664 291.1326,59.9404 291.1326,60.6074 L291.1326,65.9404 L288.9266,65.9404 L288.9266,60.6704 C288.9266,60.1464 288.9096,59.8284 288.8756,59.7124 C288.8456,59.5954 288.7516,59.5374 288.6026,59.5374 C288.5636,59.5374 288.5296,59.5424 288.4956,59.5514 L288.2476,59.0314 Z" id="Fill-461" fill="#054A8A" mask="url(#mask-2)"></path>
            <path d="M288.3074,59.7387 C288.2694,59.8687 288.2474,60.2227 288.2474,60.7957 L288.2474,65.9417 L286.0414,65.9417 L286.0414,58.3277 L288.2864,58.3277 L288.2474,59.0317 L288.4954,59.5507 C288.4014,59.5737 288.3414,59.6407 288.3074,59.7387" id="Fill-462" fill="#054A8A" mask="url(#mask-2)"></path>
            <polygon id="Fill-463" fill="#054A8A" mask="url(#mask-2)" points="282.614 65.941 284.914 65.941 284.914 56.658 282.614 56.658"></polygon>
            <path d="M279.5636,66.026 C279.4646,66.303 279.2946,66.542 279.0516,66.734 C278.8126,66.931 278.5396,67.06 278.2316,67.123 L278.2316,66.461 C278.4496,66.331 278.5736,66.156 278.6036,65.941 L278.2316,65.941 L278.2316,64.123 L279.7126,64.123 L279.7126,64.952 C279.7126,65.391 279.6616,65.744 279.5636,66.026" id="Fill-464" fill="#054A8A" mask="url(#mask-2)"></path>
            <polygon id="Fill-465" fill="#054A8A" mask="url(#mask-2)" points="275.094 65.941 277.365 65.941 277.365 56.658 275.094 56.658"></polygon>
            <polygon id="Fill-466" fill="#054A8A" mask="url(#mask-2)" points="271.758 65.941 274.032 65.941 274.032 58.328 271.758 58.328"></polygon>
            <polygon id="Fill-467" fill="#FFFFFE" mask="url(#mask-2)" points="271.758 57.867 274.032 57.867 274.032 56.659 271.758 56.659"></polygon>
            <path d="M270.8359,61.2034 L268.7539,61.2034 L268.7539,60.3254 C268.7539,60.0204 268.7279,59.8144 268.6809,59.7034 C268.6339,59.5954 268.5489,59.5364 268.4199,59.5364 C268.2929,59.5364 268.2069,59.5864 268.1639,59.6854 C268.1179,59.7794 268.0969,59.9944 268.0969,60.3254 L268.0969,63.9174 C268.0969,64.1854 268.1309,64.3874 268.1939,64.5254 C268.2629,64.6614 268.3559,64.7274 268.4839,64.7274 C268.6339,64.7274 268.7359,64.6614 268.7869,64.5164 C268.8429,64.3734 268.8689,64.1054 268.8689,63.7154 L268.8689,62.8064 L270.8359,62.8064 C270.8319,63.4154 270.8109,63.8724 270.7719,64.1774 C270.7329,64.4804 270.6139,64.7894 270.4049,65.1124 C270.2009,65.4304 269.9309,65.6724 269.5989,65.8334 C269.2699,65.9954 268.8609,66.0754 268.3699,66.0754 C267.7459,66.0754 267.2559,65.9634 266.8889,65.7394 C266.5259,65.5204 266.2659,65.2064 266.1159,64.7994 C265.9669,64.3964 265.8899,63.8274 265.8899,63.0844 L265.8899,60.9214 C265.8899,60.2764 265.9539,59.7884 266.0729,59.4564 C266.2019,59.1294 266.4609,58.8384 266.8669,58.5784 C267.2719,58.3234 267.7629,58.1944 268.3439,58.1944 C268.9199,58.1944 269.4109,58.3184 269.8199,58.5744 C270.2259,58.8344 270.4999,59.1574 270.6349,59.5464 C270.7679,59.9354 270.8359,60.4864 270.8359,61.2034" id="Fill-468" fill="#054A8A" mask="url(#mask-2)"></path>
            <polygon id="Fill-469" fill="#00A3DA" mask="url(#mask-2)" points="262.702 24.9895 262.557 24.7075 262.523 24.6315 264.034 25.2755 277.071 29.3335 268.937 25.2665 261.921 21.9805 261.614 21.8465 261.575 21.6445 261.524 21.3125 261.477 20.9815 261.444 20.6455 261.413 20.3055 261.396 19.9605 261.384 19.6115 261.38 19.2575 261.384 18.8055 261.401 18.3575 261.43 17.9185 261.469 17.4835 261.519 17.0505 261.584 16.6285 261.661 16.2075 261.747 15.7955 261.844 15.3885 261.955 14.9855 262.074 14.5915 262.211 14.2015 262.356 13.8165 262.501 13.4675 265.826 14.7075 267.947 16.8525 269.931 18.0665 272.957 18.2315 279.401 19.9875 279.448 20.0055 279.785 20.1315 280.144 20.2605 280.515 20.3815 280.912 20.5065 281.326 20.6235 281.757 20.7445 281.825 20.7625 285.73 22.4595 288.59 23.5555 291.636 26.0505 295.767 28.8365 299.108 30.0765 305.207 32.8175 305.22 32.8575 305.262 33.0235 305.305 33.1925 305.349 33.3635 305.386 33.5335 305.42 33.7085 305.455 33.8785 305.489 34.0485 305.518 34.2235 305.549 34.4025 305.574 34.5765 305.6 34.7515 305.622 34.9305 305.638 35.1055 305.655 35.2845 305.672 35.4635 305.686 35.6425 305.698 35.8265 305.707 36.0055 305.715 36.1885 305.719 36.3735 305.719 36.5565 305.723 36.7445 305.715 37.1965 305.698 37.6495 305.668 38.0965 305.626 38.5395 305.574 38.9795 305.51 39.4085 305.429 39.8345 305.34 40.2545 305.237 40.6675 305.122 41.0745 304.998 41.4775 304.857 41.8765 304.703 42.2655 304.542 42.6465 304.366 43.0225 304.174 43.3945 303.973 43.7565 303.761 44.1145 303.538 44.4635 303.3 44.8095 303.048 45.1405 302.787 45.4715 302.514 45.7895 302.232 46.1035 301.934 46.4125 301.627 46.7115 301.306 47.0035 300.978 47.2855 300.637 47.5635 300.282 47.8325 299.92 48.0915 299.548 48.3465 299.165 48.5885 298.771 48.8295 298.37 49.0595 297.957 49.2785 297.534 49.4935 297.107 49.6985 296.667 49.8965 296.22 50.0845 295.764 50.2635 295.294 50.4375 294.82 50.6035 294.333 50.7595 293.843 50.9085 293.339 51.0475 292.827 51.1815 292.306 51.3075 291.778 51.4225 291.239 51.5355 290.693 51.6385 290.134 51.7315 289.571 51.8165 288.995 51.8975 288.414 51.9705 287.82 52.0315 287.219 52.0905 286.609 52.1355 285.991 52.1805 285.363 52.2115 284.723 52.2385 284.079 52.2555 283.422 52.2705 282.755 52.2705 282.085 52.2705 281.428 52.2555 280.78 52.2385 280.139 52.2155 279.508 52.1805 278.889 52.1405 278.279 52.0955 277.677 52.0365 277.088 51.9735 276.504 51.9065 275.936 51.8265 275.373 51.7455 274.822 51.6515 274.279 51.5535 273.746 51.4415 273.226 51.3295 272.714 51.2035 272.21 51.0735 271.72 50.9355 271.233 50.7875 270.759 50.6355 270.299 50.4745 269.841 50.3035 269.398 50.1245 268.966 49.9365 268.54 49.7445 268.127 49.5425 267.721 49.3275 267.328 49.1085 266.944 48.8845 266.569 48.6465 266.207 48.4005 265.856 48.1505 265.51 47.8895 265.177 47.6215 264.857 47.3445 264.546 47.0565 264.243 46.7625 263.956 46.4625 263.676 46.1485 263.41 45.8295 263.154 45.4985 262.911 45.1625 262.677 44.8225 262.455 44.4685 262.246 44.1105 262.045 43.7435 261.857 43.3665 261.682 42.9865 261.519 42.5975 261.366 42.1985 261.23 41.7955 261.098 41.3875 260.983 40.9675 260.876 40.5455 260.782 40.1165 260.696 39.6775 260.628 39.2345 260.564 38.7815 260.518 38.3255 260.479 37.8595 260.449 37.3895 260.431 36.9145 260.428 36.4355 260.428 34.3215 263.01 34.3215 264.231 37.5905 267.196 39.1395 268.43 40.7605 273.153 42.8655 279.401 47.0525 277.366 44.6745 273.568 42.3195 270.688 40.7795 267.879 38.4275 265.344 37.2865 264.204 34.3215 275.582 34.3215 275.582 35.9385 275.586 36.1265 275.59 36.3005 275.599 36.4715 275.611 36.6375 275.629 36.7975 275.65 36.9595 275.675 37.1115 275.701 37.2645 275.731 37.4065 275.765 37.5505 275.803 37.6885 275.842 37.8235 275.885 37.9535 275.931 38.0825 275.982 38.2035 276.035 38.3255 276.09 38.4415 276.145 38.5535 276.209 38.6655 276.273 38.7725 276.342 38.8755 276.41 38.9795 276.486 39.0775 276.564 39.1715 276.64 39.2655 276.725 39.3545 276.811 39.4445 276.905 39.5335 276.999 39.6185 277.096 39.7005 277.199 39.7805 277.307 39.8565 277.413 39.9325 277.527 40.0035 277.648 40.0805 277.771 40.1475 277.899 40.2195 278.035 40.2855 278.176 40.3495 278.322 40.4115 278.471 40.4745 278.629 40.5325 278.791 40.5905 278.957 40.6445 279.128 40.6985 279.307 40.7475 279.491 40.7925 279.679 40.8375 279.876 40.8825 280.071 40.9225 280.28 40.9585 280.49 40.9945 280.703 41.0295 280.925 41.0565 281.15 41.0845 281.382 41.1105 281.62 41.1285 281.863 41.1505 282.111 41.1635 282.363 41.1775 282.623 41.1865 282.883 41.1945 283.153 41.1995 283.425 41.1995 283.669 41.1995 283.908 41.1945 284.142 41.1915 284.373 41.1825 284.599 41.1735 284.822 41.1635 285.039 41.1505 285.248 41.1335 285.457 41.1145 285.661 41.0925 285.858 41.0695 286.054 41.0475 286.243 41.0205 286.43 40.9945 286.609 40.9625 286.784 40.9315 286.954 40.8945 287.121 40.8595 287.284 40.8245 287.442 40.7835 287.595 40.7435 287.74 40.6985 287.884 40.6585 288.022 40.6095 288.155 40.5635 288.286 40.5155 288.406 40.4655 288.526 40.4115 288.641 40.3625 288.751 40.3045 288.854 40.2515 288.957 40.1965 289.05 40.1385 289.145 40.0805 289.23 40.0215 289.315 39.9645 289.392 39.9015 289.468 39.8425 289.541 39.7805 289.609 39.7185 289.674 39.6505 289.733 39.5885 289.789 39.5255 289.844 39.4585 289.895 39.3905 289.942 39.3185 289.989 39.2525 290.032 39.1805 290.075 39.1045 290.112 39.0285 290.147 38.9525 290.181 38.8755 290.211 38.7955 290.241 38.7105 290.266 38.6255 290.288 38.5395 290.309 38.4465 290.326 38.3525 290.343 38.2575 290.356 38.1545 290.364 38.0565 290.373 37.9485 290.378 37.8415 290.378 37.7475 290.373 37.6225 290.36 37.5145 290.335 37.4115 290.305 37.3085 290.262 37.2055 290.202 37.0975 290.134 36.9855 290.045 36.8655 289.942 36.7445 289.818 36.6195 289.677 36.4885 289.515 36.3545 289.332 36.2205 289.127 36.0815 288.901 35.9425 288.657 35.8045 288.393 35.6695 288.103 35.5305 287.795 35.3965 287.471 35.2625 287.121 35.1315 286.755 35.0015 286.366 34.8725 285.956 34.7475 285.53 34.6265 285.081 34.5055 284.616 34.3885 284.13 34.2725 283.626 34.1605 283.101 34.0525 282.555 33.9445 281.992 33.8425 281.757 33.8015 281.531 33.7615 281.33 33.7255 281.206 33.7035 281.104 33.6865 281.001 33.6675 280.898 33.6505 280.797 33.6325 280.699 33.6145 280.6 33.5965 280.506 33.5825 280.357 33.5565 280.144 33.5165 280.054 33.5015 279.969 33.4885 279.887 33.4705 279.802 33.4575 279.725 33.4435 279.644 33.4305 279.567 33.4165 279.495 33.4035 279.418 33.3905 279.282 33.3675 279.209 33.3545 279.141 33.3415 279.069 33.3265 278.488 33.2165 277.916 33.0995 277.357 32.9835 276.811 32.8615 276.269 32.7415 275.744 32.6155 275.223 32.4905 274.715 32.3595 274.22 32.2255 273.729 32.0915 273.257 31.9525 272.786 31.8135 272.33 31.6705 271.886 31.5225 271.447 31.3755 271.024 31.2235 270.605 31.0705 270.2 30.9145 269.803 30.7535 269.42 30.5865 269.044 30.4255 268.677 30.2555 268.322 30.0815 267.977 29.9065 267.639 29.7315 267.315 29.5475 267 29.3635 266.696 29.1725 266.397 28.9835 266.112 28.7865 265.839 28.5855 265.574 28.3835 265.318 28.1775 265.07 27.9635 264.827 27.7485 264.597 27.5195 264.371 27.2905 264.153 27.0585 263.944 26.8155 263.744 26.5705 263.547 26.3195 263.364 26.0645 263.184 25.8045 263.014 25.5355 262.855 25.2625"></polygon>
            <path d="M262.3992,59.5378 C262.3182,59.5378 262.2582,59.5548 262.2062,59.5868 L262.0442,59.0308 C262.2032,58.7488 262.3992,58.5378 262.6302,58.3998 C262.8642,58.2618 263.1282,58.1938 263.4322,58.1938 C263.8112,58.1938 264.1182,58.2888 264.3622,58.4768 C264.6012,58.6598 264.7552,58.8968 264.8232,59.1798 C264.8952,59.4658 264.9252,59.9398 264.9252,60.6078 L264.9252,65.9408 L262.7192,65.9408 L262.7192,60.6708 C262.7192,60.1468 262.7022,59.8288 262.6722,59.7118 C262.6382,59.5948 262.5492,59.5378 262.3992,59.5378" id="Fill-470" fill="#054A8A" mask="url(#mask-2)"></path>
            <path d="M262.1046,59.7387 C262.0616,59.8687 262.0446,60.2227 262.0446,60.7957 L262.0446,65.9417 L259.8336,65.9417 L259.8336,58.3277 L262.0796,58.3277 L262.0446,59.0317 L262.2076,59.5877 C262.1556,59.6227 262.1216,59.6727 262.1046,59.7387" id="Fill-471" fill="#054A8A" mask="url(#mask-2)"></path>
            <path d="M256.2283,64.7277 C256.3953,64.7277 256.4893,64.6737 256.5183,64.5577 C256.5533,64.4407 256.5643,64.0737 256.5643,63.4517 L256.5643,58.3287 L258.7763,58.3287 L258.7763,65.9417 L256.5313,65.9417 L256.5643,65.3097 L256.2283,64.7277 Z" id="Fill-472" fill="#054A8A" mask="url(#mask-2)"></path>
            <path d="M256.5656,65.3095 C256.4116,65.5645 256.2246,65.7575 256.0016,65.8825 C255.7766,66.0125 255.5196,66.0755 255.2296,66.0755 C254.8966,66.0755 254.6196,66.0175 254.4016,65.8955 C254.1846,65.7705 254.0256,65.6105 253.9196,65.4085 C253.8176,65.2035 253.7526,64.9915 253.7276,64.7725 C253.6976,64.5535 253.6846,64.1145 253.6846,63.4595 L253.6846,58.3275 L255.8956,58.3275 L255.8956,63.5085 C255.8956,64.1015 255.9116,64.4485 255.9466,64.5625 C255.9806,64.6745 256.0746,64.7275 256.2286,64.7275 L256.5656,65.3095 Z" id="Fill-473" fill="#054A8A" mask="url(#mask-2)"></path>
            <path d="M250.2023,59.5378 C250.0703,59.5378 249.9843,59.5918 249.9413,59.6888 C249.8953,59.7928 249.8743,60.0388 249.8743,60.4278 L249.8743,63.8628 C249.8743,64.2208 249.8953,64.4588 249.9413,64.5658 C249.9843,64.6748 250.0703,64.7278 250.1933,64.7278 C250.3263,64.7278 250.4153,64.6788 250.4543,64.5808 C250.4973,64.4808 250.5183,64.2658 250.5183,63.9398 L250.5183,60.4278 C250.5183,60.0388 250.4973,59.7928 250.4583,59.6888 C250.4153,59.5918 250.3303,59.5378 250.2023,59.5378 M250.1253,58.1938 C250.6203,58.1938 251.0473,58.2698 251.4013,58.4268 C251.7553,58.5788 252.0333,58.7808 252.2253,59.0308 C252.4173,59.2778 252.5493,59.5328 252.6223,59.7978 C252.6903,60.0618 252.7283,60.4648 252.7283,61.0018 L252.7283,62.8648 C252.7283,63.5498 252.6943,64.0518 252.6263,64.3698 C252.5623,64.6918 252.4213,64.9878 252.2083,65.2648 C251.9903,65.5428 251.7173,65.7488 251.3803,65.8788 C251.0433,66.0128 250.6543,66.0748 250.2193,66.0748 C249.7283,66.0748 249.3193,66.0218 248.9773,65.9108 C248.6363,65.7938 248.3753,65.6228 248.1883,65.3988 C248.0003,65.1708 247.8693,64.8938 247.7863,64.5708 C247.7063,64.2478 247.6673,63.7648 247.6673,63.1198 L247.6673,61.1678 C247.6673,60.4598 247.7403,59.9088 247.8853,59.5098 C248.0303,59.1158 248.2953,58.7938 248.6713,58.5578 C249.0503,58.3148 249.5373,58.1938 250.1253,58.1938" id="Fill-474" fill="#054A8A" mask="url(#mask-2)"></path>
            <path d="M246.7029,62.2243 L246.7029,62.5823 C246.7029,63.5453 246.6389,64.2253 246.5099,64.6243 C246.3829,65.0273 246.0969,65.3823 245.6539,65.6823 C245.2089,65.9813 244.6639,66.1333 244.0189,66.1333 C243.3399,66.1333 242.7849,66.0043 242.3499,65.7483 C241.9149,65.4933 241.6199,65.1393 241.4799,64.6873 C241.3389,64.2313 241.2669,63.5493 241.2669,62.6403 L241.2669,59.9313 C241.2669,59.2603 241.2909,58.7583 241.3349,58.4273 C241.3769,58.0913 241.5049,57.7683 241.7229,57.4603 C241.9399,57.1513 242.2429,56.9033 242.6269,56.7253 C243.0109,56.5503 243.4509,56.4613 243.9509,56.4613 C244.6289,56.4613 245.1879,56.5993 245.6279,56.8733 C246.0679,57.1513 246.3569,57.4903 246.4989,57.9033 C246.6349,58.3153 246.7029,58.9553 246.7029,59.8193 L246.7029,60.7013 L244.4069,60.7013 L244.4069,59.0853 C244.4069,58.6193 244.3769,58.3233 244.3299,58.2083 C244.2829,58.0913 244.1729,58.0333 244.0049,58.0333 C243.8139,58.0333 243.6939,58.1043 243.6429,58.2433 C243.5919,58.3863 243.5669,58.6913 243.5669,59.1603 L243.5669,63.4733 C243.5669,63.9263 243.5919,64.2163 243.6429,64.3553 C243.6939,64.4953 243.8099,64.5613 243.9889,64.5613 C244.1589,64.5613 244.2749,64.4953 244.3259,64.3553 C244.3769,64.2163 244.4069,63.8943 244.4069,63.3883 L244.4069,62.2243 L246.7029,62.2243 Z" id="Fill-475" fill="#054A8A" mask="url(#mask-2)"></path>
            <path d="M242.2219,7.7223 L236.4519,11.9453 L237.5919,9.5143 L239.9939,7.8113 L243.7669,6.0833 L247.6719,7.1313 L251.3499,9.9163 L256.2829,11.8373 L259.3909,12.8273 L259.3909,20.8963 L256.4279,19.6293 L254.4309,15.5503 L244.3649,8.1383 L249.2589,13.8523 L252.9379,16.3783 L255.4429,21.6273 L259.3909,23.3013 L259.3909,27.7033 L255.7759,23.8613 L259.3909,30.0223 L259.3909,51.5213 L246.1869,51.5213 L246.1869,20.5743 L235.3729,51.5353 L222.5139,51.5353 L213.8429,26.5123 L216.7579,23.8703 L219.1299,22.7863 L222.1819,20.2463 L225.7659,19.7773 L228.9419,28.0043 L234.6339,15.8353 L235.4199,15.1283 L239.3669,11.8113 L242.2219,7.7223 Z M239.3759,17.6183 L242.3959,12.3653 L235.2749,21.2503 L234.5529,25.0383 L230.0169,30.9453 L224.8959,34.7873 L229.3209,33.1083 L233.3749,28.8003 L235.9319,26.3013 L236.6869,22.0293 L239.3759,17.6183 Z" id="Fill-476" fill="#00A3DA" mask="url(#mask-2)"></path>
            <path d="M238.2106,59.4747 C238.2486,59.6587 238.2656,59.9407 238.2656,60.3207 L238.2656,60.7597 L236.3116,60.7597 L236.3116,60.3477 C236.3116,59.9987 236.2946,59.7747 236.2516,59.6807 C236.2166,59.5877 236.1196,59.5367 235.9696,59.5367 C235.8426,59.5367 235.7476,59.5817 235.6886,59.6677 C235.6286,59.7517 235.5946,59.8817 235.5946,60.0567 C235.5946,60.2907 235.6116,60.4597 235.6416,60.5677 C235.6706,60.6797 235.7646,60.7957 235.9236,60.9257 C236.0766,61.0597 236.3926,61.2477 236.8746,61.4947 C237.5146,61.8207 237.9376,62.1337 238.1376,62.4257 C238.3386,62.7177 238.4366,63.1377 238.4366,63.6927 C238.4366,64.3117 238.3606,64.7767 238.2066,65.0947 C238.0576,65.4087 237.7966,65.6497 237.4386,65.8197 C237.0796,65.9907 236.6486,66.0757 236.1406,66.0757 C235.5816,66.0757 235.0996,65.9867 234.7026,65.8027 C234.3016,65.6197 234.0286,65.3687 233.8786,65.0547 C233.7296,64.7457 233.6566,64.2667 233.6566,63.6347 L233.6566,63.2677 L235.6116,63.2677 L235.6116,63.7467 C235.6116,64.1577 235.6366,64.4227 235.6846,64.5437 C235.7356,64.6697 235.8326,64.7267 235.9786,64.7267 C236.1316,64.7267 236.2436,64.6867 236.3076,64.6067 C236.3666,64.5257 236.3966,64.3517 236.3966,64.0867 C236.3966,63.7237 236.3586,63.4957 236.2776,63.4067 C236.1956,63.3127 235.7646,63.0437 234.9926,62.5917 C234.3436,62.2107 233.9516,61.8607 233.8066,61.5487 C233.6656,61.2387 233.5976,60.8677 233.5976,60.4377 C233.5976,59.8327 233.6696,59.3857 233.8236,59.0937 C233.9766,58.8077 234.2376,58.5837 234.6046,58.4267 C234.9716,58.2707 235.3936,58.1947 235.8796,58.1947 C236.3586,58.1947 236.7686,58.2567 237.1056,58.3867 C237.4426,58.5117 237.7016,58.6817 237.8816,58.8927 C238.0606,59.1037 238.1716,59.2957 238.2106,59.4747" id="Fill-477" fill="#054A8A" mask="url(#mask-2)"></path>
            <polygon id="Fill-478" fill="#054A8A" mask="url(#mask-2)" points="236.4523 11.9449 234.6343 15.8359 228.9413 28.0029"></polygon>
            <path d="M230.1489,58.1942 C230.7679,58.1942 231.2769,58.3152 231.6809,58.5612 C232.0819,58.8072 232.3639,59.1342 232.5269,59.5422 C232.6889,59.9492 232.7739,60.5222 232.7739,61.2622 L232.7739,62.2702 L229.9149,62.2702 L229.9149,63.9172 C229.9149,64.2622 229.9349,64.4812 229.9819,64.5792 C230.0339,64.6782 230.1239,64.7272 230.2559,64.7272 C230.4259,64.7272 230.5369,64.6642 230.5939,64.5302 C230.6479,64.4002 230.6789,64.1452 230.6789,63.7652 L230.6789,62.7622 L232.7739,62.7622 L232.7739,63.3262 C232.7739,63.7952 232.7439,64.1542 232.6839,64.4092 C232.6289,64.6602 232.4959,64.9292 232.2919,65.2162 C232.0819,65.5022 231.8179,65.7172 231.5019,65.8602 C231.1819,66.0032 230.7809,66.0752 230.2989,66.0752 C229.8329,66.0752 229.4239,66.0032 229.0649,65.8652 C228.7119,65.7222 228.4329,65.5292 228.2329,65.2832 C228.0319,65.0362 227.8959,64.7632 227.8179,64.4682 C227.7429,64.1722 227.7079,63.7422 227.7079,63.1732 L227.7079,60.9572 C227.7079,60.2902 227.7929,59.7662 227.9599,59.3812 C228.1349,59.0002 228.4159,58.7052 228.8039,58.4992 C229.1939,58.2922 229.6409,58.1942 230.1489,58.1942 L230.1489,58.1942 Z M230.5589,61.0282 L230.5589,60.4732 C230.5589,60.0792 230.5369,59.8292 230.4999,59.7122 C230.4569,59.5962 230.3759,59.5382 230.2519,59.5382 C230.0979,59.5382 230.0039,59.5872 229.9699,59.6852 C229.9309,59.7842 229.9149,60.0482 229.9149,60.4732 L229.9149,61.0282 L230.5589,61.0282 Z" id="Fill-479" fill="#054A8A" mask="url(#mask-2)"></path>
            <polygon id="Fill-480" fill="#054A8A" mask="url(#mask-2)" points="225.2326 18.389 228.9416 28.003 225.7666 19.777"></polygon>
            <path d="M226.6451,59.5464 C226.7821,59.9364 226.8461,60.4864 226.8461,61.2034 L224.7631,61.2034 L224.7631,60.3254 C224.7631,60.0214 224.7421,59.8154 224.6951,59.7034 C224.6491,59.5954 224.5581,59.5374 224.4311,59.5374 C224.3071,59.5374 224.2181,59.5864 224.1741,59.6854 C224.1311,59.7794 224.1101,59.9944 224.1101,60.3254 L224.1101,63.9174 C224.1101,64.1854 224.1441,64.3874 224.2081,64.5264 C224.2721,64.6604 224.3711,64.7284 224.4981,64.7284 C224.6491,64.7284 224.7501,64.6604 224.8021,64.5174 C224.8531,64.3744 224.8791,64.1054 224.8791,63.7164 L224.8791,62.8064 L226.8461,62.8064 C226.8411,63.4154 226.8241,63.8724 226.7821,64.1764 C226.7481,64.4804 226.6241,64.7904 226.4191,65.1124 C226.2141,65.4304 225.9461,65.6714 225.6121,65.8334 C225.2791,65.9944 224.8691,66.0754 224.3831,66.0754 C223.7601,66.0754 223.2651,65.9634 222.9031,65.7404 C222.5401,65.5204 222.2791,65.2074 222.1261,64.7984 C221.9761,64.3954 221.9041,63.8274 221.9041,63.0834 L221.9041,60.9214 C221.9041,60.2764 221.9631,59.7884 222.0871,59.4574 C222.2111,59.1304 222.4761,58.8394 222.8821,58.5794 C223.2821,58.3244 223.7781,58.1934 224.3531,58.1934 C224.9291,58.1934 225.4211,58.3194 225.8301,58.5744 C226.2401,58.8344 226.5081,59.1574 226.6451,59.5464" id="Fill-481" fill="#054A8A" mask="url(#mask-2)"></path>
            <polygon id="Fill-482" fill="#00A3DA" mask="url(#mask-2)" points="225.2116 18.3306 221.5676 19.3966 218.8786 21.8776 216.4496 22.5486 214.4436 24.3176 213.2796 24.8916 212.8956 23.7806 216.3436 20.7936 221.4526 17.4936 224.7556 17.1436"></polygon>
            <polygon id="Fill-483" fill="#054A8A" mask="url(#mask-2)" points="218.635 65.941 220.906 65.941 220.906 58.328 218.635 58.328"></polygon>
            <polygon id="Fill-484" fill="#FFFFFE" mask="url(#mask-2)" points="218.635 57.867 220.906 57.867 220.906 56.659 218.635 56.659"></polygon>
            <path d="M218.0376,58.3283 L217.0046,65.9413 L214.1246,65.9413 L213.0146,58.3283 L214.9866,58.3283 L215.6056,63.8803 C215.6526,63.4733 215.7336,62.4793 215.8436,60.8983 C215.9126,60.0163 215.9846,59.1613 216.0666,58.3283 L218.0376,58.3283 Z" id="Fill-485" fill="#054A8A" mask="url(#mask-2)"></path>
            <path d="M212.5153,58.1942 L212.5153,60.8722 C212.1103,60.8722 211.8163,60.9252 211.6243,61.0422 C211.4353,61.1582 211.3163,61.3152 211.2733,61.5212 C211.2313,61.7272 211.2093,62.1972 211.2093,62.9362 L211.2093,65.9412 L209.0033,65.9412 L209.0033,58.3282 L211.2093,58.3282 L211.1243,59.3272 C211.4453,58.6152 211.9093,58.2342 212.5153,58.1942" id="Fill-486" fill="#054A8A" mask="url(#mask-2)"></path>
            <path d="M208.0133,62.269 L205.1533,62.269 L205.1533,63.916 C205.1533,64.262 205.1793,64.481 205.2263,64.579 C205.2733,64.679 205.3673,64.728 205.4993,64.728 C205.6663,64.728 205.7813,64.665 205.8363,64.53 C205.8923,64.4 205.9223,64.146 205.9223,63.765 L205.9223,62.762 L208.0133,62.762 L208.0133,63.326 C208.0133,63.796 207.9833,64.154 207.9283,64.41 C207.8723,64.66 207.7403,64.928 207.5313,65.216 C207.3213,65.502 207.0613,65.717 206.7413,65.861 C206.4253,66.004 206.0243,66.075 205.5423,66.075 C205.0773,66.075 204.6673,66.004 204.3093,65.866 C203.9503,65.721 203.6733,65.529 203.4763,65.283 C203.2763,65.037 203.1403,64.764 203.0623,64.468 C202.9863,64.172 202.9473,63.742 202.9473,63.174 L202.9473,60.957 C202.9473,60.29 203.0333,59.766 203.2033,59.381 C203.3743,59 203.6563,58.704 204.0483,58.498 C204.4373,58.293 204.8853,58.193 205.3883,58.193 C206.0073,58.193 206.5193,58.315 206.9243,58.561 C207.3263,58.807 207.6083,59.135 207.7703,59.542 C207.9323,59.949 208.0133,60.523 208.0133,61.262 L208.0133,62.269 Z M205.4953,59.538 C205.3413,59.538 205.2473,59.587 205.2103,59.685 C205.1753,59.784 205.1533,60.049 205.1533,60.473 L205.1533,61.029 L205.7983,61.029 L205.7983,60.473 C205.7983,60.079 205.7813,59.829 205.7393,59.712 C205.7003,59.595 205.6183,59.538 205.4953,59.538 L205.4953,59.538 Z" id="Fill-487" fill="#054A8A" mask="url(#mask-2)"></path>
            <polygon id="Fill-488" fill="#00A3DA" mask="url(#mask-2)" points="204.5435 28.424 211.8065 24.721 211.8065 25.612 208.1025 27.309 206.3745 28.514 203.9935 29.275 202.4865 30.036 206.9035 28.935 209.7755 27.815 211.8065 27.457 211.8065 51.522 198.4155 51.522 198.4155 30.175 200.0245 29.665"></polygon>
            <path d="M201.6889,61.5886 C201.9569,61.9956 202.0899,62.6546 202.0899,63.5636 C202.0899,64.2256 202.0129,64.7146 201.8679,65.0266 C201.7189,65.3406 201.4319,65.6046 201.0139,65.8156 C200.5879,66.0266 200.1009,66.1326 199.5389,66.1326 C198.9229,66.1326 198.3949,66.0126 197.9629,65.7666 C197.5239,65.5196 197.2379,65.2106 197.1049,64.8356 C196.9739,64.4536 196.9049,63.9166 196.9049,63.2186 L196.9049,62.6136 L199.0389,62.6136 L199.0389,63.7426 C199.0389,64.0916 199.0689,64.3156 199.1279,64.4136 C199.1929,64.5126 199.2989,64.5626 199.4479,64.5626 C199.6019,64.5626 199.7169,64.4986 199.7899,64.3736 C199.8659,64.2476 199.9059,64.0596 199.9059,63.8086 C199.9059,63.2676 199.8319,62.9096 199.6919,62.7396 C199.5459,62.5686 199.1829,62.2916 198.6159,61.8976 C198.0399,61.4986 197.6639,61.2116 197.4759,61.0286 C197.2929,60.8496 197.1349,60.6036 197.0159,60.2846 C196.8919,59.9676 196.8319,59.5636 196.8319,59.0676 C196.8319,58.3596 196.9169,57.8406 197.0929,57.5086 C197.2629,57.1826 197.5449,56.9226 197.9299,56.7386 C198.3169,56.5556 198.7819,56.4616 199.3289,56.4616 C199.9269,56.4616 200.4379,56.5646 200.8569,56.7646 C201.2789,56.9666 201.5569,57.2226 201.6929,57.5316 C201.8289,57.8406 201.8979,58.3596 201.8979,59.0976 L201.8979,59.4656 L199.7589,59.4656 L199.7589,58.7756 C199.7589,58.4576 199.7339,58.2516 199.6779,58.1626 C199.6279,58.0726 199.5339,58.0326 199.4059,58.0326 C199.2679,58.0326 199.1619,58.0916 199.0899,58.2116 C199.0209,58.3286 198.9869,58.5076 198.9869,58.7496 C198.9869,59.0576 199.0259,59.2916 199.1069,59.4476 C199.1789,59.6046 199.4009,59.7926 199.7549,60.0156 C200.7799,60.6526 201.4249,61.1766 201.6889,61.5886" id="Fill-489" fill="#054A8A" mask="url(#mask-2)"></path>
            <polygon id="Fill-490" fill="#00A3DA" mask="url(#mask-2)" points="197.2289 39.5699 197.2289 51.4869 155.7699 51.4869 155.7699 42.7039 161.6849 46.2819 165.6179 39.1219 166.9979 39.3589 168.6799 39.1799 168.6799 39.5699"></polygon>
            <polygon id="Fill-491" fill="#00A3DA" mask="url(#mask-2)" points="195.2701 31.1736 195.2701 34.5056 189.5171 34.5056 190.3921 34.2006 193.5371 31.7246"></polygon>
            <polygon id="Fill-492" fill="#054A8A" mask="url(#mask-2)" points="191.652 65.941 193.926 65.941 193.926 56.658 191.652 56.658"></polygon>
            <path d="M187.7891,64.5574 C187.8401,64.6744 187.9391,64.7274 188.0831,64.7274 C188.2201,64.7274 188.3091,64.6834 188.3521,64.5934 C188.3951,64.5034 188.4171,64.2664 188.4171,63.8854 L188.4171,62.3174 C188.0621,62.5914 187.8571,62.8204 187.8021,63.0044 C187.7461,63.1874 187.7161,63.4514 187.7161,63.7964 C187.7161,64.1864 187.7431,64.4404 187.7891,64.5574 L187.7891,64.5574 Z M188.4761,65.2604 C188.3441,65.5334 188.1691,65.7404 187.9561,65.8744 C187.7431,66.0084 187.4911,66.0754 187.1911,66.0754 C186.8081,66.0754 186.4491,65.9634 186.1291,65.7354 C185.8091,65.5074 185.6461,65.0094 185.6461,64.2444 L185.6461,63.6174 C185.6461,63.0484 185.7321,62.6594 185.9031,62.4534 C186.0731,62.2464 186.4961,62.0054 187.1791,61.7324 C187.8991,61.4314 188.2881,61.2304 188.3401,61.1264 C188.3901,61.0244 188.4171,60.8144 188.4171,60.5004 C188.4171,60.1014 188.3871,59.8424 188.3301,59.7204 C188.2761,59.5994 188.1811,59.5374 188.0501,59.5374 C187.8991,59.5374 187.8061,59.5914 187.7721,59.6894 C187.7331,59.7934 187.7161,60.0574 187.7161,60.4814 L187.7161,61.2744 L185.6461,61.2744 L185.6461,60.7644 C185.6461,60.1774 185.7101,59.7254 185.8391,59.4074 C185.9711,59.0854 186.2311,58.8024 186.6201,58.5574 C187.0081,58.3154 187.5161,58.1934 188.1391,58.1934 C188.8861,58.1934 189.4441,58.3334 189.8241,58.6064 C190.2051,58.8834 190.4351,59.2244 190.5121,59.6264 C190.5851,60.0344 190.6231,60.8634 190.6231,62.1214 L190.6231,65.9414 L188.4761,65.9414 L188.4761,65.2604 Z" id="Fill-493" fill="#054A8A" mask="url(#mask-2)"></path>
            <path d="M184.8187,61.2034 L182.7397,61.2034 L182.7397,60.3254 C182.7397,60.0204 182.7157,59.8144 182.6687,59.7034 C182.6207,59.5954 182.5317,59.5364 182.4027,59.5364 C182.2797,59.5364 182.1897,59.5864 182.1467,59.6854 C182.1047,59.7794 182.0837,59.9944 182.0837,60.3254 L182.0837,63.9174 C182.0837,64.1854 182.1177,64.3874 182.1817,64.5254 C182.2457,64.6614 182.3437,64.7274 182.4717,64.7274 C182.6207,64.7274 182.7237,64.6614 182.7747,64.5164 C182.8257,64.3734 182.8517,64.1054 182.8517,63.7154 L182.8517,62.8064 L184.8187,62.8064 C184.8147,63.4154 184.7977,63.8724 184.7547,64.1774 C184.7207,64.4804 184.5967,64.7894 184.3927,65.1124 C184.1867,65.4304 183.9187,65.6724 183.5857,65.8334 C183.2527,65.9954 182.8437,66.0754 182.3567,66.0754 C181.7337,66.0754 181.2387,65.9634 180.8757,65.7394 C180.5127,65.5204 180.2527,65.2064 180.0987,64.7994 C179.9497,64.3964 179.8767,63.8274 179.8767,63.0844 L179.8767,60.9214 C179.8767,60.2764 179.9367,59.7884 180.0607,59.4564 C180.1847,59.1294 180.4487,58.8384 180.8537,58.5784 C181.2547,58.3234 181.7507,58.1944 182.3267,58.1944 C182.9027,58.1944 183.3937,58.3184 183.8027,58.5744 C184.2127,58.8344 184.4827,59.1574 184.6187,59.5464 C184.7547,59.9354 184.8187,60.4864 184.8187,61.2034" id="Fill-494" fill="#054A8A" mask="url(#mask-2)"></path>
            <polygon id="Fill-495" fill="#054A8A" mask="url(#mask-2)" points="176.607 65.941 178.878 65.941 178.878 58.328 176.607 58.328"></polygon>
            <polygon id="Fill-496" fill="#FFFFFE" mask="url(#mask-2)" points="176.607 57.867 178.878 57.867 178.878 56.659 176.607 56.659"></polygon>
            <path d="M175.5453,56.6578 L175.5453,65.9418 L173.3383,65.9418 L173.3383,65.3898 L172.9843,64.7268 C173.1253,64.7268 173.2193,64.6738 173.2713,64.5668 C173.3133,64.4588 173.3383,64.1898 173.3383,63.7648 L173.3383,60.2448 C173.3383,59.9668 173.3173,59.7798 173.2713,59.6848 C173.2243,59.5868 173.1343,59.5378 173.0013,59.5378 L173.3383,58.8118 L173.3383,56.6578 L175.5453,56.6578 Z" id="Fill-497" fill="#054A8A" mask="url(#mask-2)"></path>
            <path d="M172.7203,58.3461 C172.9473,58.4491 173.1513,58.6061 173.3393,58.8121 L173.0023,59.5371 C172.8693,59.5371 172.7803,59.5821 172.7373,59.6671 C172.6903,59.7531 172.6643,59.9441 172.6643,60.2451 L172.6643,63.9711 C172.6643,64.2801 172.6903,64.4851 172.7333,64.5841 C172.7763,64.6831 172.8613,64.7271 172.9843,64.7271 L173.3393,65.3901 C173.1253,65.6191 172.9043,65.7891 172.6733,65.9051 C172.4383,66.0171 172.1953,66.0761 171.9393,66.0761 C171.5973,66.0761 171.2993,65.9811 171.0473,65.7931 C170.7953,65.6051 170.6383,65.3861 170.5653,65.1351 C170.4973,64.8891 170.4583,64.4811 170.4583,63.9211 L170.4583,60.3571 C170.4583,59.7741 170.4973,59.3631 170.5653,59.1171 C170.6383,58.8701 170.8003,58.6551 171.0563,58.4721 C171.3123,58.2841 171.6153,58.1941 171.9643,58.1941 C172.2423,58.1941 172.4893,58.2431 172.7203,58.3461" id="Fill-498" fill="#054A8A" mask="url(#mask-2)"></path>
            <path d="M169.5366,62.269 L166.6766,62.269 L166.6766,63.916 C166.6766,64.262 166.7036,64.481 166.7496,64.579 C166.7976,64.679 166.8906,64.728 167.0226,64.728 C167.1896,64.728 167.3046,64.665 167.3596,64.53 C167.4156,64.4 167.4456,64.146 167.4456,63.765 L167.4456,62.762 L169.5366,62.762 L169.5366,63.326 C169.5366,63.796 169.5066,64.154 169.4516,64.41 C169.3966,64.66 169.2636,64.928 169.0546,65.216 C168.8446,65.502 168.5846,65.717 168.2646,65.861 C167.9486,66.004 167.5476,66.075 167.0656,66.075 C166.6006,66.075 166.1906,66.004 165.8326,65.866 C165.4736,65.721 165.1966,65.529 165.0006,65.283 C164.7996,65.037 164.6636,64.764 164.5866,64.468 C164.5096,64.172 164.4706,63.742 164.4706,63.174 L164.4706,60.957 C164.4706,60.29 164.5566,59.766 164.7276,59.381 C164.8976,59 165.1796,58.704 165.5716,58.498 C165.9606,58.293 166.4086,58.193 166.9126,58.193 C167.5306,58.193 168.0426,58.315 168.4486,58.561 C168.8496,58.807 169.1316,59.135 169.2936,59.542 C169.4556,59.949 169.5366,60.523 169.5366,61.262 L169.5366,62.269 Z M167.0186,59.538 C166.8646,59.538 166.7706,59.587 166.7336,59.685 C166.6986,59.784 166.6766,60.049 166.6766,60.473 L166.6766,61.029 L167.3216,61.029 L167.3216,60.473 C167.3216,60.079 167.3046,59.829 167.2626,59.712 C167.2236,59.595 167.1416,59.538 167.0186,59.538 L167.0186,59.538 Z" id="Fill-499" fill="#054A8A" mask="url(#mask-2)"></path>
            <path d="M163.4125,56.6578 L163.4125,65.9418 L161.3985,65.9418 L161.3985,59.6718 L160.5965,65.9418 L159.1705,65.9418 L158.3215,59.8158 L158.3215,65.9418 L156.3115,65.9418 L156.3115,56.6578 L159.2895,56.6578 C159.3795,57.2138 159.4695,57.8718 159.5675,58.6278 L159.8875,60.9918 L160.4085,56.6578 L163.4125,56.6578 Z" id="Fill-500" fill="#054A8A" mask="url(#mask-2)"></path>
            <path d="M153.6144,58.3283 L152.9794,63.8363 C152.8804,64.7053 152.7984,65.3003 152.7314,65.6193 C152.6624,65.9363 152.5514,66.1973 152.3934,66.4023 C152.2354,66.6133 152.0184,66.7603 151.7414,66.8593 C151.4644,66.9573 151.0194,67.0063 150.4054,67.0063 L149.0654,67.0063 L149.0654,65.7883 C149.4114,65.7883 149.6284,65.7703 149.7274,65.7353 C149.8254,65.6983 149.8764,65.6193 149.8764,65.4883 C149.8764,65.4303 149.8284,65.1623 149.7394,64.6963 L148.5314,58.3283 L150.5374,58.3283 L151.2584,63.4603 L151.6084,58.3283 L153.6144,58.3283 Z" id="Fill-501" fill="#054A8A" mask="url(#mask-2)"></path>
            <path d="M148.0666,61.2034 L145.9836,61.2034 L145.9836,60.3254 C145.9836,60.0204 145.9586,59.8144 145.9166,59.7034 C145.8646,59.5954 145.7796,59.5364 145.6506,59.5364 C145.5226,59.5364 145.4376,59.5864 145.3946,59.6854 C145.3526,59.7794 145.3276,59.9944 145.3276,60.3254 L145.3276,63.9174 C145.3276,64.1854 145.3616,64.3874 145.4246,64.5254 C145.4926,64.6614 145.5866,64.7274 145.7146,64.7274 C145.8646,64.7274 145.9666,64.6614 146.0176,64.5164 C146.0726,64.3734 146.0996,64.1054 146.0996,63.7154 L146.0996,62.8064 L148.0666,62.8064 C148.0626,63.4154 148.0416,63.8724 148.0026,64.1774 C147.9636,64.4804 147.8446,64.7894 147.6356,65.1124 C147.4316,65.4304 147.1616,65.6724 146.8336,65.8334 C146.5006,65.9954 146.0906,66.0754 145.6046,66.0754 C144.9816,66.0754 144.4866,65.9634 144.1236,65.7394 C143.7556,65.5204 143.5006,65.2064 143.3466,64.7994 C143.1976,64.3964 143.1206,63.8274 143.1206,63.0844 L143.1206,60.9214 C143.1206,60.2764 143.1846,59.7884 143.3086,59.4564 C143.4326,59.1294 143.6926,58.8384 144.0976,58.5784 C144.5026,58.3234 144.9936,58.1944 145.5746,58.1944 C146.1506,58.1944 146.6416,58.3184 147.0506,58.5744 C147.4566,58.8344 147.7296,59.1574 147.8656,59.5464 C147.9986,59.9354 148.0666,60.4864 148.0666,61.2034" id="Fill-502" fill="#054A8A" mask="url(#mask-2)"></path>
            <path d="M143.5088,20.9726 C145.1268,22.2176 148.2538,23.5656 147.8788,25.7106 C147.7168,26.6196 147.1318,27.2636 145.3818,27.3896 C145.3818,26.7046 145.2758,26.2696 145.2758,25.5666 C145.7408,25.7646 145.9668,25.3746 145.7278,25.2316 C144.9508,24.6846 143.9908,23.9016 143.3638,23.3096 C142.6168,22.6116 140.9868,21.4606 140.5848,20.5376 C140.1758,19.8936 139.9498,19.0066 139.9498,18.1116 C139.9498,16.2086 140.9738,14.2506 143.4958,14.4256 C144.3668,14.5106 144.8448,15.0576 146.1038,15.2816 C149.0698,16.3606 146.7558,17.0586 146.2358,16.8796 C144.9978,17.0186 144.6478,17.5106 143.9008,17.2336 C143.7428,17.1756 143.5688,17.0856 143.3638,16.9476 C141.6138,16.2036 141.0378,19.0786 143.5088,20.9726" id="Fill-503" fill="#054A8A" mask="url(#mask-2)"></path>
            <path d="M145.3652,33.9679 C145.3652,34.0079 145.3142,32.5799 145.2752,31.8639 C145.7532,31.7519 145.5152,31.2319 145.2582,31.2449 C144.9942,31.2449 142.8692,30.5739 142.0782,29.7579 C140.8372,28.2039 141.5332,26.4399 143.4952,25.9209 C143.5642,26.4669 143.6162,27.1649 143.6162,27.8959 C142.9752,28.2899 143.4952,28.5009 143.6962,28.5669 C144.3112,29.1849 146.9312,29.2969 147.3022,30.9549 C147.7852,33.0139 145.6902,33.8549 145.3652,33.9679" id="Fill-504" fill="#054A8A" mask="url(#mask-2)"></path>
            <path d="M145.6085,45.687 C143.5775,45.378 142.2415,44.675 141.7215,43.654 C141.0805,42.127 142.0795,40.26 143.3505,40.036 L143.3505,42.463 C143.0825,42.588 143.0435,43.121 143.4835,43.399 C144.7505,44.997 146.5685,45.042 147.8105,45.517 C147.4265,45.839 146.0905,45.74 145.6085,45.687" id="Fill-505" fill="#054A8A" mask="url(#mask-2)"></path>
            <path d="M143.9398,14.0766 C144.7118,10.9056 142.8948,9.5896 143.6448,9.7146 C145.5538,11.7886 144.2468,8.2866 146.5048,7.9196 C146.6378,8.0766 145.2458,12.4336 145.2758,13.1096 C145.2758,13.1906 145.1268,12.9256 145.1268,14.5376 C144.8448,14.5376 144.2728,14.1896 143.9398,14.0766" id="Fill-506" fill="#054A8A" mask="url(#mask-2)"></path>
            <path d="M143.8716,28.0793 C143.9226,26.9863 143.7516,24.8413 143.6966,24.2633 C144.0456,24.6853 145.0746,25.2763 145.0446,25.3163 C145.0326,25.4863 144.9806,26.8433 145.0746,27.7703 C145.7666,27.3763 145.2586,28.9483 145.2196,28.9483 C144.6866,28.5413 143.8586,28.5273 143.8716,28.0793" id="Fill-507" fill="#054A8A" mask="url(#mask-2)"></path>
            <path d="M144.9512,21.5324 C144.7812,21.4064 144.1102,20.9144 143.9402,20.5524 C143.9522,20.0454 143.9402,20.1844 143.9772,19.5974 C144.0172,19.1054 143.8032,19.0784 143.7782,17.5914 C144.2172,18.0574 144.8872,17.6364 145.1132,17.7484 C145.0582,18.9804 144.8872,18.9134 144.9512,19.6244 C145.6892,19.0924 147.0892,16.8934 147.1962,17.8874 C147.0252,18.4474 146.6362,18.7424 148.4252,18.2684 C148.4292,18.2904 148.4292,18.3134 148.4292,18.3354 C148.4292,19.1504 146.0522,19.4144 145.2082,20.8874 C145.0582,21.1704 144.9942,20.9864 144.9512,21.5324" id="Fill-508" fill="#054A8A" mask="url(#mask-2)"></path>
            <path d="M143.991,34.8365 C143.859,34.2185 143.923,31.9485 143.91,31.2445 C144.192,31.4425 144.644,31.6125 144.926,31.7515 C144.926,31.8495 145.075,35.5485 145.032,35.7315 C144.887,35.5485 144.03,34.9175 143.991,34.8365" id="Fill-509" fill="#054A8A" mask="url(#mask-2)"></path>
            <path d="M143.6839,45.7541 C144.0599,45.9501 144.5369,46.1081 145.0449,46.1211 C145.0449,46.9321 144.8999,49.9771 144.3539,49.8201 C143.8459,49.6551 143.6839,47.4911 143.6839,45.7541" id="Fill-510" fill="#054A8A" mask="url(#mask-2)"></path>
            <path d="M143.6454,42.9778 C143.7394,42.4848 143.6494,38.6248 143.5814,38.4418 C143.9434,38.5978 144.4724,38.9568 144.8444,39.4498 C144.8744,41.1418 145.1514,42.6158 144.9514,44.1148 C144.7114,43.9628 143.6844,43.3588 143.6454,42.9778" id="Fill-511" fill="#054A8A" mask="url(#mask-2)"></path>
            <path d="M143.4022,32.3558 L143.4962,34.6928 C143.3082,34.8508 143.2952,35.0738 143.5392,35.2838 C144.4992,36.1808 145.9672,36.7258 146.6362,38.1008 C147.0642,39.2528 146.6242,40.7928 145.3392,41.0298 C145.4082,40.5288 145.3662,39.6728 145.1692,39.0288 C145.0322,38.5618 142.8692,37.4028 141.7202,35.8718 C140.9442,34.8368 141.2382,32.9018 143.4022,32.3558" id="Fill-512" fill="#054A8A" mask="url(#mask-2)"></path>
            <path d="M139.6296,59.5378 C139.5486,59.5378 139.4896,59.5548 139.4366,59.5868 L139.2746,59.0308 C139.4336,58.7488 139.6296,58.5378 139.8606,58.3998 C140.0946,58.2618 140.3586,58.1938 140.6626,58.1938 C141.0416,58.1938 141.3486,58.2888 141.5936,58.4768 C141.8316,58.6598 141.9856,58.8968 142.0536,59.1798 C142.1256,59.4658 142.1556,59.9398 142.1556,60.6078 L142.1556,65.9408 L139.9496,65.9408 L139.9496,60.6708 C139.9496,60.1468 139.9366,59.8288 139.9026,59.7118 C139.8686,59.5948 139.7786,59.5378 139.6296,59.5378" id="Fill-513" fill="#054A8A" mask="url(#mask-2)"></path>
            <path d="M139.3352,59.7387 C139.2922,59.8687 139.2752,60.2227 139.2752,60.7957 L139.2752,65.9417 L137.0642,65.9417 L137.0642,58.3277 L139.3142,58.3277 L139.2752,59.0317 L139.4382,59.5877 C139.3862,59.6227 139.3522,59.6727 139.3352,59.7387" id="Fill-514" fill="#054A8A" mask="url(#mask-2)"></path>
            <path d="M260.6964,39.6774 L260.7814,40.1164 L260.8754,40.5464 L260.9824,40.9664 L261.0984,41.3884 L261.2304,41.7954 L261.3664,42.1984 L261.5194,42.5964 L261.6824,42.9864 L261.8574,43.3674 L262.0444,43.7434 L262.2454,44.1114 L262.4554,44.4694 L262.6764,44.8224 L262.9114,45.1634 L263.1544,45.4984 L263.4104,45.8304 L263.6754,46.1484 L263.9574,46.4614 L264.2424,46.7614 L264.5454,47.0574 L264.8564,47.3434 L265.1774,47.6214 L265.5104,47.8904 L265.8554,48.1494 L266.2064,48.4004 L266.5684,48.6474 L266.9444,48.8844 L267.3274,49.1074 L267.7214,49.3274 L268.1274,49.5424 L268.5404,49.7444 L268.9664,49.9364 L269.3974,50.1244 L269.8414,50.3034 L270.2984,50.4744 L270.7584,50.6354 L271.2334,50.7864 L271.7184,50.9354 L272.2104,51.0744 L272.7134,51.2034 L273.2264,51.3294 L273.7464,51.4414 L274.2804,51.5534 L274.8214,51.6514 L275.3724,51.7454 L275.9364,51.8264 L276.5034,51.9064 L277.0884,51.9744 L277.6764,52.0364 L278.2784,52.0944 L278.8894,52.1394 L279.5074,52.1804 L280.1394,52.2164 L280.7794,52.2384 L281.4284,52.2564 L282.0854,52.2694 L282.7544,52.2694 L283.4214,52.2694 L284.0784,52.2564 L284.7234,52.2384 L285.3634,52.2114 L285.9904,52.1804 L286.6094,52.1354 L287.2194,52.0904 L287.8214,52.0324 L288.4144,51.9694 L288.9944,51.8984 L289.5704,51.8174 L290.1344,51.7324 L290.6934,51.6384 L291.2394,51.5344 L291.7774,51.4224 L292.3064,51.3074 L292.8274,51.1814 L293.3394,51.0464 L293.8424,50.9084 L294.3334,50.7604 L294.8194,50.6034 L295.2944,50.4374 L295.7624,50.2624 L296.2194,50.0844 L296.6674,49.8964 L297.1074,49.6994 L297.5334,49.4934 L297.9564,49.2784 L298.3704,49.0584 L298.7714,48.8304 L299.1644,48.5884 L299.5484,48.3474 L299.9194,48.0914 L300.2824,47.8314 L300.6364,47.5634 L300.9774,47.2854 L301.3064,47.0034 L301.6264,46.7124 L301.9344,46.4124 L302.2324,46.1034 L302.5144,45.7904 L302.7874,45.4724 L303.0474,45.1404 L303.2994,44.8094 L303.5384,44.4644 L303.7604,44.1154 L303.9734,43.7574 L304.1744,43.3934 L304.3664,43.0224 L304.5414,42.6454 L304.7024,42.2654 L304.8574,41.8764 L304.9984,41.4774 L305.1224,41.0744 L305.2364,40.6674 L305.3394,40.2554 L305.4294,39.8344 L305.5094,39.4084 L305.5744,38.9784 L305.6254,38.5404 L305.6674,38.0964 L305.6974,37.6494 L305.7154,37.1964 L305.7234,36.7434 L305.7194,36.5564 L305.7194,36.3724 L305.7154,36.1894 L305.7064,36.0054 L305.6974,35.8274 L305.6854,35.6424 L305.6724,35.4634 L305.6554,35.2844 L305.6384,35.1044 L305.6214,34.9304 L305.5994,34.7514 L305.5744,34.5764 L305.5484,34.4024 L305.5184,34.2224 L305.4884,34.0484 L305.4544,33.8784 L305.4194,33.7074 L305.3864,33.5334 L305.3484,33.3644 L305.3054,33.1934 L305.2624,33.0234 L305.2204,32.8574 L305.2074,32.8164 L305.1684,32.6874 L305.1224,32.5214 L305.0704,32.3604 L305.0154,32.1944 L304.9594,32.0284 L304.8994,31.8674 L304.8404,31.7064 L304.7804,31.5454 L304.7124,31.3844 L304.6484,31.2274 L304.5844,31.0754 L304.5114,30.9184 L304.4394,30.7614 L304.3664,30.6054 L304.2894,30.4524 L304.2124,30.3004 L304.1314,30.1484 L304.0514,30.0004 L303.9654,29.8524 L303.8794,29.7094 L303.7904,29.5614 L303.7014,29.4184 L303.6114,29.2794 L303.5174,29.1364 L303.4194,28.9974 L303.3204,28.8624 L303.2224,28.7284 L303.1204,28.5944 L303.0184,28.4594 L302.9104,28.3294 L302.8004,28.2004 L302.6934,28.0744 L302.5824,27.9494 L302.4674,27.8244 L302.3524,27.6984 L302.2374,27.5774 L302.1174,27.4614 L301.9984,27.3404 L301.8744,27.2234 L301.7504,27.1074 L301.6214,26.9954 L301.4864,26.8784 L301.2514,26.6824 L300.9994,26.4894 L300.7344,26.3014 L300.4574,26.1174 L300.1714,25.9344 L299.8734,25.7554 L299.5614,25.5804 L299.2364,25.4104 L298.8994,25.2404 L298.5534,25.0744 L298.1954,24.9134 L297.8204,24.7524 L297.4364,24.5904 L297.0434,24.4384 L296.6344,24.2814 L296.2104,24.1294 L295.7804,23.9814 L295.3324,23.8334 L294.8744,23.6864 L294.4024,23.5434 L293.9194,23.4044 L293.4194,23.2604 L292.9124,23.1264 L292.3914,22.9884 L291.8534,22.8584 L291.3074,22.7244 L290.7494,22.5934 L290.1764,22.4634 L289.5874,22.3384 L288.9904,22.2124 L288.3794,22.0924 L287.7534,21.9674 L287.6684,21.9534 L287.5814,21.9354 L287.5014,21.9224 L287.4234,21.9084 L287.3434,21.8994 L287.2664,21.8864 L287.1894,21.8774 L287.1384,21.8684 L287.0794,21.8544 L287.0194,21.8414 L286.9584,21.8284 L286.8914,21.8144 L286.8264,21.8014 L286.7584,21.7874 L286.6904,21.7744 L286.6164,21.7604 L286.4814,21.7334 L286.4044,21.7164 L286.3324,21.7024 L286.2544,21.6894 L286.1784,21.6714 L286.0964,21.6584 L286.0154,21.6394 L285.9354,21.6264 L285.8494,21.6094 L285.7684,21.5944 L285.6834,21.5774 L285.5944,21.5584 L285.4184,21.5284 L285.2344,21.4924 L285.1414,21.4744 L285.0424,21.4564 L284.9484,21.4384 L284.7524,21.4024 L284.2064,21.3004 L283.6774,21.1924 L283.1694,21.0854 L282.6834,20.9724 L282.2094,20.8614 L281.8254,20.7614 L281.7574,20.7444 L281.3264,20.6234 L280.9114,20.5074 L280.5154,20.3814 L280.1434,20.2604 L279.7854,20.1304 L279.4474,20.0054 L279.4014,19.9874 L279.1324,19.8754 L278.8334,19.7454 L278.5564,19.6114 L278.3004,19.4814 L278.0614,19.3514 L277.8434,19.2174 L277.6474,19.0874 L277.4714,18.9574 L277.3184,18.8324 L277.1824,18.7114 L277.0634,18.5954 L276.9644,18.4784 L276.8834,18.3714 L276.8154,18.2684 L276.7634,18.1694 L276.7254,18.0794 L276.6954,17.9904 L276.6744,17.9044 L276.6614,17.8154 L276.6574,17.7044 L276.6614,17.6364 L276.6654,17.5564 L276.6694,17.4714 L276.6784,17.3944 L276.6914,17.3184 L276.7044,17.2464 L276.7214,17.1754 L276.7424,17.1034 L276.7594,17.0374 L276.7854,16.9734 L276.8104,16.9064 L276.8364,16.8434 L276.8664,16.7814 L276.9004,16.7234 L276.9354,16.6604 L276.9724,16.5984 L277.0154,16.5394 L277.0584,16.4814 L277.1044,16.4234 L277.1564,16.3644 L277.2114,16.3064 L277.2724,16.2444 L277.3314,16.1854 L277.3954,16.1274 L277.4674,16.0694 L277.5404,16.0104 L277.6174,15.9524 L277.7024,15.8994 L277.7874,15.8414 L277.8774,15.7824 L277.9754,15.7284 L278.0744,15.6754 L278.1724,15.6224 L278.2784,15.5674 L278.3944,15.5184 L278.5094,15.4694 L278.6244,15.4194 L278.7484,15.3704 L278.8764,15.3254 L279.0084,15.2814 L279.1414,15.2414 L279.2814,15.1964 L279.4224,15.1554 L279.5684,15.1194 L279.7214,15.0834 L279.8754,15.0494 L280.0324,15.0124 L280.1954,14.9814 L280.3574,14.9544 L280.5284,14.9274 L280.7034,14.9004 L280.8774,14.8744 L281.0614,14.8514 L281.2444,14.8334 L281.4324,14.8154 L281.6244,14.7974 L281.8214,14.7844 L282.0214,14.7704 L282.2264,14.7574 L282.4304,14.7484 L282.6444,14.7444 L282.8574,14.7394 L283.0794,14.7344 L283.2974,14.7344 L283.5274,14.7344 L283.7544,14.7394 L283.9764,14.7444 L284.1944,14.7524 L284.4034,14.7614 L284.6114,14.7744 L284.8174,14.7884 L285.0174,14.8064 L285.2134,14.8294 L285.4064,14.8464 L285.5944,14.8744 L285.7724,14.8964 L285.9514,14.9274 L286.1264,14.9544 L286.2974,14.9904 L286.4634,15.0214 L286.6214,15.0574 L286.7794,15.0974 L286.9334,15.1384 L287.0794,15.1784 L287.2234,15.2234 L287.3644,15.2684 L287.5014,15.3134 L287.6294,15.3614 L287.7574,15.4104 L287.8814,15.4644 L287.9954,15.5184 L288.1114,15.5724 L288.2184,15.6264 L288.3244,15.6844 L288.4274,15.7414 L288.5254,15.8054 L288.6194,15.8634 L288.7084,15.9254 L288.7944,15.9924 L288.8744,16.0554 L288.9524,16.1184 L289.0294,16.1854 L289.0964,16.2534 L289.1654,16.3194 L289.2294,16.3914 L289.2884,16.4634 L289.3484,16.5344 L289.4044,16.6064 L289.4564,16.6834 L289.5064,16.7544 L289.5544,16.8344 L289.5964,16.9114 L289.6394,16.9914 L289.6774,17.0774 L289.7114,17.1624 L289.7454,17.2464 L289.7794,17.3364 L289.8054,17.4264 L289.8354,17.5244 L289.8564,17.6184 L289.8784,17.7214 L289.8994,17.8244 L289.9124,17.9274 L289.9284,18.0404 L289.9374,18.1514 L289.9464,18.2644 L289.9504,18.3844 L289.9504,18.5134 L289.9504,19.7994 L304.5494,19.7994 L304.4394,18.1114 L304.3964,17.6634 L304.3494,17.2204 L304.2894,16.7854 L304.2254,16.3594 L304.1494,15.9394 L304.0634,15.5224 L303.9694,15.1154 L303.8634,14.7124 L303.7514,14.3184 L303.6274,13.9334 L303.4964,13.5534 L303.3554,13.1764 L303.2014,12.8094 L303.0394,12.4514 L302.8684,12.0974 L302.6894,11.7524 L302.4974,11.4124 L302.3004,11.0804 L302.0914,10.7584 L301.8704,10.4454 L301.6434,10.1364 L301.4044,9.8354 L301.1574,9.5394 L300.9004,9.2574 L300.6364,8.9814 L300.3634,8.7164 L300.0774,8.4574 L299.7874,8.2064 L299.4834,7.9594 L299.1724,7.7264 L298.8534,7.4984 L298.5234,7.2794 L298.1864,7.0674 L297.8374,6.8674 L297.4784,6.6694 L297.1114,6.4824 L296.7364,6.3024 L296.3524,6.1274 L295.9544,5.9624 L295.5504,5.8054 L295.1354,5.6534 L294.7134,5.5104 L294.2784,5.3714 L293.8384,5.2414 L293.3864,5.1204 L292.9244,5.0034 L292.4554,4.8924 L291.9774,4.7894 L291.4914,4.6944 L290.9914,4.6054 L290.4834,4.5244 L289.9714,4.4494 L289.4424,4.3814 L288.9094,4.3194 L288.3674,4.2614 L287.8124,4.2154 L287.2494,4.1714 L286.6784,4.1354 L286.0964,4.1044 L285.5044,4.0814 L284.9064,4.0684 L284.2964,4.0594 L283.6734,4.0544 L283.0254,4.0594 L282.3834,4.0684 L281.7534,4.0864 L281.1294,4.1124 L280.5194,4.1444 L279.9124,4.1854 L279.3154,4.2344 L278.7314,4.2874 L278.1544,4.3454 L277.5834,4.4174 L277.0244,4.4944 L276.4744,4.5784 L275.9314,4.6684 L275.3974,4.7664 L274.8734,4.8744 L274.3614,4.9864 L273.8524,5.1114 L273.3544,5.2374 L272.8674,5.3764 L272.3894,5.5184 L271.9154,5.6714 L271.4554,5.8324 L271.0034,5.9984 L270.5584,6.1734 L270.1234,6.3564 L269.6964,6.5444 L269.2824,6.7464 L268.8724,6.9524 L268.4714,7.1674 L268.0844,7.3914 L267.7034,7.6194 L267.3324,7.8604 L266.9694,8.1074 L266.6194,8.3584 L266.2774,8.6234 L265.9494,8.8914 L265.6294,9.1684 L265.3224,9.4554 L265.0284,9.7464 L264.7424,10.0464 L264.4644,10.3504 L264.2044,10.6694 L263.9524,10.9914 L263.7084,11.3184 L263.4834,11.6534 L263.2654,11.9984 L263.0614,12.3484 L262.8644,12.7054 L262.6854,13.0694 L262.5144,13.4404 L262.5014,13.4684 L262.3564,13.8174 L262.2114,14.2014 L262.0744,14.5914 L261.9554,14.9854 L261.8444,15.3884 L261.7464,15.7964 L261.6614,16.2084 L261.5834,16.6294 L261.5194,17.0494 L261.4684,17.4844 L261.4304,17.9194 L261.4004,18.3574 L261.3834,18.8054 L261.3794,19.2574 L261.3834,19.6114 L261.3964,19.9604 L261.4134,20.3054 L261.4434,20.6464 L261.4774,20.9814 L261.5244,21.3124 L261.5764,21.6444 L261.6134,21.8454 L261.6354,21.9714 L261.7034,22.2894 L261.7804,22.6074 L261.8654,22.9204 L261.9594,23.2294 L262.0664,23.5334 L262.1734,23.8334 L262.2924,24.1294 L262.4204,24.4204 L262.5234,24.6314 L262.5574,24.7074 L262.7024,24.9894 L262.8554,25.2634 L263.0134,25.5364 L263.1844,25.8044 L263.3644,26.0644 L263.5474,26.3204 L263.7424,26.5704 L263.9444,26.8164 L264.1534,27.0584 L264.3704,27.2914 L264.5974,27.5194 L264.8274,27.7484 L265.0704,27.9624 L265.3184,28.1784 L265.5744,28.3834 L265.8384,28.5854 L266.1114,28.7874 L266.3984,28.9844 L266.6964,29.1714 L266.9994,29.3644 L267.3154,29.5484 L267.6394,29.7314 L267.9764,29.9064 L268.3224,30.0814 L268.6774,30.2554 L269.0434,30.4264 L269.4194,30.5864 L269.8034,30.7524 L270.2004,30.9144 L270.6054,31.0704 L271.0244,31.2234 L271.4464,31.3744 L271.8854,31.5234 L272.3294,31.6704 L272.7864,31.8134 L273.2564,31.9534 L273.7294,32.0914 L274.2204,32.2264 L274.7144,32.3604 L275.2234,32.4904 L275.7434,32.6164 L276.2684,32.7404 L276.8104,32.8624 L277.3574,32.9824 L277.9164,33.0994 L278.4874,33.2154 L279.0684,33.3274 L279.1414,33.3404 L279.2094,33.3544 L279.2814,33.3674 L279.4174,33.3904 L279.4954,33.4044 L279.5684,33.4174 L279.6444,33.4304 L279.7254,33.4434 L279.8024,33.4574 L279.8874,33.4714 L279.9694,33.4884 L280.0544,33.5024 L280.1434,33.5154 L280.3574,33.5554 L280.5064,33.5834 L280.6004,33.5964 L280.6984,33.6134 L280.7974,33.6324 L280.8984,33.6494 L281.0014,33.6684 L281.1044,33.6864 L281.2064,33.7034 L281.3304,33.7264 L281.5304,33.7624 L281.7574,33.8024 L281.9914,33.8424 L282.5554,33.9454 L283.1004,34.0534 L283.6254,34.1614 L284.1294,34.2724 L284.6164,34.3884 L285.0814,34.5054 L285.5304,34.6264 L285.9564,34.7464 L286.3664,34.8724 L286.7544,35.0024 L287.1204,35.1324 L287.4714,35.2624 L287.7954,35.3964 L288.1024,35.5304 L288.3934,35.6694 L288.6574,35.8034 L288.9014,35.9424 L289.1264,36.0814 L289.3314,36.2204 L289.5154,36.3554 L289.6774,36.4894 L289.8184,36.6194 L289.9424,36.7434 L290.0444,36.8654 L290.1344,36.9864 L290.2024,37.0984 L290.2624,37.2054 L290.3044,37.3084 L290.3344,37.4114 L290.3594,37.5144 L290.3734,37.6214 L290.3774,37.7474 L290.3774,37.8414 L290.3734,37.9494 L290.3644,38.0564 L290.3564,38.1544 L290.3434,38.2584 L290.3264,38.3514 L290.3094,38.4464 L290.2874,38.5404 L290.2664,38.6244 L290.2414,38.7104 L290.2104,38.7954 L290.1804,38.8754 L290.1464,38.9524 L290.1124,39.0274 L290.0754,39.1044 L290.0324,39.1804 L289.9884,39.2514 L289.9424,39.3194 L289.8954,39.3914 L289.8434,39.4574 L289.7884,39.5254 L289.7334,39.5874 L289.6734,39.6504 L289.6094,39.7174 L289.5414,39.7804 L289.4684,39.8434 L289.3924,39.9014 L289.3144,39.9644 L289.2294,40.0224 L289.1434,40.0804 L289.0504,40.1394 L288.9564,40.1974 L288.8534,40.2504 L288.7514,40.3044 L288.6404,40.3634 L288.5254,40.4124 L288.4054,40.4654 L288.2874,40.5144 L288.1544,40.5644 L288.0214,40.6084 L287.8854,40.6574 L287.7394,40.6984 L287.5954,40.7434 L287.4414,40.7834 L287.2834,40.8234 L287.1204,40.8594 L286.9554,40.8954 L286.7834,40.9314 L286.6094,40.9624 L286.4294,40.9944 L286.2424,41.0214 L286.0544,41.0474 L285.8574,41.0704 L285.6614,41.0924 L285.4574,41.1154 L285.2484,41.1324 L285.0394,41.1504 L284.8214,41.1644 L284.5994,41.1734 L284.3724,41.1814 L284.1424,41.1904 L283.9074,41.1954 L283.6694,41.2004 L283.4254,41.2004 L283.1524,41.2004 L282.8834,41.1954 L282.6234,41.1864 L282.3624,41.1774 L282.1104,41.1644 L281.8634,41.1504 L281.6204,41.1284 L281.3814,41.1104 L281.1504,41.0834 L280.9254,41.0564 L280.7034,41.0304 L280.4894,40.9944 L280.2804,40.9574 L280.0714,40.9224 L279.8754,40.8814 L279.6784,40.8374 L279.4904,40.7924 L279.3074,40.7474 L279.1284,40.6984 L278.9574,40.6444 L278.7914,40.5914 L278.6294,40.5324 L278.4714,40.4744 L278.3214,40.4124 L278.1764,40.3484 L278.0354,40.2864 L277.8994,40.2184 L277.7714,40.1484 L277.6474,40.0804 L277.5284,40.0044 L277.4124,39.9324 L277.3054,39.8564 L277.1994,39.7804 L277.0974,39.7004 L276.9984,39.6194 L276.9054,39.5344 L276.8104,39.4444 L276.7254,39.3554 L276.6394,39.2654 L276.5634,39.1714 L276.4854,39.0774 L276.4094,38.9784 L276.3414,38.8754 L276.2734,38.7724 L276.2094,38.6654 L276.1454,38.5534 L276.0894,38.4414 L276.0344,38.3244 L275.9834,38.2044 L275.9314,38.0834 L275.8844,37.9534 L275.8424,37.8234 L275.8034,37.6894 L275.7654,37.5504 L275.7314,37.4064 L275.7014,37.2634 L275.6754,37.1114 L275.6494,36.9594 L275.6284,36.7984 L275.6114,36.6364 L275.5984,36.4714 L275.5904,36.3004 L275.5854,36.1264 L275.5814,35.9384 L275.5814,34.3214 L264.2044,34.3214 L263.0084,34.3214 L260.4274,34.3214 L260.4274,36.4344 L260.4324,36.9144 L260.4494,37.3894 L260.4784,37.8594 L260.5174,38.3244 L260.5644,38.7824 L260.6284,39.2334 L260.6964,39.6774 Z M198.4154,51.5214 L211.8064,51.5214 L211.8064,27.4564 L211.8064,25.6124 L211.8064,24.7204 L211.8064,20.6364 L212.8954,23.7804 L213.2794,24.8904 L213.8434,26.5124 L222.5144,51.5344 L235.3724,51.5344 L246.1864,20.5744 L246.1864,51.5214 L259.3904,51.5214 L259.3904,30.0234 L259.3904,27.7034 L259.3904,23.3014 L259.3904,20.8964 L259.3904,12.8274 L259.3904,4.6634 L239.8584,4.6634 L237.5914,9.5134 L236.4524,11.9454 L228.9414,28.0034 L225.2324,18.3884 L225.2114,18.3304 L224.7554,17.1434 L219.9404,4.6634 L198.4154,4.6634 L198.4154,30.1744 L198.4154,51.5214 Z M167.9694,34.8404 L165.6184,39.1224 L161.6854,46.2824 L155.7694,42.7044 L155.7694,51.4854 L197.2284,51.4854 L197.2284,39.5704 L168.6794,39.5704 L168.6794,39.1804 L168.6794,34.5054 L189.5174,34.5054 L195.2694,34.5054 L195.2694,31.1734 L195.2694,21.8284 L168.6794,21.8284 L168.6794,21.3704 L168.6794,16.4494 L196.5334,16.4494 L196.5334,4.6284 L155.7694,4.6284 L155.7694,13.2034 L161.2284,9.8934 L167.8594,21.3704 L156.8374,28.0524 L167.9694,34.8404 Z M149.4614,4.3144 L138.9344,4.3144 L138.9344,18.1114 L138.9344,18.4784 L137.3464,17.5164 L137.8754,16.5574 L137.8754,3.2034 L150.5204,3.2034 L150.5204,16.3824 L154.4164,14.0224 L154.4164,3.2084 L197.8864,3.2084 L197.8864,3.2444 L220.8544,3.2444 L229.0604,24.5244 L239.0124,3.2444 L260.7424,3.2444 L260.7424,14.3054 L260.7954,14.1304 L260.9444,13.6954 L261.1104,13.2704 L261.2854,12.8504 L261.4734,12.4334 L261.6774,12.0264 L261.8954,11.6274 L262.1214,11.2334 L262.3644,10.8524 L262.6214,10.4724 L262.8904,10.1044 L263.1714,9.7464 L263.4624,9.3974 L263.7694,9.0564 L264.0844,8.7254 L264.4134,8.4034 L264.7544,8.0904 L265.1004,7.7854 L265.4634,7.4894 L265.8344,7.2024 L266.2184,6.9254 L266.6114,6.6564 L267.0124,6.4014 L267.4214,6.1504 L267.8404,5.9124 L268.2714,5.6804 L268.7064,5.4614 L269.1504,5.2454 L269.6074,5.0444 L270.0684,4.8474 L270.5414,4.6634 L271.0194,4.4854 L271.5054,4.3194 L272.0004,4.1574 L272.5094,4.0054 L273.0214,3.8614 L273.5414,3.7274 L274.0704,3.6024 L274.6084,3.4814 L275.1544,3.3694 L275.7044,3.2714 L276.2684,3.1724 L276.8414,3.0874 L277.4214,3.0064 L278.0054,2.9354 L278.6034,2.8724 L279.2054,2.8194 L279.8184,2.7704 L280.4424,2.7294 L281.0704,2.6934 L281.7104,2.6664 L282.3544,2.6484 L283.0114,2.6394 L283.6734,2.6354 L284.3084,2.6394 L284.9324,2.6484 L285.5464,2.6664 L286.1524,2.6894 L286.7494,2.7154 L287.3384,2.7554 L287.9194,2.7964 L288.4864,2.8494 L289.0504,2.9044 L289.6054,2.9704 L290.1464,3.0424 L290.6804,3.1194 L291.2094,3.2034 L291.7304,3.2984 L292.2384,3.3964 L292.7374,3.5034 L293.2324,3.6204 L293.7144,3.7414 L294.1884,3.8714 L294.6564,4.0104 L295.1184,4.1534 L295.5664,4.3104 L296.0064,4.4664 L296.4424,4.6364 L296.8684,4.8164 L297.2824,5.0034 L297.6914,5.2014 L298.0884,5.4024 L298.4774,5.6174 L298.8604,5.8364 L299.2324,6.0704 L299.5954,6.3114 L299.9494,6.5624 L300.2904,6.8224 L300.6274,7.0914 L300.9524,7.3684 L301.2684,7.6594 L301.5754,7.9594 L301.8704,8.2634 L302.1554,8.5824 L302.4334,8.9084 L302.6974,9.2454 L302.9544,9.5904 L303.1964,9.9434 L303.4324,10.3024 L303.6534,10.6724 L303.8674,11.0494 L304.0674,11.4344 L304.2554,11.8284 L304.4344,12.2274 L304.6014,12.6304 L304.7594,13.0464 L304.9044,13.4634 L305.0414,13.8924 L305.1644,14.3234 L305.2794,14.7614 L305.3824,15.2054 L305.4754,15.6564 L305.5574,16.1144 L305.6304,16.5754 L305.6934,17.0414 L305.7444,17.5164 L305.7874,17.9944 L306.0014,21.2234 L291.1024,21.2234 L291.6064,21.3394 L292.1654,21.4744 L292.7064,21.6094 L293.2454,21.7474 L293.7654,21.8904 L294.2734,22.0334 L294.7734,22.1774 L295.2594,22.3254 L295.7294,22.4764 L296.1944,22.6294 L296.6414,22.7854 L297.0814,22.9434 L297.5084,23.1044 L297.9224,23.2694 L298.3284,23.4354 L298.7204,23.6064 L299.1044,23.7804 L299.4764,23.9554 L299.8344,24.1384 L300.1844,24.3224 L300.5254,24.5154 L300.8494,24.7074 L301.1704,24.9094 L301.4824,25.1144 L301.7754,25.3294 L302.0664,25.5494 L302.3394,25.7724 L302.4974,25.9114 L302.6374,26.0374 L302.7744,26.1674 L302.9104,26.2964 L303.0474,26.4264 L303.1804,26.5614 L303.3124,26.7004 L303.4404,26.8344 L303.5634,26.9724 L303.6914,27.1164 L303.8154,27.2604 L303.9354,27.4034 L304.0544,27.5514 L304.1704,27.6984 L304.2854,27.8504 L304.3964,27.9994 L304.5074,28.1554 L304.6134,28.3124 L304.7214,28.4684 L304.8234,28.6254 L304.9254,28.7914 L305.0234,28.9524 L305.1224,29.1134 L305.2154,29.2794 L305.3094,29.4494 L305.3994,29.6154 L305.4844,29.7844 L305.5704,29.9554 L305.6554,30.1304 L305.7364,30.3094 L305.8134,30.4834 L305.8854,30.6544 L305.9534,30.8194 L306.0264,30.9994 L306.0994,31.1784 L306.1634,31.3574 L306.2314,31.5404 L306.2914,31.7244 L306.3554,31.9074 L306.4104,32.0914 L306.4654,32.2754 L306.5174,32.4634 L306.5684,32.6514 L306.6154,32.8354 L306.6624,33.0274 L306.7054,33.2154 L306.7444,33.4084 L306.7824,33.5964 L306.8204,33.7844 L306.8544,33.9814 L306.8844,34.1734 L306.9094,34.3664 L306.9394,34.5634 L306.9604,34.7554 L306.9824,34.9484 L307.0034,35.1494 L307.0214,35.3474 L307.0334,35.5444 L307.0464,35.7414 L307.0594,35.9384 L307.0634,36.1394 L307.0724,36.3364 L307.0724,36.5384 L307.0764,36.7494 L307.0684,37.2374 L307.0514,37.7294 L307.0164,38.2174 L306.9734,38.7014 L306.9144,39.1804 L306.8414,39.6544 L306.7564,40.1254 L306.6534,40.5864 L306.5434,41.0474 L306.4154,41.4994 L306.2744,41.9484 L306.1164,42.3874 L305.9494,42.8204 L305.7664,43.2514 L305.5704,43.6714 L305.3564,44.0834 L305.1354,44.4914 L304.8954,44.8894 L304.6434,45.2794 L304.3794,45.6644 L304.1024,46.0354 L303.8114,46.3994 L303.5084,46.7574 L303.1964,47.1014 L302.8684,47.4374 L302.5314,47.7684 L302.1814,48.0874 L301.8184,48.3964 L301.4474,48.7004 L301.0634,48.9914 L300.6704,49.2734 L300.2644,49.5464 L299.8554,49.8114 L299.4334,50.0664 L299.0024,50.3134 L298.5584,50.5494 L298.1104,50.7784 L297.6544,50.9974 L297.1844,51.2084 L296.7104,51.4044 L296.2244,51.5984 L295.7334,51.7814 L295.2304,51.9554 L294.7214,52.1174 L294.2004,52.2734 L293.6764,52.4224 L293.1424,52.5654 L292.5964,52.6954 L292.0464,52.8164 L291.4864,52.9324 L290.9194,53.0344 L290.3384,53.1344 L289.7544,53.2234 L289.1604,53.3044 L288.5594,53.3794 L287.9484,53.4474 L287.3304,53.5054 L286.7034,53.5554 L286.0664,53.5944 L285.4224,53.6304 L284.7694,53.6584 L284.1084,53.6754 L283.4334,53.6894 L282.7544,53.6934 L282.0724,53.6894 L281.3974,53.6754 L280.7364,53.6584 L280.0794,53.6304 L279.4314,53.5994 L278.7954,53.5554 L278.1674,53.5094 L277.5494,53.4514 L276.9424,53.3894 L276.3414,53.3124 L275.7524,53.2374 L275.1724,53.1464 L274.5954,53.0534 L274.0324,52.9454 L273.4814,52.8344 L272.9354,52.7124 L272.3974,52.5874 L271.8734,52.4494 L271.3564,52.3054 L270.8444,52.1484 L270.3454,51.9874 L269.8554,51.8134 L269.3724,51.6334 L268.9034,51.4454 L268.4384,51.2444 L267.9804,51.0374 L267.5374,50.8184 L267.1024,50.5904 L266.6794,50.3574 L266.2614,50.1064 L265.8554,49.8514 L265.4594,49.5874 L265.0784,49.3144 L264.6994,49.0274 L264.3364,48.7324 L263.9784,48.4274 L263.6364,48.1104 L263.3044,47.7824 L262.9834,47.4474 L262.6764,47.1014 L262.3784,46.7484 L262.0924,46.3814 L261.8194,46.0094 L261.5584,45.6244 L261.3154,45.2304 L261.0804,44.8314 L260.8594,44.4244 L260.7424,44.1914 L260.7424,52.9414 L244.8334,52.9414 L244.8334,28.5724 L236.3204,52.9554 L221.5674,52.9554 L213.1604,28.6934 L213.1604,52.9414 L197.0624,52.9414 L197.0624,52.9054 L154.4164,52.9054 L154.4164,41.8844 L154.9334,40.9534 L161.3934,44.9034 L166.5234,35.2394 L154.7284,28.0474 L166.4174,20.9634 L160.9294,11.3544 L149.4614,18.3394 L149.4614,18.3354 L149.4614,4.3144 Z M289.0254,37.8684 L289.0254,37.8004 L289.0024,37.7744 L288.9604,37.7254 L288.9014,37.6574 L288.8154,37.5814 L288.7044,37.4914 L288.5764,37.3984 L288.4224,37.2954 L288.2444,37.1834 L288.0384,37.0714 L287.8124,36.9544 L287.5654,36.8334 L287.2924,36.7134 L286.9934,36.5924 L286.6784,36.4714 L286.3364,36.3504 L285.9734,36.2344 L285.5894,36.1124 L285.1844,35.9964 L284.7574,35.8844 L284.3084,35.7724 L283.8434,35.6614 L283.3524,35.5524 L282.8454,35.4454 L282.3164,35.3474 L281.7614,35.2434 L281.5304,35.2034 L281.3034,35.1624 L281.1044,35.1284 L280.9804,35.1044 L280.8774,35.0874 L280.7794,35.0694 L280.6734,35.0514 L280.5744,35.0344 L280.4764,35.0154 L280.3784,34.9984 L280.2844,34.9794 L280.1354,34.9574 L279.9174,34.9174 L279.8324,34.9044 L279.7474,34.8854 L279.6624,34.8724 L279.5804,34.8594 L279.4994,34.8454 L279.4224,34.8324 L279.3464,34.8194 L279.2734,34.8044 L279.1924,34.7924 L279.0554,34.7644 L278.9794,34.7514 L278.9104,34.7384 L278.8334,34.7244 L278.2364,34.6084 L277.6554,34.4914 L277.0884,34.3754 L276.9354,34.3394 L276.9354,35.9294 L276.9384,36.0954 L276.9424,36.2384 L276.9514,36.3724 L276.9594,36.5024 L276.9724,36.6284 L276.9904,36.7534 L277.0064,36.8694 L277.0284,36.9774 L277.0504,37.0844 L277.0754,37.1924 L277.1004,37.2864 L277.1264,37.3764 L277.1564,37.4694 L277.1874,37.5544 L277.2204,37.6354 L277.2544,37.7114 L277.2884,37.7874 L277.3264,37.8594 L277.3654,37.9264 L277.4044,37.9934 L277.4464,38.0564 L277.4894,38.1194 L277.5354,38.1824 L277.5834,38.2394 L277.6344,38.2984 L277.6854,38.3564 L277.7374,38.4094 L277.7964,38.4684 L277.8604,38.5224 L277.9244,38.5754 L277.9934,38.6294 L278.0654,38.6824 L278.1384,38.7334 L278.2194,38.7864 L278.3044,38.8404 L278.3974,38.8894 L278.4964,38.9424 L278.5984,38.9914 L278.7054,39.0424 L278.8254,39.0954 L278.9444,39.1444 L279.0734,39.1894 L279.2054,39.2384 L279.3464,39.2834 L279.4954,39.3284 L279.6444,39.3734 L279.8064,39.4134 L279.9694,39.4534 L280.1394,39.4894 L280.3184,39.5254 L280.5014,39.5604 L280.6894,39.5924 L280.8864,39.6194 L281.0864,39.6464 L281.2964,39.6734 L281.5094,39.6954 L281.7324,39.7134 L281.9524,39.7314 L282.1834,39.7494 L282.4184,39.7584 L282.6654,39.7664 L282.9134,39.7754 L283.1644,39.7804 L283.4254,39.7804 L283.6554,39.7804 L283.8864,39.7754 L284.1084,39.7714 L284.3224,39.7664 L284.5354,39.7584 L284.7444,39.7454 L284.9454,39.7314 L285.1454,39.7174 L285.3374,39.7004 L285.5254,39.6814 L285.7084,39.6594 L285.8834,39.6374 L286.0594,39.6154 L286.2244,39.5874 L286.3874,39.5604 L286.5414,39.5344 L286.6944,39.5024 L286.8394,39.4714 L286.9804,39.4404 L287.1174,39.4044 L287.2444,39.3684 L287.3724,39.3324 L287.4874,39.2964 L287.5994,39.2614 L287.7104,39.2204 L287.8124,39.1844 L287.9064,39.1444 L287.9954,39.1084 L288.0814,39.0684 L288.1634,39.0274 L288.2344,38.9874 L288.3084,38.9524 L288.3724,38.9114 L288.4314,38.8754 L288.4864,38.8404 L288.5344,38.8044 L288.5804,38.7684 L288.6194,38.7374 L288.6574,38.7014 L288.6954,38.6694 L288.7254,38.6384 L288.7514,38.6074 L288.7774,38.5804 L288.8024,38.5484 L288.8194,38.5264 L288.8414,38.4994 L288.8584,38.4684 L288.8744,38.4414 L288.8924,38.4144 L288.9054,38.3834 L288.9174,38.3564 L288.9314,38.3294 L288.9434,38.2894 L288.9564,38.2584 L288.9654,38.2224 L288.9774,38.1824 L288.9864,38.1374 L288.9984,38.0924 L289.0074,38.0384 L289.0114,37.9854 L289.0204,37.9304 L289.0254,37.8684 Z M288.5974,20.6914 L288.5974,18.5224 L288.5974,18.4204 L288.5934,18.3444 L288.5894,18.2684 L288.5854,18.1964 L288.5764,18.1334 L288.5644,18.0664 L288.5554,18.0084 L288.5424,17.9554 L288.5294,17.9044 L288.5164,17.8514 L288.4994,17.8064 L288.4864,17.7614 L288.4704,17.7214 L288.4524,17.6804 L288.4364,17.6464 L288.4184,17.6104 L288.3974,17.5694 L288.3764,17.5384 L288.3544,17.5024 L288.3294,17.4654 L288.3034,17.4354 L288.2734,17.3994 L288.2444,17.3634 L288.2094,17.3274 L288.1754,17.2924 L288.1364,17.2564 L288.0944,17.2154 L288.0474,17.1804 L288.0004,17.1394 L287.9454,17.0984 L287.8854,17.0584 L287.8254,17.0184 L287.7574,16.9784 L287.6844,16.9374 L287.6114,16.8984 L287.5314,16.8534 L287.4454,16.8134 L287.3604,16.7764 L287.2624,16.7324 L287.1644,16.6964 L287.0614,16.6554 L286.9514,16.6204 L286.8354,16.5794 L286.7154,16.5444 L286.5914,16.5084 L286.4634,16.4764 L286.3324,16.4454 L286.1904,16.4144 L286.0454,16.3824 L285.8964,16.3554 L285.7434,16.3294 L285.5844,16.3014 L285.4184,16.2804 L285.2524,16.2574 L285.0764,16.2404 L284.8974,16.2214 L284.7144,16.2084 L284.5264,16.1904 L284.3344,16.1814 L284.1384,16.1724 L283.9334,16.1634 L283.7284,16.1584 L283.5144,16.1544 L283.2974,16.1544 L283.0934,16.1544 L282.8834,16.1584 L282.6794,16.1634 L282.4824,16.1674 L282.2904,16.1764 L282.0984,16.1854 L281.9104,16.1994 L281.7324,16.2124 L281.5564,16.2254 L281.3814,16.2444 L281.2104,16.2664 L281.0444,16.2844 L280.8864,16.3064 L280.7284,16.3294 L280.5744,16.3554 L280.4294,16.3824 L280.2894,16.4094 L280.1484,16.4364 L280.0154,16.4674 L279.8824,16.4994 L279.7594,16.5344 L279.6404,16.5664 L279.5244,16.6024 L279.4144,16.6384 L279.3074,16.6734 L279.2004,16.7094 L279.1024,16.7494 L279.0124,16.7854 L278.9234,16.8264 L278.8334,16.8624 L278.7574,16.9024 L278.6884,16.9374 L278.6194,16.9734 L278.5564,17.0144 L278.4924,17.0544 L278.4324,17.0904 L278.3814,17.1264 L278.3344,17.1624 L278.2914,17.1934 L278.2574,17.2244 L278.2234,17.2564 L278.1934,17.2824 L278.1674,17.3094 L278.1464,17.3314 L278.1294,17.3544 L278.1124,17.3764 L278.0954,17.3944 L278.0864,17.4074 L278.0784,17.4264 L278.0694,17.4394 L278.0614,17.4524 L278.0564,17.4614 L278.0484,17.4754 L278.0444,17.4884 L278.0394,17.5024 L278.0354,17.5164 L278.0314,17.5334 L278.0264,17.5514 L278.0234,17.5734 L278.0234,17.5874 L278.0354,17.6004 L278.0904,17.6584 L278.1674,17.7314 L278.2704,17.8114 L278.3974,17.9044 L278.5444,18.0044 L278.7184,18.1064 L278.9104,18.2134 L279.1324,18.3264 L279.3754,18.4424 L279.6354,18.5584 L279.9224,18.6754 L280.2334,18.7924 L280.5624,18.9084 L280.9114,19.0254 L281.2834,19.1414 L281.6754,19.2534 L282.0894,19.3654 L282.5204,19.4774 L282.9774,19.5894 L283.4464,19.6964 L283.9414,19.7994 L284.4544,19.9024 L284.9914,20.0054 L285.1844,20.0414 L285.2814,20.0594 L285.3804,20.0774 L285.4744,20.0944 L285.6584,20.1304 L285.8364,20.1624 L285.9264,20.1794 L286.0074,20.1984 L286.0964,20.2114 L286.1824,20.2294 L286.2634,20.2474 L286.3444,20.2604 L286.4294,20.2784 L286.5064,20.2924 L286.5794,20.3104 L286.6514,20.3234 L286.7334,20.3374 L286.8734,20.3674 L286.9464,20.3814 L287.0194,20.3944 L287.0824,20.4084 L287.1504,20.4224 L287.2194,20.4354 L287.2784,20.4484 L287.3434,20.4624 L287.3984,20.4754 L287.4324,20.4804 L287.5314,20.4934 L287.6334,20.5074 L287.7184,20.5254 L287.8084,20.5384 L287.9024,20.5564 L287.9914,20.5694 L288.5974,20.6914 Z M260.7424,32.9024 L271.5484,32.9024 L271.4764,32.8754 L271.0244,32.7234 L270.5804,32.5654 L270.1494,32.4054 L269.7224,32.2394 L269.3084,32.0734 L268.9034,31.9034 L268.5104,31.7284 L268.1224,31.5494 L267.7464,31.3654 L267.3794,31.1784 L267.0174,30.9904 L266.6664,30.7924 L266.3254,30.5964 L265.9974,30.3904 L265.6724,30.1794 L265.3604,29.9644 L265.0534,29.7444 L264.7594,29.5164 L264.4734,29.2884 L264.2004,29.0514 L263.9304,28.8044 L263.6674,28.5534 L263.4144,28.2934 L263.1674,28.0294 L262.9334,27.7614 L262.7024,27.4844 L262.4844,27.1974 L262.2704,26.9064 L262.0714,26.6104 L261.8794,26.3054 L261.6954,25.9964 L261.5194,25.6794 L261.3584,25.3614 L261.2004,25.0344 L261.0544,24.7024 L260.9224,24.3664 L260.7954,24.0264 L260.7424,23.8704 L260.7424,32.9024 Z M197.0624,38.1504 L197.0624,20.4084 L197.0624,17.8694 L170.0324,17.8694 L170.0324,20.4084 L196.6234,20.4084 L196.6234,35.9254 L170.0324,35.9254 L170.0324,38.1504 L197.0624,38.1504 Z" id="Fill-515" fill="#054A8A" mask="url(#mask-2)"></path>
            <path d="M133.4543,58.1942 C134.0733,58.1942 134.5843,58.3152 134.9863,58.5612 C135.3913,58.8072 135.6733,59.1342 135.8353,59.5422 C135.9983,59.9492 136.0793,60.5222 136.0793,61.2622 L136.0793,62.2702 L133.2203,62.2702 L133.2203,63.9172 C133.2203,64.2622 133.2453,64.4812 133.2873,64.5792 C133.3393,64.6782 133.4293,64.7272 133.5653,64.7272 C133.7313,64.7272 133.8423,64.6642 133.8983,64.5302 C133.9583,64.4002 133.9833,64.1452 133.9833,63.7652 L133.9833,62.7622 L136.0793,62.7622 L136.0793,63.3262 C136.0793,63.7952 136.0493,64.1542 135.9943,64.4092 C135.9383,64.6602 135.8063,64.9292 135.5973,65.2162 C135.3873,65.5022 135.1273,65.7172 134.8073,65.8602 C134.4873,66.0032 134.0893,66.0752 133.6083,66.0752 C133.1423,66.0752 132.7283,66.0032 132.3703,65.8652 C132.0163,65.7222 131.7383,65.5292 131.5383,65.2832 C131.3413,65.0362 131.2013,64.7632 131.1233,64.4682 C131.0523,64.1722 131.0133,63.7422 131.0133,63.1732 L131.0133,60.9572 C131.0133,60.2902 131.0983,59.7662 131.2693,59.3812 C131.4403,59.0002 131.7213,58.7052 132.1093,58.4992 C132.5023,58.2922 132.9463,58.1942 133.4543,58.1942 L133.4543,58.1942 Z M133.8643,61.0282 L133.8643,60.4732 C133.8643,60.0792 133.8423,59.8292 133.8043,59.7122 C133.7613,59.5962 133.6813,59.5382 133.5573,59.5382 C133.4073,59.5382 133.3093,59.5872 133.2753,59.6852 C133.2363,59.7842 133.2203,60.0482 133.2203,60.4732 L133.2203,61.0282 L133.8643,61.0282 Z" id="Fill-516" fill="#054A8A" mask="url(#mask-2)"></path>
            <path d="M127.4585,63.7197 C127.6085,63.7197 127.7015,63.6577 127.7445,63.5367 C127.7865,63.4147 127.8135,63.1377 127.8135,62.7077 L127.8135,60.3477 C127.8135,60.0037 127.7915,59.7787 127.7525,59.6847 C127.7145,59.5867 127.6285,59.5377 127.5015,59.5377 C127.3735,59.5377 127.2795,59.5947 127.2275,59.7037 C127.1765,59.8147 127.1465,60.0257 127.1465,60.3477 L127.1465,62.9047 C127.1465,63.2457 127.1675,63.4687 127.2105,63.5677 C127.2495,63.6707 127.3345,63.7197 127.4585,63.7197 M127.8135,58.9027 L127.9705,58.3287 L130.0235,58.3287 L130.0235,64.1907 C130.0235,64.9827 130.0065,65.4937 129.9725,65.7207 C129.9385,65.9547 129.8145,66.2007 129.6055,66.4557 C129.3915,66.7157 129.0975,66.9127 128.7215,67.0467 C128.3455,67.1857 127.8685,67.2527 127.2965,67.2527 C126.5965,67.2527 126.0285,67.1267 125.6025,66.8777 C125.1755,66.6267 124.9575,66.1337 124.9405,65.3987 L127.0825,65.3987 C127.0825,65.7347 127.2015,65.9057 127.4335,65.9057 C127.6035,65.9057 127.7105,65.8507 127.7655,65.7487 C127.8205,65.6457 127.8465,65.4307 127.8465,65.1037 L127.8465,64.5257 C127.6595,64.7097 127.4585,64.8447 127.2495,64.9337 C127.0395,65.0277 126.8235,65.0727 126.5925,65.0727 C126.1955,65.0727 125.8665,64.9917 125.6105,64.8217 C125.3545,64.6507 125.1795,64.4317 125.0855,64.1587 C124.9875,63.8857 124.9405,63.4967 124.9405,62.9897 L124.9405,60.2277 C124.9405,59.5057 125.0635,58.9857 125.3115,58.6687 C125.5635,58.3507 125.9395,58.1937 126.4425,58.1937 C126.7205,58.1937 126.9725,58.2527 127.2015,58.3687 C127.4285,58.4897 127.6325,58.6637 127.8135,58.9027" id="Fill-517" fill="#054A8A" mask="url(#mask-2)"></path>
            <path d="M124.2494,58.1942 L124.2494,60.8722 C123.8444,60.8722 123.5494,60.9252 123.3574,61.0422 C123.1694,61.1582 123.0504,61.3152 123.0074,61.5212 C122.9654,61.7272 122.9434,62.1972 122.9434,62.9362 L122.9434,65.9412 L120.7374,65.9412 L120.7374,58.3282 L122.9434,58.3282 L122.8584,59.3272 C123.1784,58.6152 123.6434,58.2342 124.2494,58.1942" id="Fill-518" fill="#054A8A" mask="url(#mask-2)"></path>
            <path d="M125.7899,24.4791 L122.2099,33.2061 L131.3759,27.7661 L125.7899,24.4791 Z M133.5359,27.7621 L121.8419,34.7021 L127.2449,44.6971 L138.9339,37.6131 L138.9339,51.7771 L149.4619,51.7771 L149.4619,37.6131 L154.9329,40.9531 L154.4169,41.8851 L150.5199,39.5301 L150.5199,52.8871 L137.8759,52.8871 L137.8759,39.5381 L126.8489,46.2201 L121.1809,35.7231 L114.0959,52.9811 L97.0259,52.9811 L80.3359,10.6381 L68.7369,52.9811 L50.6929,52.9811 L43.1569,23.7991 L34.6169,52.9811 L17.0009,52.9811 L3.5069,3.4811 L19.4329,3.4811 L26.9099,33.5471 L35.8979,3.4811 L52.1659,3.4811 L60.0989,34.0441 L67.6569,3.4811 L94.2779,3.4811 L106.3129,35.9701 L118.7569,3.4811 L134.4059,3.4811 L130.7999,12.2721 L137.8759,16.5571 L137.3459,17.5161 L127.2449,11.3991 L121.9789,20.9631 L133.5359,27.7621 Z" id="Fill-519" fill="#054A8A" mask="url(#mask-2)"></path>
            <path d="M125.7899,24.4791 L122.2099,33.2061 L131.3759,27.7661 L125.7899,24.4791 Z M133.5359,27.7621 L121.8419,34.7021 L127.2449,44.6971 L138.9339,37.6131 L138.9339,51.7771 L149.4619,51.7771 L149.4619,37.6131 L154.9329,40.9531 L154.4169,41.8851 L150.5199,39.5301 L150.5199,52.8871 L137.8759,52.8871 L137.8759,39.5381 L126.8489,46.2201 L121.1809,35.7231 L114.0959,52.9811 L97.0259,52.9811 L80.3359,10.6381 L68.7369,52.9811 L50.6929,52.9811 L43.1569,23.7991 L34.6169,52.9811 L17.0009,52.9811 L3.5069,3.4811 L19.4329,3.4811 L26.9099,33.5471 L35.8979,3.4811 L52.1659,3.4811 L60.0989,34.0441 L67.6569,3.4811 L94.2779,3.4811 L106.3129,35.9701 L118.7569,3.4811 L134.4059,3.4811 L130.7999,12.2721 L137.8759,16.5571 L137.3459,17.5161 L127.2449,11.3991 L121.9789,20.9631 L133.5359,27.7621 Z" id="Stroke-520" stroke="#FFFFFE" stroke-width="0.439" mask="url(#mask-2)"></path>
            <path d="M117.1223,58.1942 C117.7413,58.1942 118.2533,58.3152 118.6543,58.5612 C119.0593,58.8072 119.3413,59.1342 119.5033,59.5422 C119.6663,59.9492 119.7473,60.5222 119.7473,61.2622 L119.7473,62.2702 L116.8883,62.2702 L116.8883,63.9172 C116.8883,64.2622 116.9133,64.4812 116.9603,64.5792 C117.0073,64.6782 117.1013,64.7272 117.2333,64.7272 C117.3993,64.7272 117.5143,64.6642 117.5703,64.5302 C117.6263,64.4002 117.6563,64.1452 117.6563,63.7652 L117.6563,62.7622 L119.7473,62.7622 L119.7473,63.3262 C119.7473,63.7952 119.7173,64.1542 119.6623,64.4092 C119.6063,64.6602 119.4743,64.9292 119.2653,65.2162 C119.0553,65.5022 118.7953,65.7172 118.4753,65.8602 C118.1593,66.0032 117.7573,66.0752 117.2763,66.0752 C116.8113,66.0752 116.4003,66.0032 116.0423,65.8652 C115.6843,65.7222 115.4073,65.5292 115.2113,65.2832 C115.0093,65.0362 114.8743,64.7632 114.7963,64.4682 C114.7203,64.1722 114.6813,63.7422 114.6813,63.1732 L114.6813,60.9572 C114.6813,60.2902 114.7663,59.7662 114.9373,59.3812 C115.1083,59.0002 115.3893,58.7052 115.7823,58.4992 C116.1703,58.2922 116.6183,58.1942 117.1223,58.1942 L117.1223,58.1942 Z M117.5323,61.0282 L117.5323,60.4732 C117.5323,60.0792 117.5143,59.8292 117.4723,59.7122 C117.4343,59.5962 117.3533,59.5382 117.2293,59.5382 C117.0763,59.5382 116.9823,59.5872 116.9433,59.6852 C116.9083,59.7842 116.8883,60.0482 116.8883,60.4732 L116.8883,61.0282 L117.5323,61.0282 Z" id="Fill-521" fill="#054A8A" mask="url(#mask-2)"></path>
            <path d="M111.2245,59.5378 C111.1435,59.5378 111.0795,59.5608 111.0285,59.5948 L110.8055,59.0538 C110.9935,58.7668 111.2035,58.5528 111.4335,58.4088 C111.6685,58.2658 111.9285,58.1938 112.2105,58.1938 C112.5855,58.1938 112.8975,58.2888 113.1445,58.4768 C113.3885,58.6688 113.5465,58.9058 113.6145,59.1798 C113.6825,59.4568 113.7205,59.9088 113.7205,60.5328 L113.7205,65.9408 L111.5795,65.9408 L111.5795,60.9798 C111.5795,60.3308 111.5575,59.9268 111.5155,59.7698 C111.4725,59.6188 111.3745,59.5378 111.2245,59.5378" id="Fill-522" fill="#054A8A" mask="url(#mask-2)"></path>
            <path d="M110.9175,59.7704 C110.8745,59.9224 110.8535,60.3254 110.8535,60.9794 L110.8535,65.9414 L108.7075,65.9414 L108.7075,61.1044 C108.7075,60.3564 108.6895,59.9134 108.6555,59.7664 C108.6215,59.6134 108.5275,59.5374 108.3695,59.5374 C108.3185,59.5374 108.2755,59.5464 108.2335,59.5684 L107.9945,59.0534 C108.1645,58.7674 108.3695,58.5514 108.6045,58.4094 C108.8385,58.2654 109.1115,58.1934 109.4155,58.1934 C110.0045,58.1934 110.4695,58.4764 110.8065,59.0534 L111.0275,59.5954 C110.9775,59.6354 110.9385,59.6934 110.9175,59.7704" id="Fill-523" fill="#054A8A" mask="url(#mask-2)"></path>
            <path d="M108.1178,59.6584 C108.0498,59.7394 108.0108,59.8284 108.0028,59.9444 C107.9938,60.0574 107.9938,60.2984 107.9938,60.6654 L107.9938,65.9414 L105.8518,65.9414 L105.8518,58.3284 L108.0328,58.3284 L107.9938,59.0534 L108.2328,59.5694 C108.1908,59.5864 108.1518,59.6184 108.1178,59.6584" id="Fill-524" fill="#054A8A" mask="url(#mask-2)"></path>
            <polygon id="Fill-525" fill="#054A8A" mask="url(#mask-2)" points="104.9898 64.0828 104.9898 65.9408 100.9998 65.9408 100.9998 56.6578 104.8368 56.6578 104.8368 58.5128 103.2998 58.5128 103.2998 60.2718 104.7378 60.2718 104.7378 62.0408 103.2998 62.0408 103.2998 64.0828"></polygon>
            <path d="M95.1017,64.5574 C95.1477,64.6744 95.2467,64.7274 95.3917,64.7274 C95.5327,64.7274 95.6177,64.6834 95.6647,64.5934 C95.7027,64.5034 95.7247,64.2664 95.7247,63.8854 L95.7247,62.3174 C95.3707,62.5914 95.1657,62.8204 95.1107,63.0044 C95.0547,63.1874 95.0287,63.4514 95.0287,63.7964 C95.0287,64.1864 95.0507,64.4404 95.1017,64.5574 M95.2637,65.8744 C95.0507,66.0084 94.7987,66.0754 94.4997,66.0754 C94.1157,66.0754 93.7617,65.9634 93.4377,65.7354 C93.1167,65.5074 92.9547,65.0094 92.9547,64.2444 L92.9547,63.6174 C92.9547,63.0484 93.0407,62.6594 93.2117,62.4534 C93.3827,62.2464 93.8087,62.0054 94.4867,61.7324 C95.2087,61.4314 95.5967,61.2304 95.6477,61.1264 C95.6987,61.0244 95.7247,60.8144 95.7247,60.5004 C95.7247,60.1014 95.6957,59.8424 95.6397,59.7204 C95.5837,59.5994 95.4897,59.5374 95.3577,59.5374 C95.2087,59.5374 95.1147,59.5914 95.0807,59.6894 C95.0417,59.7934 95.0287,60.0574 95.0287,60.4814 L95.0287,61.2744 L92.9547,61.2744 L92.9547,60.7644 C92.9547,60.1774 93.0187,59.7254 93.1477,59.4074 C93.2797,59.0854 93.5397,58.8024 93.9287,58.5574 C94.3157,58.3154 94.8247,58.1934 95.4477,58.1934 C96.1947,58.1934 96.7567,58.3334 97.1327,58.6064 C97.5177,58.8834 97.7437,59.2244 97.8197,59.6264 C97.8977,60.0344 97.9307,60.8634 97.9307,62.1214 L97.9307,65.9414 L95.7847,65.9414 L95.7847,65.2604 C95.6527,65.5334 95.4777,65.7404 95.2637,65.8744" id="Fill-526" fill="#054A8A" mask="url(#mask-2)"></path>
            <polygon id="Fill-527" fill="#054A8A" mask="url(#mask-2)" points="89.721 65.941 91.995 65.941 91.995 58.328 89.721 58.328"></polygon>
            <polygon id="Fill-528" fill="#FFFFFE" mask="url(#mask-2)" points="89.721 57.867 91.995 57.867 91.995 56.659 89.721 56.659"></polygon>
            <path d="M86.1611,59.5378 C86.0851,59.5378 86.0161,59.5548 85.9691,59.5868 L85.8061,59.0308 C85.9651,58.7488 86.1611,58.5378 86.3921,58.3998 C86.6261,58.2618 86.8901,58.1938 87.1941,58.1938 C87.5741,58.1938 87.8851,58.2888 88.1251,58.4768 C88.3631,58.6598 88.5211,58.8968 88.5891,59.1798 C88.6571,59.4658 88.6911,59.9398 88.6911,60.6078 L88.6911,65.9408 L86.4861,65.9408 L86.4861,60.6708 C86.4861,60.1468 86.4681,59.8288 86.4341,59.7118 C86.4041,59.5948 86.3101,59.5378 86.1611,59.5378" id="Fill-529" fill="#054A8A" mask="url(#mask-2)"></path>
            <path d="M85.8667,59.7387 C85.8237,59.8687 85.8067,60.2227 85.8067,60.7957 L85.8067,65.9417 L83.6007,65.9417 L83.6007,58.3277 L85.8457,58.3277 L85.8067,59.0317 L85.9697,59.5877 C85.9217,59.6227 85.8877,59.6727 85.8667,59.7387" id="Fill-530" fill="#054A8A" mask="url(#mask-2)"></path>
            <polygon id="Fill-531" fill="#054A8A" mask="url(#mask-2)" points="80.264 65.941 82.538 65.941 82.538 58.328 80.264 58.328"></polygon>
            <polygon id="Fill-532" fill="#FFFFFE" mask="url(#mask-2)" points="80.264 57.867 82.538 57.867 82.538 56.659 80.264 56.659"></polygon>
            <path d="M76.6488,63.7197 C76.7938,63.7197 76.8878,63.6577 76.9348,63.5367 C76.9768,63.4147 76.9988,63.1377 76.9988,62.7077 L76.9988,60.3477 C76.9988,60.0037 76.9768,59.7787 76.9388,59.6847 C76.9048,59.5867 76.8158,59.5377 76.6878,59.5377 C76.5588,59.5377 76.4698,59.5947 76.4148,59.7037 C76.3628,59.8147 76.3368,60.0257 76.3368,60.3477 L76.3368,62.9047 C76.3368,63.2457 76.3548,63.4687 76.3968,63.5677 C76.4358,63.6707 76.5208,63.7197 76.6488,63.7197 M76.9988,58.9027 L77.1568,58.3287 L79.2088,58.3287 L79.2088,64.1907 C79.2088,64.9827 79.1928,65.4937 79.1578,65.7207 C79.1238,65.9547 79.0008,66.2007 78.7918,66.4557 C78.5778,66.7157 78.2838,66.9127 77.9078,67.0467 C77.5318,67.1857 77.0538,67.2527 76.4818,67.2527 C75.7818,67.2527 75.2148,67.1267 74.7878,66.8777 C74.3658,66.6267 74.1428,66.1337 74.1308,65.3987 L76.2688,65.3987 C76.2688,65.7347 76.3878,65.9057 76.6238,65.9057 C76.7888,65.9057 76.9008,65.8507 76.9518,65.7487 C77.0068,65.6457 77.0368,65.4307 77.0368,65.1037 L77.0368,64.5257 C76.8448,64.7097 76.6488,64.8447 76.4398,64.9337 C76.2258,65.0277 76.0088,65.0727 75.7778,65.0727 C75.3808,65.0727 75.0528,64.9917 74.8008,64.8217 C74.5408,64.6507 74.3658,64.4317 74.2718,64.1587 C74.1778,63.8857 74.1308,63.4967 74.1308,62.9897 L74.1308,60.2277 C74.1308,59.5057 74.2508,58.9857 74.5018,58.6687 C74.7498,58.3507 75.1248,58.1937 75.6288,58.1937 C75.9108,58.1937 76.1618,58.2527 76.3878,58.3687 C76.6148,58.4897 76.8188,58.6637 76.9988,58.9027" id="Fill-533" fill="#054A8A" mask="url(#mask-2)"></path>
            <path d="M73.4352,58.1942 L73.4352,60.8722 C73.0302,60.8722 72.7362,60.9252 72.5432,61.0422 C72.3552,61.1582 72.2402,61.3152 72.1982,61.5212 C72.1512,61.7272 72.1292,62.1972 72.1292,62.9362 L72.1292,65.9412 L69.9232,65.9412 L69.9232,58.3282 L72.1292,58.3282 L72.0442,59.3272 C72.3642,58.6152 72.8292,58.2342 73.4352,58.1942" id="Fill-534" fill="#054A8A" mask="url(#mask-2)"></path>
            <polygon id="Fill-535" fill="#054A8A" mask="url(#mask-2)" points="66.589 65.941 68.86 65.941 68.86 58.328 66.589 58.328"></polygon>
            <polygon id="Fill-536" fill="#FFFFFE" mask="url(#mask-2)" points="66.589 57.867 68.86 57.867 68.86 56.659 66.589 56.659"></polygon>
            <path d="M65.9926,56.6578 L64.8236,65.9418 L61.3326,65.9418 L60.0056,56.6578 L62.4286,56.6578 C62.7106,59.2108 62.9076,61.3728 63.0306,63.1418 C63.1506,61.3558 63.2786,59.7708 63.4066,58.3818 L63.5646,56.6578 L65.9926,56.6578 Z" id="Fill-537" fill="#054A8A" mask="url(#mask-2)"></path>
            <path d="M54.931,59.5378 C54.854,59.5378 54.786,59.5548 54.738,59.5868 L54.576,59.0308 C54.735,58.7488 54.931,58.5378 55.162,58.3998 C55.396,58.2618 55.66,58.1938 55.964,58.1938 C56.343,58.1938 56.65,58.2888 56.895,58.4768 C57.133,58.6598 57.287,58.8968 57.359,59.1798 C57.427,59.4658 57.461,59.9398 57.461,60.6078 L57.461,65.9408 L55.256,65.9408 L55.256,60.6708 C55.256,60.1468 55.238,59.8288 55.204,59.7118 C55.17,59.5948 55.08,59.5378 54.931,59.5378" id="Fill-538" fill="#054A8A" mask="url(#mask-2)"></path>
            <path d="M54.6367,59.7387 C54.5937,59.8687 54.5767,60.2227 54.5767,60.7957 L54.5767,65.9417 L52.3657,65.9417 L52.3657,58.3277 L54.6157,58.3277 L54.5767,59.0317 L54.7397,59.5877 C54.6917,59.6227 54.6577,59.6727 54.6367,59.7387" id="Fill-539" fill="#054A8A" mask="url(#mask-2)"></path>
            <path d="M51.611,58.1942 L51.611,60.8722 C51.206,60.8722 50.907,60.9252 50.719,61.0422 C50.531,61.1582 50.412,61.3152 50.369,61.5212 C50.327,61.7272 50.305,62.1972 50.305,62.9362 L50.305,65.9412 L48.094,65.9412 L48.094,58.3282 L50.305,58.3282 L50.215,59.3272 C50.536,58.6152 51.001,58.2342 51.611,58.1942" id="Fill-540" fill="#054A8A" mask="url(#mask-2)"></path>
            <path d="M44.4841,58.1942 C45.1031,58.1942 45.6141,58.3152 46.0151,58.5612 C46.4211,58.8072 46.7031,59.1342 46.8651,59.5422 C47.0281,59.9492 47.1081,60.5222 47.1081,61.2622 L47.1081,62.2702 L44.2501,62.2702 L44.2501,63.9172 C44.2501,64.2622 44.2751,64.4812 44.3171,64.5792 C44.3691,64.6782 44.4591,64.7272 44.5941,64.7272 C44.7611,64.7272 44.8721,64.6642 44.9281,64.5302 C44.9831,64.4002 45.0131,64.1452 45.0131,63.7652 L45.0131,62.7622 L47.1081,62.7622 L47.1081,63.3262 C47.1081,63.7952 47.0781,64.1542 47.0231,64.4092 C46.9681,64.6602 46.8361,64.9292 46.6271,65.2162 C46.4171,65.5022 46.1571,65.7172 45.8371,65.8602 C45.5171,66.0032 45.1191,66.0752 44.6371,66.0752 C44.1681,66.0752 43.7591,66.0032 43.4001,65.8652 C43.0461,65.7222 42.7691,65.5292 42.5681,65.2832 C42.3711,65.0362 42.2311,64.7632 42.1531,64.4682 C42.0821,64.1722 42.0431,63.7422 42.0431,63.1732 L42.0431,60.9572 C42.0431,60.2902 42.1281,59.7662 42.3001,59.3812 C42.4691,59.0002 42.7511,58.7052 43.1401,58.4992 C43.5321,58.2922 43.9761,58.1942 44.4841,58.1942 L44.4841,58.1942 Z M44.8941,61.0282 L44.8941,60.4732 C44.8941,60.0792 44.8721,59.8292 44.8341,59.7122 C44.7911,59.5962 44.7101,59.5382 44.5871,59.5382 C44.4381,59.5382 44.3391,59.5872 44.3051,59.6852 C44.2661,59.7842 44.2501,60.0482 44.2501,60.4732 L44.2501,61.0282 L44.8941,61.0282 Z" id="Fill-541" fill="#054A8A" mask="url(#mask-2)"></path>
            <path d="M40.7584,58.5121 L41.3524,58.5121 L41.3524,59.7161 L40.7584,59.7161 L40.7584,63.7871 C40.7584,64.2891 40.7834,64.5711 40.8314,64.6251 C40.8824,64.6831 41.0864,64.7141 41.4454,64.7141 L41.4454,65.9411 L40.5574,65.9411 C40.0544,65.9411 39.6954,65.9181 39.4784,65.8741 C39.2644,65.8291 39.0764,65.7261 38.9104,65.5691 C38.7484,65.4131 38.6454,65.2291 38.6034,65.0231 C38.5644,64.8221 38.5434,64.3381 38.5434,63.5801 L38.5434,59.7161 L38.0694,59.7161 L38.0694,58.5121 L38.5434,58.5121 L38.5434,57.3171 L40.7584,57.3171 L40.7584,58.5121 Z" id="Fill-542" fill="#054A8A" mask="url(#mask-2)"></path>
            <path d="M35.1125,64.7277 C35.2705,64.7277 35.3815,64.6877 35.4405,64.6067 C35.5005,64.5257 35.5345,64.3507 35.5345,64.0867 C35.5345,63.7247 35.4965,63.4967 35.4155,63.4067 C35.3305,63.3127 34.9035,63.0437 34.1315,62.5907 C33.4825,62.2107 33.0855,61.8617 32.9445,61.5477 C32.8035,61.2397 32.7315,60.8677 32.7315,60.4377 C32.7315,59.8327 32.8085,59.3847 32.9625,59.0937 C33.1155,58.8077 33.3705,58.5827 33.7375,58.4267 C34.1055,58.2697 34.5325,58.1937 35.0145,58.1937 C35.4965,58.1937 35.9055,58.2567 36.2395,58.3867 C36.5805,58.5117 36.8365,58.6827 37.0155,58.8927 C37.1995,59.1027 37.3105,59.2957 37.3445,59.4757 C37.3835,59.6587 37.4045,59.9397 37.4045,60.3217 L37.4045,60.7607 L35.4455,60.7607 L35.4455,60.3477 C35.4455,59.9987 35.4285,59.7747 35.3895,59.6807 C35.3515,59.5867 35.2575,59.5377 35.1035,59.5377 C34.9805,59.5377 34.8855,59.5817 34.8215,59.6667 C34.7625,59.7517 34.7275,59.8827 34.7275,60.0567 C34.7275,60.2897 34.7455,60.4607 34.7755,60.5677 C34.8095,60.6797 34.9035,60.7957 35.0575,60.9257 C35.2105,61.0607 35.5305,61.2477 36.0085,61.4947 C36.6525,61.8207 37.0715,62.1347 37.2715,62.4267 C37.4725,62.7167 37.5745,63.1377 37.5745,63.6927 C37.5745,64.3107 37.4985,64.7767 37.3445,65.0947 C37.1915,65.4077 36.9345,65.6497 36.5765,65.8197 C36.2175,65.9907 35.7825,66.0757 35.2795,66.0757 C34.7155,66.0757 34.2375,65.9857 33.8365,65.8017 C33.4395,65.6177 33.1615,65.3677 33.0125,65.0547 C32.8635,64.7447 32.7915,64.2657 32.7915,63.6347 L32.7915,63.2677 L34.7455,63.2677 L34.7455,63.7477 C34.7455,64.1587 34.7715,64.4227 34.8215,64.5437 C34.8695,64.6697 34.9675,64.7277 35.1125,64.7277" id="Fill-543" fill="#054A8A" mask="url(#mask-2)"></path>
            <path d="M29.2828,58.1942 C29.9018,58.1942 30.4138,58.3152 30.8148,58.5612 C31.2198,58.8072 31.5018,59.1342 31.6638,59.5422 C31.8268,59.9492 31.9078,60.5222 31.9078,61.2622 L31.9078,62.2702 L29.0488,62.2702 L29.0488,63.9172 C29.0488,64.2622 29.0738,64.4812 29.1208,64.5792 C29.1678,64.6782 29.2578,64.7272 29.3938,64.7272 C29.5598,64.7272 29.6708,64.6642 29.7268,64.5302 C29.7868,64.4002 29.8168,64.1452 29.8168,63.7652 L29.8168,62.7622 L31.9078,62.7622 L31.9078,63.3262 C31.9078,63.7952 31.8778,64.1542 31.8228,64.4092 C31.7668,64.6602 31.6348,64.9292 31.4258,65.2162 C31.2158,65.5022 30.9558,65.7172 30.6358,65.8602 C30.3198,66.0032 29.9178,66.0752 29.4368,66.0752 C28.9708,66.0752 28.5568,66.0032 28.2028,65.8652 C27.8448,65.7222 27.5678,65.5292 27.3718,65.2832 C27.1698,65.0362 27.0298,64.7632 26.9568,64.4682 C26.8808,64.1722 26.8418,63.7422 26.8418,63.1732 L26.8418,60.9572 C26.8418,60.2902 26.9268,59.7662 27.0988,59.3812 C27.2688,59.0002 27.5498,58.7052 27.9378,58.4992 C28.3308,58.2922 28.7788,58.1942 29.2828,58.1942 L29.2828,58.1942 Z M29.6928,61.0282 L29.6928,60.4732 C29.6928,60.0792 29.6708,59.8292 29.6328,59.7122 C29.5948,59.5962 29.5098,59.5382 29.3858,59.5382 C29.2368,59.5382 29.1378,59.5872 29.1038,59.6852 C29.0648,59.7842 29.0488,60.0482 29.0488,60.4732 L29.0488,61.0282 L29.6928,61.0282 Z" id="Fill-544" fill="#054A8A" mask="url(#mask-2)"></path>
            <path d="M19.3652,56.6578 L19.5992,59.8958 L19.8392,63.0218 C19.9242,61.4048 20.1332,59.2828 20.4742,56.6578 L22.8692,56.6578 C22.9032,56.9268 22.9842,57.9478 23.1212,59.7158 L23.3722,63.2458 C23.4962,61.0018 23.7092,58.8038 24.0082,56.6578 L26.2442,56.6578 L25.2242,65.9418 L22.3482,65.9418 C22.0882,64.5118 21.8532,62.8918 21.6572,61.0778 C21.5632,61.8528 21.3492,63.4728 21.0172,65.9418 L18.1572,65.9418 L17.1282,56.6578 L19.3652,56.6578 Z" id="Fill-545" fill="#054A8A" mask="url(#mask-2)"></path>
        </g>
    </g>
</svg>