<svg width="360" height="360" viewBox="0 0 360 360" fill="none" xmlns="http://www.w3.org/2000/svg">
<path d="M44.0078 234.327C42.3318 231.251 40.8182 228.496 38.9038 225.011C53.5354 216.617 68.1486 208.233 82.9931 199.591C83.2245 199.333 83.1899 199.316 83.427 199.263C83.6642 199.21 83.9816 198.891 83.9816 198.891C92.4232 194.08 100.865 189.269 110.222 183.936C106.935 181.834 104.645 180.216 102.217 178.842C82.9608 167.949 63.6826 157.095 44.3949 146.258C42.9941 145.471 41.4656 144.911 39.7417 144.019C39.8937 142.145 39.9667 140.313 40.7593 138.879C48.1222 125.551 55.609 112.291 63.1162 98.6754C66.0389 93.5915 68.9053 88.8441 71.981 83.7501C78.7282 87.5079 85.2997 91.1679 92.429 95.1492C94.8517 96.5409 96.7042 97.6338 98.5838 98.678C113.262 106.832 127.945 114.977 142.915 123.445C143.837 122.997 145.02 122.232 145.023 121.462C145.074 109.978 144.969 98.4937 144.99 86.5473C145.084 71.0625 145.088 56.0396 145.092 41.0166C145.259 40.9726 145.427 40.9285 146.273 40.8083C168.98 40.7704 191.008 40.8087 213.037 40.847C213.102 46.2604 213.168 51.6739 213.239 58.0043C213.31 67.9485 213.376 76.9756 213.345 86.4621C213.255 98.9145 213.262 110.907 213.212 123.137C213.525 123.347 213.895 123.319 214.598 123.192C232.628 112.745 250.324 102.397 268.361 91.9745C271.797 89.9422 274.892 87.984 278.283 86.0466C278.771 85.7359 278.964 85.4043 279.138 85.1133C279.119 85.1538 279.195 85.2021 279.195 85.2021C281.157 84.3918 283.119 83.5816 285.527 82.5873C296.732 101.879 307.964 121.219 319.535 141.141C295.787 154.963 272.201 168.689 247.947 182.805C272.107 196.449 295.908 209.89 320.014 223.502C311.18 239.201 302.475 254.672 293.767 270.14C291.813 273.612 290.008 277.188 287.767 280.465C287.222 281.262 284.864 281.724 283.947 281.225C271.407 274.397 259.005 267.314 246.502 260.417C237.558 255.483 228.5 250.758 219.531 245.868C218.439 245.273 217.589 244.234 216.153 243.149C215.68 242.899 215.282 242.879 215.125 242.679C214.495 242.688 214.022 242.896 213.463 243.334C213.377 243.563 213.562 244.016 213.562 244.016C213.459 257.273 213.334 270.53 213.259 283.787C213.181 297.549 213.151 311.312 212.566 325.465C189.681 325.812 167.33 325.768 144.979 325.724C144.979 325.724 144.978 326.014 145.074 325.541C145.142 299.366 145.134 273.664 145.045 247.962C145.039 246.369 144.403 244.778 144.06 243.186C122.532 255.62 101.003 268.054 79.2357 280.733C77.1408 281.9 75.2853 282.823 73.0687 283.927C71.5436 281.382 70.0628 278.911 68.3217 276.211C60.0977 262.204 52.134 248.427 44.0078 234.327ZM184.182 247.17C183.851 246.987 183.52 246.804 182.822 246.076C181.078 245.011 179.335 243.946 176.935 242.48C176.935 251.917 177.295 260.542 176.807 269.119C176.486 274.767 179.214 277.041 184.593 278.34C184.5 268.155 184.406 257.969 184.194 247.736C184.194 247.736 184.321 247.732 184.182 247.17ZM180.245 199.81C177.227 198.46 177.908 200.821 177.886 202.256C177.78 209.163 177.685 216.072 177.735 222.979C177.743 224.116 178.491 225.247 179.159 226.889C179.998 227.331 180.838 227.773 182.097 228.832C182.917 229.134 183.738 229.435 184.795 229.823C184.795 220.946 184.917 212.534 184.668 204.133C184.629 202.826 182.895 201.569 181.479 200.041C181.305 200.061 181.131 200.081 180.245 199.81ZM184.247 303.223C184.421 299.004 184.8 294.776 184.636 290.57C184.591 289.404 182.934 288.301 181.298 286.926C178.378 286.036 176.447 286.304 176.766 290.171C177.229 295.782 177.306 301.428 177.874 307.027C178.05 308.766 179.284 310.399 180.034 312.08C180.647 312.076 181.26 312.072 181.873 312.067C182.583 309.378 183.292 306.69 184.247 303.223ZM170.65 193.259C175.967 195.518 181.387 197.576 186.532 200.176C187.848 200.841 189.259 204.427 189.003 204.631C185.017 207.802 187.705 211.478 187.477 215.274C192.869 214.215 196.568 211.82 198.016 206.856C199.349 202.29 198.521 198.045 194.089 195.697C187.906 192.422 181.452 189.658 175.038 185.786C175.038 181.241 175.038 176.697 175.038 171.802C169.717 172.672 166.024 174.571 164.987 179.429C163.489 186.447 164.736 189.398 170.65 193.259ZM187.899 173.837C188.372 174.604 188.687 175.833 189.346 176.058C192.321 177.075 200.14 174.075 201.511 171.095C203.206 167.409 203.423 163.569 200.371 159.728C198.878 158.006 197.648 155.917 195.847 154.627C189.584 150.14 183.128 145.923 176.737 141.617C170.02 137.094 164.093 132.037 164.16 122.284C166.005 114.731 168.741 112.974 176.204 114.567C177.987 114.947 179.75 115.433 181.543 115.755C188.137 116.941 194.008 115.038 201.17 111.457C193.771 108.405 187.982 105.419 181.846 103.603C166.322 99.0108 153.382 108.239 153.908 123.811C154.89 132.47 158.489 139.775 165.441 145.146C172.022 150.229 178.839 155.007 185.43 160.076C188.562 162.484 192.355 164.927 188.115 169.655C187.548 170.286 188.041 171.869 187.899 173.837ZM194.669 252.966C196.716 247.002 194.607 242.124 190.265 238.217C186.684 234.995 182.847 231.955 178.746 229.451C175.988 227.767 174.744 226.079 174.96 222.821C175.244 218.547 175.03 214.239 175.03 209.518C169.622 210.531 165.183 212.58 163.348 217.438C161.507 222.309 162.861 227.089 166.927 230.539C172.203 235.015 177.551 239.449 183.21 243.413C186.536 245.742 188.355 248.209 187.861 252.33C187.664 253.972 188.016 255.68 188.213 258.911C191.012 256.443 192.634 255.012 194.669 252.966ZM185.346 68.9835C184.301 71.2223 183.256 73.4612 181.998 76.1578C179.835 75.3155 177.685 74.4783 175.925 73.7929C177.168 82.7884 178.406 91.7527 179.657 100.806C181.493 101.18 183.387 101.567 184.526 101.799C187.648 88.4096 190.683 75.3962 193.717 62.3828C193.473 62.1129 193.228 61.843 192.983 61.5731C190.573 63.8393 188.163 66.1054 185.346 68.9835ZM179.992 141.169C181.343 142.077 182.693 142.984 184.496 144.195C186.807 132.163 199.3 132.38 207.181 124.738C203.071 124.922 200.482 125.038 197.892 125.154C197.377 123.709 196.801 122.092 195.913 119.603C192.003 123.984 188.76 127.616 184.706 132.158C184.706 126.874 184.706 122.69 184.706 118.337C182.401 118.059 180.674 117.851 178.385 117.576C178.385 122.019 178.263 125.829 178.42 129.627C178.574 133.344 179.013 137.048 179.992 141.169ZM186.365 284.542C185.988 279.991 181.45 280.539 178.934 278.663C175.738 276.28 171.862 274.633 171.673 269.948C171.563 267.212 172 264.457 171.963 261.714C171.95 260.748 171.259 259.792 170.877 258.831C169.897 259.273 168.711 259.497 167.972 260.193C164.352 263.603 163.477 269.694 165.854 274.358C170.007 282.503 177.447 284.554 186.365 284.542ZM184.802 175.486C184.8 172.832 184.505 170.139 184.859 167.533C185.549 162.44 183.082 159.928 177.871 158.445C177.871 165.849 177.883 172.91 177.868 179.972C177.856 185.565 178.64 186.325 184.805 186.388C184.805 183.08 184.805 179.773 184.802 175.486Z" fill="white"/>
</svg>
